<svg width="100" height="100" viewBox="0 0 100 100" fill="none" xmlns="http://www.w3.org/2000/svg">
<g clip-path="url(#clip0)">
<path d="M81.1543 87.0968L77.4204 75.8936C76.1156 71.9823 72.7865 69.0952 68.7285 68.3565L57.9494 66.3952V65.5597C59.8252 64.471 61.4575 63.0145 62.7575 61.2903H66.014C68.6817 61.2903 70.8527 59.1194 70.8527 56.4516V37.0968C70.8527 25.5355 61.4462 16.129 49.8849 16.129C38.3236 16.129 28.9172 25.5355 28.9172 37.0968V48.3871C28.9172 51.4968 31.1285 54.0984 34.0607 54.7048C34.9656 59.3403 37.8623 63.2629 41.8204 65.5597V66.3952L31.0398 68.3565C26.9833 69.0952 23.6527 71.9823 22.3494 75.8936L21.7043 77.8306L16.2107 72.3371C15.5817 71.7081 15.5817 70.6839 16.2107 70.0548L22.5817 63.6855L10.6236 51.7274L3.42364 58.9274C1.29138 61.0597 0.117188 63.8952 0.117188 66.9113C0.117188 69.9274 1.29138 72.7613 3.42364 74.8935L25.222 96.6919C27.3543 98.8242 30.1898 100 33.2059 100C36.222 100 39.0559 98.8242 41.1381 96.7403L48.9946 89.5419L46.5446 87.0968H81.1543ZM67.6269 56.4516C67.6269 57.3419 66.9027 58.0645 66.014 58.0645H64.6575C65.1252 56.9984 65.4801 55.8742 65.7091 54.7048C66.3994 54.5613 67.0349 54.2871 67.6269 53.9419V56.4516ZM66.014 51.1645V45.6097C66.9736 46.1694 67.6269 47.1984 67.6269 48.3871C67.6269 49.5758 66.9736 50.6048 66.014 51.1645ZM33.7559 51.1645C32.7962 50.6048 32.143 49.5758 32.143 48.3871C32.143 47.1984 32.7962 46.1694 33.7559 45.6097V51.1645ZM33.7559 40.3226V42.1645C33.1817 42.3145 32.643 42.5403 32.143 42.8323V37.0968C32.143 27.3145 40.1027 19.3548 49.8849 19.3548C59.6672 19.3548 67.6269 27.3145 67.6269 37.0968V42.8323C67.1269 42.5403 66.5881 42.3129 66.014 42.1645V40.3226H64.401C59.6317 40.3226 55.1478 38.4645 51.7736 35.0919L49.8849 33.2032L47.9962 35.0919C44.622 38.4645 40.1381 40.3226 35.3688 40.3226H33.7559ZM36.9817 51.6129V43.4871C41.8252 43.1226 46.3414 41.1242 49.8849 37.7548C53.4285 41.1242 57.9446 43.1242 62.7881 43.4871V51.6129C62.7881 53.9645 62.1462 56.1645 61.043 58.0645H49.8849V61.2903H58.3914C56.1172 63.2919 53.1446 64.5161 49.8849 64.5161C42.7704 64.5161 36.9817 58.7274 36.9817 51.6129ZM54.7236 66.9984V67.0742L49.8849 71.9129L45.0462 67.0742V66.9984C46.5752 67.479 48.1994 67.7419 49.8849 67.7419C51.5704 67.7419 53.1946 67.479 54.7236 66.9984ZM25.4075 76.9129C26.3381 74.1194 28.7172 72.0565 31.6156 71.5274L42.8898 69.479L49.8849 76.4742L56.8785 69.4806L68.151 71.529C71.0494 72.0581 73.4285 74.1194 74.3591 76.9145L76.6801 83.871H43.3188L37.0365 77.5887L30.0559 83.9032C29.4478 84.5145 28.3849 84.5145 27.7752 83.9032L24.2527 80.3806L25.4075 76.9129ZM10.622 56.2887L18.0188 63.6855L16.2672 65.4371L8.87041 58.0403L10.622 56.2887ZM38.9043 94.4145C37.3817 95.9339 35.3559 96.7742 33.2027 96.7742C31.0494 96.7742 29.0236 95.9339 27.4994 94.4113L5.70106 72.6145C4.17848 71.0919 3.33977 69.0661 3.33977 66.9129C3.33977 64.7581 4.17848 62.7323 5.70106 61.2097L6.58815 60.3226L13.9849 67.7194L13.9269 67.7774C12.0414 69.6645 12.0414 72.7339 13.9269 74.621L25.493 86.1871C26.4075 87.1 27.622 87.6048 28.9156 87.6048C30.2091 87.6048 31.4236 87.1016 32.2785 86.2436L32.3994 86.1355L39.8301 93.5661L38.9043 94.4145ZM42.2107 91.3823L34.7962 83.9677L36.9269 82.0419L44.3285 89.4436L42.2107 91.3823Z" fill="#6F3A80"/>
<path d="M95.0463 0H72.4657C69.7979 0 67.627 2.17097 67.627 4.83871V17.7419C67.627 20.4097 69.7979 22.5806 72.4657 22.5806H76.7737L75.106 32.3081L90.6705 22.5806H95.0463C97.7141 22.5806 99.885 20.4097 99.885 17.7419V4.83871C99.885 2.17097 97.7141 0 95.0463 0ZM96.6592 17.7419C96.6592 18.6306 95.935 19.3548 95.0463 19.3548H89.7447L79.5011 25.7565L80.5995 19.3548H72.4657C71.577 19.3548 70.8528 18.6306 70.8528 17.7419V4.83871C70.8528 3.95 71.577 3.22581 72.4657 3.22581H95.0463C95.935 3.22581 96.6592 3.95 96.6592 4.83871V17.7419Z" fill="#6F3A80"/>
<path d="M93.433 6.4516H74.0781V9.67741H93.433V6.4516Z" fill="#6F3A80"/>
<path d="M86.9814 12.9032H74.0781V16.129H86.9814V12.9032Z" fill="#6F3A80"/>
<path d="M93.4328 12.9032H90.207V16.129H93.4328V12.9032Z" fill="#6F3A80"/>
<path d="M49.8846 4.83868C28.8104 4.83868 10.6572 19.4161 5.93782 39.75L2.88136 34.6548L0.115234 36.3145L5.78459 45.7613L15.2314 40.0919L13.5717 37.3258L9.20072 39.9484C13.7717 21.3467 30.4991 8.06449 49.8846 8.06449C54.1217 8.06449 58.3023 8.69352 62.3104 9.93546L63.2652 6.85481C58.9475 5.5161 54.4459 4.83868 49.8846 4.83868Z" fill="#6F3A80"/>
<path d="M99.1007 35.7129L89.6539 30.0436L83.9861 39.492L86.7523 41.1516L89.5749 36.4468C91.0604 40.7936 91.82 45.3404 91.82 50C91.82 59.592 88.4974 68.9694 82.4668 76.4033L84.9716 78.4355C91.4684 70.4291 95.0458 60.3291 95.0458 50C95.0458 45.0662 94.2507 40.2484 92.7007 35.6355L97.441 38.4791L99.1007 35.7129Z" fill="#6F3A80"/>
</g>
<defs>
<clipPath id="clip0">
<rect width="100" height="100" fill="white"/>
</clipPath>
</defs>
</svg>
