<svg width="100" height="100" viewBox="0 0 100 100" fill="none" xmlns="http://www.w3.org/2000/svg">
<g clip-path="url(#clip0)">
<path d="M91.0924 17.2677C77.3337 13.4978 63.494 7.62771 51.0696 0.292175C50.4097 -0.097473 49.5907 -0.097473 48.931 0.292175C36.1482 7.83845 23.0564 13.391 8.90703 17.2677C7.99297 17.5179 7.35938 18.3488 7.35938 19.2966V40.79C7.35938 62.9233 17.5701 77.5741 26.1361 85.9668C35.358 95.0029 46.1001 100 50.0003 100C53.9001 100 64.6423 95.0029 73.8641 85.9668C82.4299 77.5743 92.6401 62.9235 92.6401 40.79V19.2964C92.6401 18.3488 92.0065 17.5179 91.0924 17.2677ZM88.4331 40.7898C88.4331 61.4622 78.9094 75.1331 70.9196 82.9616C61.8511 91.8473 52.1552 95.7926 50.0003 95.7926C47.8454 95.7926 38.149 91.8473 29.0802 82.9616C21.0906 75.1329 11.5666 61.4622 11.5666 40.7898V20.8933C25.0974 17.0515 37.6986 11.69 50.0007 4.541C61.9956 11.5004 75.2255 17.1285 88.4331 20.8925V40.7898Z" fill="#6F3A80"/>
<path d="M31.3556 20.6579C30.9299 19.5769 29.7086 19.0458 28.6273 19.4718C24.8695 20.9525 21.0125 22.3154 17.1635 23.5228C16.2863 23.7982 15.6895 24.6107 15.6895 25.5298V33.653C15.6895 34.8147 16.6314 35.7565 17.793 35.7565C18.9545 35.7565 19.8965 34.8147 19.8965 33.653V27.0671C23.3494 25.9499 26.7986 24.7142 30.1695 23.3859C31.2506 22.9603 31.7816 21.739 31.3556 20.6579Z" fill="#6F3A80"/>
<path d="M35.3505 21.057C35.6327 21.057 35.9193 21.0001 36.1941 20.8802L36.2327 20.8634C37.297 20.397 37.7763 19.1582 37.3099 18.0943C36.8431 17.03 35.5972 16.5486 34.5341 17.0146L34.5001 17.0293C33.4353 17.4943 32.9544 18.7322 33.4195 19.7966C33.7646 20.5869 34.539 21.057 35.3505 21.057Z" fill="#6F3A80"/>
<path d="M75.0627 67.8285C74.0906 67.1932 72.7871 67.4664 72.151 68.4389C70.4176 71.092 68.384 73.6326 66.1059 75.9894C64.2325 77.9273 62.2024 79.7336 60.0721 81.3576C59.1485 82.0619 58.9708 83.3818 59.6749 84.3058C60.0891 84.8486 60.7155 85.1342 61.3491 85.1342C61.794 85.1342 62.2422 84.9937 62.6231 84.7031C64.9209 82.951 67.1104 81.0031 69.1303 78.9137C71.5934 76.366 73.7945 73.616 75.6731 70.74C76.3088 69.7674 76.0352 68.4639 75.0627 67.8285Z" fill="#6F3A80"/>
<path d="M55.1864 84.6567L55.0657 84.7278C54.0605 85.31 53.7169 86.5967 54.2989 87.602C54.689 88.2758 55.395 88.652 56.1214 88.652C56.4788 88.652 56.8417 88.5608 57.1731 88.3684L57.3124 88.2866C58.3149 87.6995 58.6516 86.411 58.0645 85.4085C57.477 84.4063 56.1884 84.0702 55.1864 84.6567Z" fill="#6F3A80"/>
<path d="M35.6616 45.7068C34.37 44.415 32.6523 43.704 30.8253 43.704C28.9984 43.704 27.2804 44.4152 25.9882 45.7068C23.3216 48.3739 23.3216 52.7138 25.9882 55.3808L38.4093 67.8014C39.7011 69.0928 41.4189 69.804 43.246 69.804C45.0732 69.804 46.7909 69.0928 48.0829 67.8011L74.0127 41.871C76.6791 39.2033 76.6791 34.864 74.0124 32.1978C72.7206 30.906 71.0028 30.1951 69.1754 30.1951C67.3483 30.1951 65.6305 30.9062 64.3386 32.1978L43.2458 53.2905L35.6616 45.7068ZM67.3135 35.1728C67.8106 34.6757 68.4721 34.4021 69.1756 34.4021C69.8796 34.4021 70.5405 34.6757 71.0379 35.1728C72.0643 36.1992 72.0643 37.8699 71.0376 38.8966L45.1081 64.8263C44.611 65.3233 43.9495 65.597 43.246 65.597C42.5425 65.597 41.881 65.3233 41.3837 64.8263L28.963 52.406C27.9363 51.3792 27.9363 49.7085 28.9626 48.6821C29.4599 48.1851 30.1214 47.911 30.8251 47.911C31.5288 47.911 32.19 48.1847 32.687 48.6818L41.7583 57.7532C42.153 58.1476 42.6878 58.3692 43.2458 58.3692C43.8038 58.3692 44.3386 58.1477 44.7329 57.7532L67.3135 35.1728Z" fill="#6F3A80"/>
</g>
<defs>
<clipPath id="clip0">
<rect width="100" height="100" fill="white"/>
</clipPath>
</defs>
</svg>
