<svg width="100" height="100" viewBox="0 0 100 100" fill="none" xmlns="http://www.w3.org/2000/svg">
<path d="M68.4688 31.2656C68.1518 30.3491 67.5571 29.5542 66.7674 28.9913C65.9777 28.4285 65.0323 28.1256 64.0625 28.125H62.5V25H64.0625C65.3046 24.9963 66.4947 24.5012 67.373 23.623C68.2512 22.7447 68.7463 21.5546 68.75 20.3125V7.8125C68.7463 6.57044 68.2512 5.38031 67.373 4.50203C66.4947 3.62376 65.3046 3.12871 64.0625 3.125H7.8125C6.57044 3.12871 5.38031 3.62376 4.50203 4.50203C3.62376 5.38031 3.12871 6.57044 3.125 7.8125V20.3125C3.12871 21.5546 3.62376 22.7447 4.50203 23.623C5.38031 24.5012 6.57044 24.9963 7.8125 25H9.375V28.125H7.8125C6.57044 28.1287 5.38031 28.6238 4.50203 29.502C3.62376 30.3803 3.12871 31.5704 3.125 32.8125V45.3125C3.12871 46.5546 3.62376 47.7447 4.50203 48.623C5.38031 49.5012 6.57044 49.9963 7.8125 50H9.375V53.125H7.8125C6.57044 53.1287 5.38031 53.6238 4.50203 54.502C3.62376 55.3803 3.12871 56.5704 3.125 57.8125V70.3125C3.12871 71.5546 3.62376 72.7447 4.50203 73.623C5.38031 74.5012 6.57044 74.9963 7.8125 75H37.5V87.5C37.5 93.6562 52.4375 96.875 67.1875 96.875C81.9375 96.875 96.875 93.6562 96.875 87.5V40.625C96.875 34.6406 82.7969 31.4531 68.4688 31.2656ZM7.8125 21.875C7.3981 21.875 7.00067 21.7104 6.70765 21.4174C6.41462 21.1243 6.25 20.7269 6.25 20.3125V7.8125C6.25 7.3981 6.41462 7.00067 6.70765 6.70765C7.00067 6.41462 7.3981 6.25 7.8125 6.25H64.0625C64.4769 6.25 64.8743 6.41462 65.1674 6.70765C65.4604 7.00067 65.625 7.3981 65.625 7.8125V20.3125C65.625 20.7269 65.4604 21.1243 65.1674 21.4174C64.8743 21.7104 64.4769 21.875 64.0625 21.875H7.8125ZM59.375 25V28.125H53.125V25H59.375ZM50 25V28.125H21.875V25H50ZM18.75 25V28.125H12.5V25H18.75ZM37.5 71.875H7.8125C7.3981 71.875 7.00067 71.7104 6.70765 71.4174C6.41462 71.1243 6.25 70.7269 6.25 70.3125V57.8125C6.25 57.3981 6.41462 57.0007 6.70765 56.7076C7.00067 56.4146 7.3981 56.25 7.8125 56.25H37.5V71.875ZM12.5 53.125V50H18.75V53.125H12.5ZM37.5 53.125H21.875V50H37.5V53.125ZM37.5 40.625V46.875H7.8125C7.3981 46.875 7.00067 46.7104 6.70765 46.4174C6.41462 46.1243 6.25 45.7269 6.25 45.3125V32.8125C6.25 32.3981 6.41462 32.0007 6.70765 31.7076C7.00067 31.4146 7.3981 31.25 7.8125 31.25H64.0625C64.1368 31.2581 64.2101 31.2738 64.2812 31.2969C50.5312 31.6875 37.5 34.875 37.5 40.625ZM93.75 87.5C93.75 89.625 84.375 93.75 67.1875 93.75C50 93.75 40.625 89.625 40.625 87.5V76.2812C45.7656 79.5469 56.5 81.25 67.1875 81.25C77.875 81.25 88.6094 79.5469 93.75 76.2812V87.5ZM93.75 71.875C93.75 74 84.375 78.125 67.1875 78.125C50 78.125 40.625 74 40.625 71.875V60.6562C45.7656 63.9219 56.5 65.625 67.1875 65.625C77.875 65.625 88.6094 63.9219 93.75 60.6562V71.875ZM93.75 56.25C93.75 58.375 84.375 62.5 67.1875 62.5C50 62.5 40.625 58.375 40.625 56.25V45.0312C45.7656 48.2969 56.5 50 67.1875 50C77.875 50 88.6094 48.2969 93.75 45.0312V56.25ZM67.1875 46.875C50 46.875 40.625 42.75 40.625 40.625C40.625 38.5 50 34.375 67.1875 34.375C84.375 34.375 93.75 38.5 93.75 40.625C93.75 42.75 84.375 46.875 67.1875 46.875Z" fill="#6F3A80"/>
<path d="M65.625 54.6875H68.75V57.8125H65.625V54.6875Z" fill="#6F3A80"/>
<path d="M65.625 71.875H68.75V75H65.625V71.875Z" fill="#6F3A80"/>
<path d="M65.625 85.9375H68.75V89.0625H65.625V85.9375Z" fill="#6F3A80"/>
<path d="M17.1875 34.375H10.9375C10.5231 34.375 10.1257 34.5396 9.83265 34.8326C9.53962 35.1257 9.375 35.5231 9.375 35.9375V42.1875C9.375 42.6019 9.53962 42.9993 9.83265 43.2924C10.1257 43.5854 10.5231 43.75 10.9375 43.75H17.1875C17.6019 43.75 17.9993 43.5854 18.2924 43.2924C18.5854 42.9993 18.75 42.6019 18.75 42.1875V35.9375C18.75 35.5231 18.5854 35.1257 18.2924 34.8326C17.9993 34.5396 17.6019 34.375 17.1875 34.375ZM15.625 40.625H12.5V37.5H15.625V40.625Z" fill="#6F3A80"/>
<path d="M29.6875 34.375H23.4375C23.0231 34.375 22.6257 34.5396 22.3326 34.8326C22.0396 35.1257 21.875 35.5231 21.875 35.9375V42.1875C21.875 42.6019 22.0396 42.9993 22.3326 43.2924C22.6257 43.5854 23.0231 43.75 23.4375 43.75H29.6875C30.1019 43.75 30.4993 43.5854 30.7924 43.2924C31.0854 42.9993 31.25 42.6019 31.25 42.1875V35.9375C31.25 35.5231 31.0854 35.1257 30.7924 34.8326C30.4993 34.5396 30.1019 34.375 29.6875 34.375ZM28.125 40.625H25V37.5H28.125V40.625Z" fill="#6F3A80"/>
<path d="M17.1875 9.375H10.9375C10.5231 9.375 10.1257 9.53962 9.83265 9.83265C9.53962 10.1257 9.375 10.5231 9.375 10.9375V17.1875C9.375 17.6019 9.53962 17.9993 9.83265 18.2924C10.1257 18.5854 10.5231 18.75 10.9375 18.75H17.1875C17.6019 18.75 17.9993 18.5854 18.2924 18.2924C18.5854 17.9993 18.75 17.6019 18.75 17.1875V10.9375C18.75 10.5231 18.5854 10.1257 18.2924 9.83265C17.9993 9.53962 17.6019 9.375 17.1875 9.375ZM15.625 15.625H12.5V12.5H15.625V15.625Z" fill="#6F3A80"/>
<path d="M29.6875 9.375H23.4375C23.0231 9.375 22.6257 9.53962 22.3326 9.83265C22.0396 10.1257 21.875 10.5231 21.875 10.9375V17.1875C21.875 17.6019 22.0396 17.9993 22.3326 18.2924C22.6257 18.5854 23.0231 18.75 23.4375 18.75H29.6875C30.1019 18.75 30.4993 18.5854 30.7924 18.2924C31.0854 17.9993 31.25 17.6019 31.25 17.1875V10.9375C31.25 10.5231 31.0854 10.1257 30.7924 9.83265C30.4993 9.53962 30.1019 9.375 29.6875 9.375ZM28.125 15.625H25V12.5H28.125V15.625Z" fill="#6F3A80"/>
<path d="M34.375 9.375H56.25V12.5H34.375V9.375Z" fill="#6F3A80"/>
<path d="M59.375 9.375H62.5V12.5H59.375V9.375Z" fill="#6F3A80"/>
<path d="M34.375 15.625H56.25V18.75H34.375V15.625Z" fill="#6F3A80"/>
<path d="M59.375 15.625H62.5V18.75H59.375V15.625Z" fill="#6F3A80"/>
<path d="M17.1875 59.375H10.9375C10.5231 59.375 10.1257 59.5396 9.83265 59.8326C9.53962 60.1257 9.375 60.5231 9.375 60.9375V67.1875C9.375 67.6019 9.53962 67.9993 9.83265 68.2924C10.1257 68.5854 10.5231 68.75 10.9375 68.75H17.1875C17.6019 68.75 17.9993 68.5854 18.2924 68.2924C18.5854 67.9993 18.75 67.6019 18.75 67.1875V60.9375C18.75 60.5231 18.5854 60.1257 18.2924 59.8326C17.9993 59.5396 17.6019 59.375 17.1875 59.375ZM15.625 65.625H12.5V62.5H15.625V65.625Z" fill="#6F3A80"/>
<path d="M29.6875 59.375H23.4375C23.0231 59.375 22.6257 59.5396 22.3326 59.8326C22.0396 60.1257 21.875 60.5231 21.875 60.9375V67.1875C21.875 67.6019 22.0396 67.9993 22.3326 68.2924C22.6257 68.5854 23.0231 68.75 23.4375 68.75H29.6875C30.1019 68.75 30.4993 68.5854 30.7924 68.2924C31.0854 67.9993 31.25 67.6019 31.25 67.1875V60.9375C31.25 60.5231 31.0854 60.1257 30.7924 59.8326C30.4993 59.5396 30.1019 59.375 29.6875 59.375ZM28.125 65.625H25V62.5H28.125V65.625Z" fill="#6F3A80"/>
</svg>
