<svg width="100" height="100" viewBox="0 0 100 100" fill="none" xmlns="http://www.w3.org/2000/svg">
<g clip-path="url(#clip0)">
<path d="M35.3562 27.8495L33.6649 28.4624C31.0548 29.4089 29.1075 31.6921 28.5827 34.4228L28.0089 37.4298C27.7226 38.9192 28.1124 40.4446 29.079 41.6144C30.046 42.7853 31.4718 43.4567 32.9901 43.4567H47.6497C49.1564 43.4567 50.5749 42.794 51.5417 41.6386C52.5077 40.4841 52.9097 38.9726 52.6444 37.4915L52.1093 34.5003C51.6134 31.7267 49.6597 29.4063 47.0101 28.4448L45.2171 27.795V25.1524C45.2171 25.0782 45.2099 25.006 45.1991 24.9347C46.5071 23.603 47.2564 21.7872 47.2564 19.9294V15.9921C47.2564 12.1487 44.1294 9.02197 40.2858 9.02197C36.4423 9.02197 33.3148 12.1487 33.3148 15.9921V20.0521C33.3148 21.9618 34.1023 23.7054 35.3685 24.9716C35.361 25.031 35.3562 25.0909 35.3562 25.1522V27.8495ZM49.2249 35.0159L49.7601 38.0075C49.8722 38.6327 49.7024 39.2708 49.2944 39.7583C48.8858 40.2466 48.2862 40.5269 47.6493 40.5269H32.9898C32.3482 40.5269 31.7458 40.2433 31.3372 39.7485C30.9294 39.2548 30.7648 38.6112 30.8858 37.981L31.4597 34.9739C31.7903 33.2528 33.0181 31.8132 34.6628 31.2169L35.7706 30.8155C35.7983 30.844 35.8263 30.8728 35.8564 30.8991C37.1187 32.0028 38.7021 32.5548 40.2864 32.5546C41.8689 32.5546 43.4519 32.0038 44.7144 30.9022C44.7599 30.8626 44.8017 30.8198 44.8415 30.7753L46.0101 31.1989C47.6808 31.8048 48.9124 33.2673 49.2249 35.0159ZM36.2444 15.9921C36.2444 13.7644 38.0571 11.9517 40.2853 11.9517C42.1657 11.9517 43.7458 13.2446 44.1944 14.9868C44.0062 15.0788 43.813 15.1657 43.6151 15.2448C41.814 15.9659 40.3591 15.8702 39.9433 15.5788C39.2808 15.1144 38.3675 15.2745 37.9028 15.937C37.4384 16.5995 37.5987 17.5128 38.261 17.9774C38.9765 18.4792 39.9476 18.73 41.0558 18.73C42.0626 18.73 43.1827 18.5208 44.3263 18.1069V19.929C44.3263 21.0487 43.8632 22.1452 43.0556 22.9372C42.6817 23.304 42.2534 23.5882 41.7935 23.7843C41.7612 23.7966 41.7296 23.8099 41.6985 23.8243C41.2261 24.0112 40.7214 24.1052 40.2056 24.0917C38.0212 24.0497 36.2444 22.2374 36.2444 20.0519V15.9921ZM40.1493 27.0212C40.194 27.022 40.2384 27.0224 40.2831 27.0224C40.9704 27.0224 41.6439 26.919 42.2872 26.7208V29.0644C41.0663 29.8171 39.5056 29.8167 38.2862 29.0632V26.7251C38.8788 26.9046 39.5032 27.0087 40.1493 27.0212Z" fill="#6F3A80"/>
<path d="M17.2393 68.5361H62.8584C63.6676 68.5361 64.3233 67.8805 64.3233 67.0713C64.3233 66.2621 63.6676 65.6064 62.8584 65.6064H17.2393C16.4301 65.6064 15.7744 66.2621 15.7744 67.0713C15.7744 67.8805 16.4301 68.5361 17.2393 68.5361Z" fill="#6F3A80"/>
<path d="M17.2393 76.4346H62.8584C63.6676 76.4346 64.3233 75.7789 64.3233 74.9697C64.3233 74.1605 63.6676 73.5049 62.8584 73.5049H17.2393C16.4301 73.5049 15.7744 74.1605 15.7744 74.9697C15.7744 75.7789 16.4301 76.4346 17.2393 76.4346Z" fill="#6F3A80"/>
<path d="M17.2393 84.3325H62.8584C63.6676 84.3325 64.3233 83.6769 64.3233 82.8677C64.3233 82.0585 63.6676 81.4028 62.8584 81.4028H17.2393C16.4301 81.4028 15.7744 82.0585 15.7744 82.8677C15.7744 83.6769 16.4301 84.3325 17.2393 84.3325Z" fill="#6F3A80"/>
<path d="M17.2393 92.2314H62.8584C63.6676 92.2314 64.3233 91.5758 64.3233 90.7666C64.3233 89.9574 63.6676 89.3018 62.8584 89.3018H17.2393C16.4301 89.3018 15.7744 89.9574 15.7744 90.7666C15.7744 91.5758 16.4301 92.2314 17.2393 92.2314Z" fill="#6F3A80"/>
<path d="M15.7744 51.2744C15.7744 52.0836 16.4301 52.7393 17.2393 52.7393H62.8584C63.6676 52.7393 64.3233 52.0836 64.3233 51.2744C64.3233 50.4652 63.6676 49.8096 62.8584 49.8096H17.2393C16.4301 49.8096 15.7744 50.4654 15.7744 51.2744Z" fill="#6F3A80"/>
<path d="M17.2393 60.6377H62.8584C63.6676 60.6377 64.3233 59.982 64.3233 59.1729C64.3233 58.3637 63.6676 57.708 62.8584 57.708H17.2393C16.4301 57.708 15.7744 58.3637 15.7744 59.1729C15.7744 59.982 16.4301 60.6377 17.2393 60.6377Z" fill="#6F3A80"/>
<path d="M11.8297 68.5412C12.6418 68.5412 13.3002 67.883 13.3002 67.0709C13.3002 66.259 12.6418 65.6006 11.8297 65.6006C11.0176 65.6006 10.3594 66.2588 10.3594 67.0709C10.3594 67.883 11.0178 68.5412 11.8297 68.5412Z" fill="#6F3A80"/>
<path d="M11.8297 52.7443C12.6418 52.7443 13.3002 52.0861 13.3002 51.274C13.3002 50.4619 12.6418 49.8037 11.8297 49.8037C11.0176 49.8037 10.3594 50.4619 10.3594 51.274C10.3594 52.0861 11.0178 52.7443 11.8297 52.7443Z" fill="#6F3A80"/>
<path d="M11.8297 60.6428C12.6418 60.6428 13.3002 59.9846 13.3002 59.1725C13.3002 58.3603 12.6418 57.7021 11.8297 57.7021C11.0176 57.7021 10.3594 58.3603 10.3594 59.1725C10.3594 59.9846 11.0178 60.6428 11.8297 60.6428Z" fill="#6F3A80"/>
<path d="M11.8297 76.4397C12.6418 76.4397 13.3002 75.7814 13.3002 74.9693C13.3002 74.1572 12.6418 73.499 11.8297 73.499C11.0176 73.499 10.3594 74.1572 10.3594 74.9693C10.3594 75.7814 11.0178 76.4397 11.8297 76.4397Z" fill="#6F3A80"/>
<path d="M11.8297 84.3386C12.6418 84.3386 13.3002 83.6804 13.3002 82.8683C13.3002 82.0562 12.6418 81.3979 11.8297 81.3979C11.0176 81.3979 10.3594 82.0562 10.3594 82.8683C10.3594 83.6802 11.0178 84.3386 11.8297 84.3386Z" fill="#6F3A80"/>
<path d="M11.8297 92.2365C12.6418 92.2365 13.3002 91.5783 13.3002 90.7662C13.3002 89.9543 12.6418 89.2959 11.8297 89.2959C11.0176 89.2959 10.3594 89.9541 10.3594 90.7662C10.3594 91.5781 11.0178 92.2365 11.8297 92.2365Z" fill="#6F3A80"/>
<path d="M94.8494 23.0705C94.2584 22.3225 93.6998 21.6156 93.4297 20.9645C93.1383 20.2615 93.0234 19.3328 92.9019 18.3492C92.6888 16.6262 92.4474 14.6732 91.0845 13.3105C89.7217 11.9479 87.7685 11.7064 86.0455 11.4934C85.0617 11.3719 84.1326 11.257 83.4297 10.9656C82.7783 10.6955 82.0717 10.1373 81.3234 9.54609C80.2939 8.73262 79.1617 7.83945 77.823 7.43418V6.99102C77.8232 3.13633 74.6867 0 70.8314 0H9.80723C5.95195 0 2.81543 3.13633 2.81543 6.99121V12.6453C2.81543 13.4545 3.47109 14.1102 4.28027 14.1102C5.08945 14.1102 5.74512 13.4545 5.74512 12.6453V6.99121C5.74512 4.75156 7.56738 2.92969 9.80723 2.92969H70.8314C73.0713 2.92969 74.8935 4.75156 74.8935 6.99121V7.43457C73.5553 7.84004 72.4234 8.73281 71.3939 9.54629C70.6457 10.1373 69.939 10.6957 69.2879 10.9658C68.5849 11.257 67.6558 11.3719 66.6721 11.4936C64.949 11.7064 62.9961 11.9479 61.633 13.3105C60.2699 14.6734 60.0285 16.6264 59.8154 18.3494C59.6939 19.3328 59.5791 20.2617 59.2877 20.9646C59.0176 21.6158 58.4592 22.3227 57.868 23.0707C56.7734 24.4557 55.5332 26.0254 55.5332 28.035C55.5332 30.0445 56.7736 31.6143 57.868 32.9992C58.459 33.7473 59.0176 34.4541 59.2877 35.1053C59.5791 35.8082 59.6939 36.7369 59.8154 37.7207C60.0285 39.4436 60.2699 41.3965 61.6328 42.7592C62.9957 44.1221 64.9488 44.3633 66.6719 44.5764C67.1855 44.6398 67.6834 44.7021 68.143 44.7881V66.9301C68.143 67.7979 68.6273 68.5728 69.4072 68.9525C70.1869 69.3328 71.0957 69.2363 71.7795 68.701L74.8933 66.2629V93.009C74.8933 95.2486 73.0711 97.0705 70.8312 97.0705H9.80723C7.56738 97.0705 5.74512 95.2486 5.74512 93.009V19.0959C5.74512 18.2867 5.08945 17.6311 4.28027 17.6311C3.47109 17.6311 2.81543 18.2867 2.81543 19.0959V93.0088C2.81543 96.8637 5.95195 100 9.80723 100H70.8314C74.6867 100 77.8232 96.8637 77.8232 93.0088V66.2627L80.9371 68.7006C81.3435 69.0189 81.8299 69.1822 82.3217 69.1822C82.6568 69.1822 82.9943 69.1062 83.3107 68.9521C84.0908 68.5725 84.5756 67.7975 84.5756 66.9299V50.5828C84.5756 49.7736 83.9199 49.118 83.1107 49.118C82.3015 49.118 81.6459 49.7736 81.6459 50.5828V65.535L77.7519 62.4863C77.3584 62.1748 76.8635 62.0031 76.3582 62.0031C75.8529 62.0031 75.358 62.1748 74.9707 62.4812L71.0724 65.5334V46.2707C71.1787 46.3539 71.2855 46.4381 71.3937 46.5234C72.7789 47.618 74.3488 48.858 76.3586 48.858C78.3681 48.858 79.9381 47.6178 81.3232 46.5236C82.0715 45.9326 82.7783 45.374 83.4295 45.1039C84.1324 44.8127 85.0615 44.6978 86.0453 44.5762C87.7683 44.3633 89.7213 44.1219 91.0845 42.7592C92.4472 41.3963 92.6887 39.4434 92.9017 37.7205C93.0234 36.7369 93.1383 35.808 93.4297 35.1051C93.6998 34.4539 94.2582 33.7471 94.8494 32.999C95.9439 31.6141 97.1842 30.0443 97.1842 28.0348C97.1842 26.0252 95.9437 24.4555 94.8494 23.0705ZM92.5508 31.1826C91.8617 32.0547 91.1492 32.9562 90.7236 33.9828C90.2797 35.0531 90.1346 36.2264 89.9943 37.3609C89.8242 38.7371 89.6637 40.0369 89.0133 40.6873C88.3627 41.3377 87.0627 41.4982 85.6863 41.6684C84.5515 41.8086 83.3785 41.9535 82.3078 42.3975C81.2812 42.823 80.3797 43.5354 79.5076 44.2244C78.3984 45.1004 77.351 45.9281 76.359 45.9281C75.367 45.9281 74.3195 45.1006 73.2103 44.2244C72.3383 43.5355 71.4367 42.823 70.4101 42.3975C70.3394 42.3682 70.0941 42.2748 70.0412 42.2584C69.073 41.9217 68.0373 41.7926 67.0314 41.6684C65.6551 41.4982 64.3551 41.3375 63.7045 40.6871C63.0543 40.0369 62.8935 38.7371 62.7234 37.3611C62.5832 36.2264 62.4383 35.0535 61.9943 33.9828C61.5685 32.9562 60.8562 32.0547 60.1672 31.1826C59.2912 30.0736 58.4635 29.0264 58.4635 28.0348C58.4635 27.0432 59.291 25.9959 60.1672 24.8869C60.8562 24.0148 61.5687 23.1133 61.9943 22.0867C62.4383 21.0164 62.5834 19.8432 62.7234 18.7086C62.8935 17.3324 63.0543 16.0326 63.7047 15.3822C64.3553 14.7318 65.6553 14.5713 67.0316 14.4012C68.1664 14.2609 69.3394 14.116 70.4101 13.6721C71.4367 13.2465 72.3383 12.5342 73.2103 11.8451C74.3172 10.9707 75.3629 10.1449 76.3531 10.1418C76.3549 10.1418 76.3568 10.142 76.3586 10.142C76.3605 10.142 76.3625 10.1418 76.3644 10.1418C77.3549 10.1447 78.4006 10.9707 79.5076 11.8451C80.3797 12.534 81.2812 13.2465 82.3078 13.6721C83.3783 14.116 84.5517 14.2611 85.6865 14.4012C87.0629 14.5713 88.3629 14.732 89.0133 15.3824C89.6637 16.0328 89.8244 17.3324 89.9945 18.7086C90.1347 19.8432 90.2797 21.0162 90.7236 22.0867C91.1494 23.1133 91.8617 24.0148 92.5508 24.8869C93.4267 25.9959 94.2545 27.0432 94.2545 28.0348C94.2545 29.0264 93.4269 30.0738 92.5508 31.1826Z" fill="#6F3A80"/>
<path d="M85.7634 23.3795L80.7787 21.9691L77.8964 17.6645C77.5521 17.1504 76.9775 16.8438 76.3589 16.8438C75.7404 16.8438 75.1656 17.1506 74.8214 17.6645L71.9392 21.9691L66.954 23.3797C66.3587 23.5482 65.8892 24.0004 65.6982 24.5887C65.5072 25.177 65.6216 25.8186 66.004 26.3041L69.2078 30.375L69.0089 35.5502C68.9849 36.1686 69.2693 36.7549 69.7699 37.1188C70.0912 37.3522 70.4718 37.4729 70.8568 37.4729C71.072 37.4729 71.2884 37.4352 71.4962 37.3586L76.3585 35.5699L81.2205 37.3584C81.8011 37.5725 82.4462 37.4826 82.9468 37.1191C83.4474 36.7557 83.7322 36.1695 83.7084 35.551L83.5095 30.3748L86.7134 26.3039C87.0959 25.8178 87.2101 25.1766 87.0189 24.5883C86.8285 24 86.3589 23.548 85.7634 23.3795ZM80.9613 28.8762C80.6906 29.2207 80.5505 29.6516 80.5671 30.0908L80.7191 34.0525L76.9978 32.6836C76.5855 32.5318 76.1314 32.532 75.7199 32.6834L71.9982 34.0525L72.1503 30.0895C72.1667 29.6518 72.0265 29.2209 71.7552 28.8752L69.3033 25.7596L73.1195 24.6801C73.5416 24.5604 73.9085 24.2936 74.1525 23.9291L76.3585 20.6342L78.5644 23.9287C78.8085 24.2934 79.1755 24.5602 79.5984 24.6803L83.4138 25.7596L80.9613 28.8762Z" fill="#6F3A80"/>
</g>
<defs>
<clipPath id="clip0">
<rect width="100" height="100" fill="white"/>
</clipPath>
</defs>
</svg>
