<svg width="80" height="80" viewBox="0 0 80 80" fill="none" xmlns="http://www.w3.org/2000/svg">
<path d="M37.4998 1.44367C39.0469 0.550338 40.9531 0.550339 42.5002 1.44367L57.32 10.0009L72.1407 18.5566C73.6879 19.4498 74.641 21.1006 74.6409 22.8871L74.64 40L74.6409 57.1129C74.641 58.8994 73.6879 60.5502 72.1407 61.4434L57.32 69.9991L42.5002 78.5563C40.9531 79.4497 39.0469 79.4497 37.4998 78.5563L22.68 69.9991L7.85935 61.4434C6.31214 60.5502 5.35904 58.8994 5.35913 57.1129L5.36 40L5.35913 22.8871C5.35904 21.1006 6.31214 19.4498 7.85935 18.5566L22.68 10.0009L37.4998 1.44367Z" fill="#6F3A80"/>
<path d="M25.6375 48.8403C25.9854 48.8403 26.2674 49.1223 26.2674 49.4702V55.3923C26.2674 55.584 26.4234 55.7401 26.6152 55.7401H30.0012V43.3358C30.0012 42.988 30.2832 42.7059 30.631 42.7059C30.9789 42.7059 31.2609 42.988 31.2609 43.3358V55.7402H38.0792L36.1019 53.565C35.8859 53.3273 35.7841 52.9887 35.8295 52.659C35.8303 52.6526 35.8314 52.6463 35.8324 52.6399L37.7156 41.5147L37.2083 40.751C36.9278 40.9502 36.7117 41.142 36.3065 41.142C35.8943 41.142 35.5089 40.9113 35.3192 40.5315V40.5314L33.333 36.5506L28.8082 38.3029C28.6446 38.3731 26.2675 39.4436 26.2675 42.2701V46.5307C26.2676 46.8785 25.9856 47.1606 25.6377 47.1606C25.2898 47.1606 25.0078 46.8785 25.0078 46.5307V42.2701C25.0078 38.5459 28.1966 37.1922 28.3323 37.1364C28.3363 37.1347 28.3403 37.1331 28.3443 37.1316L35.875 34.2151V32.4489C34.6789 31.5187 33.8496 30.1398 33.6414 28.5666C33.045 28.5246 32.4916 28.3019 32.0397 27.9133C31.4496 27.4058 31.1109 26.6671 31.1109 25.8871C31.1109 25.2397 31.3445 24.6216 31.7607 24.1399V21.8066C31.7608 17.5021 35.2628 14 39.5673 14C43.8719 14 47.3738 17.5021 47.3738 21.8066V24.2011C47.7945 24.6779 48.0233 25.2647 48.0233 25.887C48.0233 26.6673 47.6848 27.4058 47.0945 27.9134C46.6429 28.3019 46.0899 28.5243 45.4937 28.5664C45.2838 30.1691 44.4303 31.5994 43.1323 32.5422V34.2151L50.6548 37.1315C50.6588 37.133 50.6627 37.1346 50.6667 37.1362C50.8025 37.192 53.9912 38.5458 53.9912 42.27V55.3921C53.9912 56.2786 53.27 56.9997 52.3836 56.9997H46.3823C46.0344 56.9997 45.7524 56.7177 45.7524 56.3699C45.7524 56.022 46.0344 55.74 46.3823 55.74H47.7376V43.3358C47.7376 42.988 48.0196 42.7059 48.3674 42.7059C48.7153 42.7059 48.9973 42.988 48.9973 43.3358V55.7402H52.3835C52.5752 55.7402 52.7313 55.5841 52.7313 55.3924V42.2701C52.7313 39.434 50.3383 38.366 50.1913 38.3031L45.6701 36.5504L43.6837 40.5314C43.4937 40.9121 43.1078 41.142 42.6964 41.142C42.2932 41.142 42.0792 40.9531 41.7946 40.751L41.2872 41.5147L43.1702 52.6399C43.1713 52.6462 43.1723 52.6525 43.1732 52.6589C43.2187 52.9885 43.1168 53.3272 42.9007 53.565L40.9235 55.7402H43.4426C43.7905 55.7402 44.0725 56.0223 44.0725 56.3701C44.0725 56.718 43.7905 57 43.4426 57H26.6151C25.7286 57 25.0074 56.2787 25.0074 55.3924V49.4703C25.0076 49.1223 25.2896 48.8403 25.6375 48.8403ZM34.5129 36.0937L36.3647 39.805C36.4107 39.7723 37.392 39.075 38.5917 38.2232C38.0711 37.5806 38.6801 38.3323 36.3044 35.3999L34.5129 36.0937ZM38.2361 40.0211L38.7163 40.744H40.2871L40.7673 40.0211L39.5016 39.1222L38.2361 40.0211ZM41.8726 34.4184V33.2396C41.1073 33.548 40.2895 33.6911 39.4908 33.6911C38.665 33.6911 37.8551 33.515 37.1349 33.2001V34.4235L39.5016 37.3449L41.8726 34.4184ZM32.3708 25.8871C32.3709 26.2997 32.5496 26.6901 32.8612 26.9581C33.0672 27.1353 33.316 27.2486 33.5885 27.293V24.4814C32.8646 24.599 32.3708 25.1995 32.3708 25.8871ZM45.5457 27.293C46.2779 27.1741 46.7635 26.5688 46.7635 25.887C46.7635 25.2136 46.2053 24.6655 45.5457 24.5131V27.293ZM45.5119 23.2295C45.7125 23.2526 45.9425 23.3069 46.1139 23.3652V21.8066C46.1139 18.1967 43.1771 15.2598 39.5672 15.2598C35.9573 15.2598 33.0206 18.1967 33.0206 21.8066V23.3219C33.2036 23.2662 33.3935 23.2295 33.5885 23.2122C33.5885 22.6044 33.5832 22.7216 35.5715 20.584C35.9372 20.1911 36.542 20.1088 37.0023 20.4095C39.1969 21.843 41.8739 22.5632 44.3438 22.3858C44.8856 22.3453 45.3791 22.7021 45.5119 23.2295ZM44.2859 27.7889V23.8591V23.6521C41.5669 23.8113 38.7162 23.0035 36.4133 21.5287C35.5014 22.5078 35.0075 23.0213 34.8483 23.2167C34.8483 23.7109 34.8483 27.2232 34.8483 27.7888C34.8483 30.3459 36.9333 32.4311 39.4907 32.4311C42.3625 32.4312 44.2859 30.2034 44.2859 27.7889ZM42.6385 39.805L44.4903 36.0937L42.702 35.4011L40.4142 38.225C41.5776 39.0512 42.533 39.73 42.6385 39.805ZM41.9159 52.7758L40.0926 42.0037H38.9109L37.0877 52.7758L39.5017 55.4316L41.9159 52.7758Z" fill="white"/>
</svg>
