<svg width="81" height="82" viewBox="0 0 81 82" fill="none" xmlns="http://www.w3.org/2000/svg">
<path d="M37.8668 1.80158C39.4139 0.90825 41.3201 0.908249 42.8672 1.80158L57.8459 10.4505L72.8254 19.098C74.3726 19.9912 75.3257 21.642 75.3257 23.4285L75.3248 40.7249L75.3257 58.0213C75.3257 59.8078 74.3726 61.4586 72.8254 62.3518L57.8459 70.9992L42.8672 79.6482C41.3201 80.5415 39.4139 80.5415 37.8668 79.6482L22.8881 70.9992L7.90852 62.3518C6.36131 61.4586 5.40821 59.8078 5.4083 58.0213L5.40918 40.7249L5.4083 23.4285C5.40821 21.642 6.36131 19.9912 7.90852 19.098L22.8881 10.4505L37.8668 1.80158Z" fill="#6F3A80"/>
<path d="M58.7539 26.8875L51.1113 19.246C50.9539 19.0885 50.7403 19 50.5176 19H25.5742C24.1849 19 23.0547 20.1303 23.0547 21.5195V23.1206C18.929 24.739 16 28.7602 16 33.453C16 33.9167 16.3761 34.2928 16.8398 34.2928H27.0936C27.5573 34.2928 27.9334 33.9167 27.9334 33.453V23.1992C27.9334 22.7355 27.5573 22.3594 27.0936 22.3594C26.2841 22.3594 25.495 22.4473 24.7344 22.6128V21.5195C24.7344 21.0564 25.1111 20.6797 25.5742 20.6797H49.6777V25.8027C49.6777 27.192 50.808 28.3223 52.1973 28.3223H57.3203V59.4805C57.3203 59.9436 56.9436 60.3203 56.4805 60.3203H25.5742C25.1111 60.3203 24.7344 59.9436 24.7344 59.4805V52.2858C24.7344 51.822 24.3583 51.4459 23.8945 51.4459C23.4308 51.4459 23.0547 51.822 23.0547 52.2858V59.4805C23.0547 60.8697 24.1849 62 25.5742 62H56.4805C57.8697 62 59 60.8697 59 59.4805V27.4813C59 27.2586 58.9115 27.0449 58.7539 26.8875ZM26.2537 24.0763V32.6131H17.7168C18.1183 28.0907 21.7313 24.4778 26.2537 24.0763ZM52.1973 26.6426C51.7342 26.6426 51.3574 26.2658 51.3574 25.8027V21.8672L56.1334 26.6426H52.1973Z" fill="white"/>
<path d="M24.4882 48.6406C24.3321 48.4843 24.1154 48.3945 23.8945 48.3945C23.6737 48.3945 23.457 48.4843 23.3008 48.6406C23.1446 48.7968 23.0547 49.0135 23.0547 49.2344C23.0547 49.4553 23.1445 49.6719 23.3008 49.8281C23.457 49.9844 23.6737 50.0742 23.8945 50.0742C24.1154 50.0742 24.3321 49.9844 24.4882 49.8281C24.6445 49.6719 24.7344 49.4553 24.7344 49.2344C24.7344 49.0135 24.6445 48.7968 24.4882 48.6406Z" fill="white"/>
<path d="M30.1023 25.3677C29.6385 25.3677 29.2624 25.7438 29.2624 26.2075V35.6213H19.8486C19.3849 35.6213 19.0088 35.9974 19.0088 36.4612C19.0088 42.5782 23.9853 47.5548 30.1023 47.5548C36.2193 47.5548 41.1959 42.5782 41.1959 36.4612C41.1959 30.3442 36.2193 25.3677 30.1023 25.3677ZM30.9421 27.0846C32.9082 27.2591 34.7022 28.041 36.1354 29.2404L30.9421 34.4336V27.0846ZM30.1023 45.8751C25.1945 45.8751 21.1517 42.1 20.7257 37.301H30.1023C30.3341 37.301 30.5439 37.2071 30.6959 37.0553C30.696 37.0552 30.6961 37.0552 30.6962 37.055L37.3233 30.428C38.6915 32.0629 39.5162 34.1676 39.5162 36.4612C39.5162 41.652 35.2931 45.8751 30.1023 45.8751Z" fill="white"/>
<path d="M52.7915 45.5059C51.4022 45.5059 50.2719 46.6361 50.2719 48.0254C50.2719 48.3736 50.343 48.7054 50.4712 49.0073L45.6326 53.8459C45.3001 53.6839 44.9269 53.5928 44.5328 53.5928C44.1481 53.5928 43.7835 53.6798 43.457 53.8346L40.2439 50.6215C40.3553 50.3373 40.4171 50.0283 40.4171 49.705C40.4171 48.3157 39.2868 47.1855 37.8976 47.1855C36.5083 47.1855 35.378 48.3157 35.378 49.705C35.378 50.0814 35.4616 50.4385 35.6103 50.7596L32.5285 53.8414C32.2002 53.6843 31.8328 53.5962 31.4453 53.5962C30.056 53.5962 28.9258 54.7265 28.9258 56.1158C28.9258 57.505 30.056 58.6353 31.4453 58.6353C32.8346 58.6353 33.9648 57.505 33.9648 56.1158C33.9648 55.7263 33.876 55.3573 33.7176 55.0278L36.7822 51.9633C37.1187 52.1302 37.4973 52.2245 37.8977 52.2245C38.35 52.2245 38.7744 52.1042 39.1416 51.8947L42.2641 55.0172C42.1035 55.3485 42.0133 55.72 42.0133 56.1123C42.0133 57.5016 43.1436 58.6319 44.5328 58.6319C45.9221 58.6319 47.0524 57.5016 47.0524 56.1123C47.0524 55.7295 46.9662 55.3666 46.8128 55.0414L51.6062 50.248C51.9597 50.4373 52.3632 50.5449 52.7915 50.5449C54.1807 50.5449 55.311 49.4147 55.311 48.0254C55.311 46.6361 54.1807 45.5059 52.7915 45.5059ZM31.4452 56.9557C30.9821 56.9557 30.6054 56.5789 30.6054 56.1159C30.6054 55.6528 30.9821 55.276 31.4452 55.276C31.6707 55.276 31.8752 55.3658 32.0262 55.5109C32.0296 55.5144 32.0325 55.5182 32.036 55.5217C32.04 55.5257 32.0444 55.5291 32.0485 55.5329C32.1946 55.6841 32.2851 55.8895 32.2851 56.1159C32.2851 56.5789 31.9083 56.9557 31.4452 56.9557ZM37.8976 50.5448C37.4345 50.5448 37.0577 50.1681 37.0577 49.705C37.0577 49.2419 37.4345 48.8652 37.8976 48.8652C38.3607 48.8652 38.7374 49.2419 38.7374 49.705C38.7374 50.1681 38.3607 50.5448 37.8976 50.5448ZM44.5327 56.9522C44.0696 56.9522 43.6928 56.5754 43.6928 56.1123C43.6928 55.6492 44.0696 55.2725 44.5327 55.2725C44.9958 55.2725 45.3725 55.6492 45.3725 56.1123C45.3725 56.5754 44.9958 56.9522 44.5327 56.9522ZM52.7913 48.8652C52.3282 48.8652 51.9514 48.4884 51.9514 48.0253C51.9514 47.5622 52.3283 47.1855 52.7913 47.1855C53.2544 47.1855 53.6311 47.5622 53.6311 48.0253C53.6311 48.4884 53.2544 48.8652 52.7913 48.8652Z" fill="white"/>
<path d="M48.5937 38.7363H44.1611C43.6974 38.7363 43.3213 39.1124 43.3213 39.5762C43.3213 40.0399 43.6973 40.416 44.1611 40.416H48.5937C49.0575 40.416 49.4336 40.0399 49.4336 39.5762C49.4336 39.1124 49.0575 38.7363 48.5937 38.7363Z" fill="white"/>
<path d="M53.0107 38.9824C52.8546 38.8262 52.6379 38.7363 52.417 38.7363C52.1961 38.7363 51.9794 38.8261 51.8232 38.9824C51.667 39.1386 51.5771 39.3553 51.5771 39.5762C51.5771 39.7971 51.6669 40.0137 51.8232 40.1699C51.9794 40.3261 52.1953 40.416 52.417 40.416C52.6379 40.416 52.8546 40.3262 53.0107 40.1699C53.1669 40.0137 53.2568 39.7971 53.2568 39.5762C53.2568 39.3553 53.167 39.1386 53.0107 38.9824Z" fill="white"/>
<path d="M54.4202 30.6738H44.1611C43.6974 30.6738 43.3213 31.0499 43.3213 31.5137C43.3213 31.9774 43.6973 32.3535 44.1611 32.3535H54.4202C54.8839 32.3535 55.26 31.9774 55.26 31.5137C55.26 31.0499 54.8839 30.6738 54.4202 30.6738Z" fill="white"/>
<path d="M54.4202 34.7051H44.1611C43.6974 34.7051 43.3213 35.0812 43.3213 35.5449C43.3213 36.0087 43.6973 36.3848 44.1611 36.3848H54.4202C54.8839 36.3848 55.26 36.0087 55.26 35.5449C55.26 35.0812 54.8839 34.7051 54.4202 34.7051Z" fill="white"/>
</svg>
