<svg width="100" height="100" viewBox="0 0 100 100" fill="none" xmlns="http://www.w3.org/2000/svg">
<g clip-path="url(#clip0)">
<path d="M91.0924 17.2678C77.3337 13.4979 63.494 7.62777 51.0696 0.292236C50.4097 -0.0974119 49.5907 -0.0974119 48.931 0.292236C36.1482 7.83851 23.0564 13.391 8.90703 17.2678C7.99297 17.518 7.35938 18.3488 7.35938 19.2967V40.79C7.35938 62.9234 17.5701 77.5741 26.1361 85.9669C35.358 95.003 46.1001 100 50.0003 100C53.9001 100 64.6423 95.003 73.8641 85.9669C82.4299 77.5743 92.6401 62.9236 92.6401 40.79V19.2965C92.6401 18.3488 92.0065 17.518 91.0924 17.2678ZM88.4331 40.7898C88.4331 61.4622 78.9094 75.1331 70.9196 82.9616C61.8511 91.8473 52.1552 95.7926 50.0003 95.7926C47.8454 95.7926 38.149 91.8473 29.0802 82.9616C21.0906 75.1329 11.5666 61.4622 11.5666 40.7898V20.8934C25.0974 17.0516 37.6986 11.6901 50.0007 4.54106C61.9956 11.5004 75.2255 17.1285 88.4331 20.8926V40.7898Z" fill="#6F3A80"/>
<path d="M31.3547 20.6584C30.9289 19.5773 29.7076 19.0463 28.6263 19.4722C24.8685 20.9529 21.0115 22.3158 17.1625 23.5232C16.2853 23.7986 15.6885 24.6111 15.6885 25.5302V33.6535C15.6885 34.8152 16.6305 35.757 17.792 35.757C18.9535 35.757 19.8955 34.8152 19.8955 33.6535V27.0675C23.3484 25.9503 26.7976 24.7146 30.1685 23.3863C31.2496 22.9607 31.7806 21.7394 31.3547 20.6584Z" fill="#6F3A80"/>
<path d="M35.3505 21.057C35.6327 21.057 35.9193 21.0002 36.1941 20.8803L36.2327 20.8635C37.297 20.3971 37.7763 19.1582 37.3099 18.0944C36.8431 17.0301 35.5972 16.5487 34.5341 17.0147L34.5001 17.0293C33.4353 17.4944 32.9544 18.7322 33.4195 19.7967C33.7646 20.5869 34.539 21.057 35.3505 21.057Z" fill="#6F3A80"/>
<path d="M75.0627 67.8291C74.0906 67.1937 72.7871 67.467 72.151 68.4394C70.4176 71.0925 68.384 73.6332 66.1059 75.99C64.2325 77.9279 62.2024 79.7341 60.0721 81.3582C59.1485 82.0625 58.9708 83.3824 59.6749 84.3064C60.0891 84.8492 60.7155 85.1347 61.3491 85.1347C61.794 85.1347 62.2422 84.9943 62.6231 84.7037C64.9209 82.9515 67.1104 81.0037 69.1303 78.9142C71.5934 76.3666 73.7945 73.6166 75.6731 70.7406C76.3088 69.7679 76.0352 68.4644 75.0627 67.8291Z" fill="#6F3A80"/>
<path d="M55.1864 84.6566L55.0657 84.7277C54.0605 85.31 53.7169 86.5967 54.2989 87.602C54.689 88.2758 55.395 88.652 56.1214 88.652C56.4788 88.652 56.8417 88.5607 57.1731 88.3684L57.3124 88.2865C58.3149 87.6994 58.6516 86.4109 58.0645 85.4084C57.477 84.4062 56.1884 84.0701 55.1864 84.6566Z" fill="#6F3A80"/>
<path d="M35.6616 45.707C34.37 44.4152 32.6523 43.7043 30.8253 43.7043C28.9984 43.7043 27.2804 44.4154 25.9882 45.707C23.3216 48.3742 23.3216 52.714 25.9882 55.381L38.4093 67.8017C39.7011 69.0931 41.4189 69.8042 43.246 69.8042C45.0732 69.8042 46.7909 69.0931 48.0829 67.8013L74.0127 41.8713C76.6791 39.2035 76.6791 34.8642 74.0124 32.198C72.7206 30.9062 71.0028 30.1953 69.1754 30.1953C67.3483 30.1953 65.6305 30.9064 64.3386 32.198L43.2458 53.2908L35.6616 45.707ZM67.3135 35.173C67.8106 34.676 68.4721 34.4023 69.1756 34.4023C69.8796 34.4023 70.5405 34.676 71.0379 35.173C72.0643 36.1994 72.0643 37.8701 71.0376 38.8969L45.1081 64.8265C44.611 65.3236 43.9495 65.5972 43.246 65.5972C42.5425 65.5972 41.881 65.3236 41.3837 64.8265L28.963 52.4062C27.9363 51.3795 27.9363 49.7088 28.9626 48.6824C29.4599 48.1853 30.1214 47.9113 30.8251 47.9113C31.5288 47.9113 32.19 48.1849 32.687 48.682L41.7583 57.7535C42.153 58.1478 42.6878 58.3695 43.2458 58.3695C43.8038 58.3695 44.3386 58.148 44.7329 57.7535L67.3135 35.173Z" fill="#6F3A80"/>
</g>
<defs>
<clipPath id="clip0">
<rect width="100" height="100" fill="white"/>
</clipPath>
</defs>
</svg>
