<svg width="100" height="100" viewBox="0 0 100 100" fill="none" xmlns="http://www.w3.org/2000/svg">
<g clip-path="url(#clip0)">
<path d="M49.999 19.9111C51.0775 19.9111 51.9521 19.0365 51.9521 17.958V8.00879C51.9521 6.93027 51.0777 6.05566 49.999 6.05566C48.9203 6.05566 48.0459 6.93008 48.0459 8.00879V17.958C48.0461 19.0365 48.9205 19.9111 49.999 19.9111Z" fill="#6F3A80"/>
<path d="M35.3144 23.1198C35.6857 23.7091 36.3199 24.0317 36.9686 24.0317C37.3244 24.0317 37.6848 23.9345 38.008 23.7307C38.9205 23.1557 39.1939 21.9497 38.6189 21.037L33.415 12.7802C32.8398 11.8677 31.6338 11.594 30.7215 12.1692C29.809 12.7442 29.5355 13.9503 30.1105 14.863L35.3144 23.1198Z" fill="#6F3A80"/>
<path d="M61.9967 23.7312C62.32 23.9345 62.6799 24.0316 63.0354 24.0316C63.6842 24.0316 64.3188 23.7085 64.6901 23.1189L69.8885 14.862C70.4631 13.9491 70.1891 12.7435 69.2762 12.1685C68.3629 11.5941 67.1577 11.8683 66.5829 12.7808L61.3844 21.0376C60.8098 21.9507 61.084 23.1564 61.9967 23.7312Z" fill="#6F3A80"/>
<path d="M99.3704 52.0374L95.9769 46.0422C95.4452 45.1032 94.2534 44.7731 93.3153 45.3047C92.3765 45.8362 92.0464 47.0278 92.5778 47.9663L95.9698 53.9588C96.1397 54.26 96.0956 54.5504 96.0542 54.6967C96.0144 54.8375 95.9046 55.0975 95.6175 55.2561L90.3874 58.1532C89.9228 58.4098 89.3163 58.2477 89.063 57.8008L87.7343 55.4504C87.7288 55.4399 87.7226 55.4301 87.7169 55.4198L73.9806 31.1241C73.8108 30.825 73.8538 30.5383 73.8944 30.394C73.9337 30.2543 74.0427 29.9963 74.3298 29.8375L79.5661 26.9399C80.0366 26.6793 80.6282 26.8375 80.8854 27.2934L83.9468 32.7022C84.4782 33.6411 85.6702 33.9709 86.6085 33.4399C87.5474 32.9086 87.8774 31.7168 87.3462 30.7782L84.2862 25.3717C82.9812 23.0581 80.0159 22.2282 77.6757 23.5217L72.4396 26.4194C71.3065 27.0456 70.488 28.0805 70.1349 29.3342C69.8017 30.5163 69.9208 31.7502 70.4663 32.8333L67.5819 33.6692C66.3532 34.0247 65.6075 34.2174 65.1936 34.2174C65.1919 34.2174 65.1903 34.2174 65.1888 34.2174C64.9038 34.2165 64.5931 34.1077 63.7061 33.7717C63.3038 33.6194 62.8028 33.4295 62.187 33.2147L57.0767 31.4282C54.2503 30.4411 52.9755 30.4942 51.1286 30.6627L42.4145 31.4426C38.4421 31.7946 35.9095 32.6907 34.5114 34.2448L29.5454 32.8059C30.0798 31.7276 30.1944 30.5055 29.8643 29.3342C29.5112 28.0813 28.6933 27.0465 27.5614 26.4204L22.3282 23.5213C19.986 22.2266 17.019 23.0569 15.7138 25.37L0.634858 52.0346C-0.0106494 53.1711 -0.170415 54.493 0.185444 55.7569C0.53896 57.012 1.35732 58.0479 2.48818 58.6733L7.72138 61.5719C8.46962 61.9856 9.28251 62.1821 10.0847 62.1821C11.7888 62.1821 13.4454 61.2956 14.3358 59.7235L14.8888 58.7454C16.3977 59.4096 17.6647 60.3747 18.5282 61.5172C17.6849 62.5028 17.1536 63.719 17.0046 65.0418C16.8077 66.7913 17.3018 68.5077 18.396 69.8758C19.4808 71.2323 21.0319 72.0881 22.7665 72.2897C22.5829 74.0243 23.079 75.7239 24.1647 77.0768C25.287 78.4799 26.8731 79.2985 28.5323 79.4916C28.3495 81.2237 28.8438 82.9217 29.9263 84.2754C31.0104 85.6348 32.562 86.4924 34.2983 86.694C34.1145 88.4299 34.6106 90.1305 35.6964 91.4836C36.9905 93.1016 38.9011 93.944 40.8298 93.9438C42.2696 93.9438 43.7196 93.4743 44.9302 92.5075L49.0196 89.2352C49.3444 88.976 49.6395 88.6895 49.905 88.3809L52.2409 90.2469C53.4489 91.211 54.8956 91.6793 56.3335 91.6792C58.2632 91.679 60.1768 90.8356 61.4727 89.2161C62.1558 88.3622 62.5882 87.3875 62.7835 86.3815C63.4665 86.6178 64.1876 86.7399 64.9228 86.7397C65.1692 86.7397 65.4173 86.726 65.6661 86.6985C67.4161 86.5042 68.981 85.6436 70.0683 84.2799C71.156 82.9249 71.652 81.2254 71.4687 79.4911C73.1267 79.2975 74.7136 78.4791 75.8392 77.0766C76.9603 75.6749 77.4102 73.9491 77.2341 72.2893C78.9677 72.0874 80.5181 71.2317 81.6003 69.8784C82.6952 68.5139 83.1915 66.8 82.9976 65.052C82.8503 63.725 82.3186 62.5047 81.4737 61.5165C82.3347 60.3743 83.5991 59.4081 85.1091 58.7442L85.6632 59.7243C86.553 61.2958 88.2089 62.1819 89.9134 62.1819C90.7159 62.1817 91.5296 61.9852 92.2786 61.5711L97.5089 58.6739C98.6394 58.0489 99.4573 57.0145 99.8122 55.7616C100.17 54.4989 100.014 53.177 99.3704 52.0374ZM10.9362 57.7999C10.6823 58.2483 10.0755 58.41 9.61279 58.154L4.37978 55.2555C4.09404 55.0973 3.98505 54.8383 3.94521 54.6979C3.90439 54.5524 3.86084 54.2635 4.0331 53.9608L19.1143 27.2909C19.287 26.9848 19.6124 26.8133 19.9503 26.8133C20.1147 26.8133 20.2819 26.8538 20.4362 26.9391L25.6679 29.8372C25.6685 29.8375 25.669 29.8379 25.6696 29.8381C25.9559 29.9965 26.0647 30.2545 26.1042 30.3942C26.1448 30.5385 26.1878 30.8252 26.0161 31.1276L10.9362 57.7999ZM25.189 67.8506C24.6382 68.2918 23.9427 68.4913 23.2319 68.4122C22.5208 68.3333 21.887 67.9868 21.4468 67.4364C21.0056 66.8846 20.8067 66.1893 20.8866 65.4788C20.9661 64.7711 21.3128 64.1405 21.8663 63.7L29.1784 57.8551C30.3261 56.9389 32.006 57.1274 32.9231 58.2729C33.3642 58.8243 33.5632 59.5184 33.4835 60.2268C33.4042 60.9329 33.0573 61.5629 32.5069 62.0008C32.4948 62.0104 32.4845 62.0211 32.4727 62.0311L25.1907 67.8493C25.1901 67.8497 25.1895 67.8502 25.189 67.8506ZM27.2132 74.6346C26.7724 74.0852 26.5731 73.3928 26.6518 72.685C26.7306 71.9766 27.0776 71.343 27.6288 70.901L27.6294 70.9006C27.6298 70.9004 27.6302 70.9 27.6306 70.8999C27.6308 70.8999 27.6308 70.8997 27.631 70.8995L38.1634 62.4846C39.3108 61.5682 40.9911 61.7553 41.9081 62.9024C42.3485 63.453 42.5476 64.1463 42.4688 64.8545C42.3899 65.5635 42.0419 66.1971 41.4893 66.6385L30.9597 75.0502C29.8108 75.967 28.1311 75.7821 27.2132 74.6346ZM34.7636 82.8163C34.0526 82.7374 33.4194 82.3905 32.9786 81.8377C32.5382 81.2872 32.3392 80.5938 32.4179 79.8856C32.4968 79.1772 32.8442 78.5442 33.396 78.1028C33.3964 78.1024 33.397 78.102 33.3974 78.1016L40.686 72.279C40.6946 72.2723 40.704 72.2667 40.7126 72.2598C41.8571 71.3436 43.5368 71.5301 44.4548 72.6743C44.896 73.2258 45.095 73.9211 45.0151 74.6317C44.9354 75.3393 44.5888 75.97 44.0354 76.4104L36.7235 82.2551C36.171 82.6963 35.4747 82.8948 34.7636 82.8163ZM47.5601 84.4018C47.481 85.1102 47.1339 85.7424 46.5811 86.1838L42.4915 89.4567C41.3425 90.3737 39.6628 90.1891 38.7452 89.0415C38.3044 88.4924 38.105 87.7995 38.1837 87.0903C38.2624 86.3811 38.6091 85.7485 39.1593 85.309C39.1599 85.3086 39.1606 85.3081 39.1612 85.3077L43.2499 82.0393C43.252 82.0375 43.2544 82.0362 43.2565 82.0346C44.4044 81.1186 46.0843 81.3063 47.0015 82.4524C47.4407 83.002 47.6394 83.694 47.5601 84.4018ZM78.5518 67.4362C78.1116 67.9866 77.4776 68.3333 76.7667 68.4122C76.0564 68.492 75.3604 68.292 74.8097 67.8506C74.8095 67.8504 74.8091 67.8502 74.8087 67.85C74.8085 67.8499 74.8081 67.8497 74.8079 67.8495L69.5817 63.6739C68.7388 63.0004 67.5099 63.1379 66.8368 63.9805C66.1636 64.8231 66.3009 66.0522 67.1435 66.7254L72.3679 70.8997C73.514 71.8174 73.7028 73.494 72.7907 74.6344C71.8704 75.7813 70.1905 75.9678 69.0436 75.0493L63.3747 70.5254C62.5317 69.8528 61.3028 69.9909 60.63 70.8338C59.9573 71.6768 60.0952 72.9057 60.9384 73.5786L66.6046 78.1002C67.1567 78.5424 67.5042 79.1764 67.5831 79.8856C67.6618 80.5934 67.4626 81.286 67.0181 81.8397C66.5788 82.3905 65.9456 82.7372 65.2349 82.8163C64.5233 82.8946 63.827 82.6959 63.2767 82.2567L60.456 80.0008C60.4511 79.9969 60.4468 79.9928 60.4419 79.9889L58.0587 78.0836L57.6132 77.7274C56.7704 77.0536 55.5415 77.1905 54.8681 78.0327C54.7839 78.1381 54.7122 78.2495 54.6532 78.3651C54.3704 78.9178 54.3751 79.5661 54.6405 80.1096C54.7634 80.3614 54.9403 80.5913 55.1735 80.7778L58.0097 83.046C59.1481 83.9653 59.3343 85.6362 58.4227 86.7758C57.5054 87.9225 55.8253 88.1098 54.6782 87.1948L51.4604 84.6241C51.5944 82.9524 51.0991 81.3221 50.0515 80.0122C49.4003 79.1983 48.5927 78.5819 47.7058 78.1684C48.3558 77.2666 48.7685 76.2073 48.8966 75.0682C49.0935 73.319 48.5993 71.6026 47.5032 70.2321C46.8519 69.4204 46.0452 68.8053 45.1601 68.3928C45.8112 67.4883 46.2239 66.4268 46.3509 65.2862C46.5452 63.5409 46.0507 61.8278 44.9585 60.462C43.0792 58.1124 39.9011 57.3981 37.256 58.5208C37.0442 57.5485 36.6116 56.6313 35.9729 55.8327C33.7116 53.0069 29.5706 52.5446 26.7403 54.8028L21.5106 58.9831C20.328 57.4739 18.7204 56.2223 16.8196 55.3297L27.5772 36.3022L33.305 37.9618C33.3311 38.2682 33.3808 38.5905 33.4638 38.9319C34.8503 44.6327 40.0991 47.2889 47.1622 45.8657C53.1134 44.6682 55.5634 46.452 60.4429 50.0053C60.9491 50.3739 61.4751 50.7569 62.0257 51.1512C65.5349 53.6688 69.2849 56.628 71.7991 58.6336L78.139 63.7004C78.6897 64.1399 79.0364 64.7727 79.1151 65.4825C79.1938 66.1917 78.9946 66.8846 78.5518 67.4362ZM78.4911 58.9819L74.2366 55.5817C71.6876 53.5483 67.8847 50.5477 64.3017 47.977C63.7587 47.5881 63.2409 47.211 62.7425 46.8481C57.6827 43.1635 54.0259 40.5014 46.3915 42.0368C44.0548 42.5077 38.4876 43.0582 37.2597 38.0098C37.0866 37.2971 37.2624 37.0522 37.3372 36.9477C37.5983 36.5836 38.6491 35.6975 42.7603 35.3334L51.4835 34.5528C52.905 34.4231 53.6181 34.3579 55.7876 35.1157L60.8985 36.9024C61.4667 37.1008 61.921 37.2727 62.322 37.4247C64.7829 38.3569 65.4351 38.3567 68.6681 37.4209L72.436 36.3291L83.1792 55.3309C81.2778 56.2229 79.6718 57.4735 78.4911 58.9819Z" fill="#6F3A80"/>
<path d="M89.9551 41.3271C91.0336 41.3271 91.9082 40.4498 91.9082 39.3711C91.9082 38.2924 91.0336 37.418 89.9551 37.418C88.8766 37.418 88.002 38.2926 88.002 39.3711V39.3766C88.002 40.4553 88.8766 41.3271 89.9551 41.3271Z" fill="#6F3A80"/>
</g>
<defs>
<clipPath id="clip0">
<rect width="100" height="100" fill="white"/>
</clipPath>
</defs>
</svg>
