<svg width="100" height="100" viewBox="0 0 100 100" fill="none" xmlns="http://www.w3.org/2000/svg">
<path d="M96.0391 84.4547L87.0422 75.4578C86.7492 75.1649 86.3518 75.0003 85.9375 75.0003C85.5232 75.0003 85.1258 75.1649 84.8328 75.4578L84.375 75.9156L77.6188 69.1594C79.4244 66.1944 80.5898 62.8844 81.04 59.4421C81.4902 55.9999 81.2152 52.5016 80.2328 49.1719C79.2504 45.8423 77.5823 42.755 75.3356 40.1084C73.089 37.4619 70.3135 35.3146 67.1875 33.8047V3.125C67.1875 2.7106 67.0229 2.31317 66.7299 2.02015C66.4368 1.72712 66.0394 1.5625 65.625 1.5625H3.125C2.7106 1.5625 2.31317 1.72712 2.02015 2.02015C1.72712 2.31317 1.5625 2.7106 1.5625 3.125V96.875C1.5625 97.2894 1.72712 97.6868 2.02015 97.9799C2.31317 98.2729 2.7106 98.4375 3.125 98.4375H65.625C66.0394 98.4375 66.4368 98.2729 66.7299 97.9799C67.0229 97.6868 67.1875 97.2894 67.1875 96.875V78.6953C67.8625 78.3661 68.5198 78.0073 69.1594 77.6188L75.9156 84.375L75.4578 84.8328C75.1649 85.1258 75.0003 85.5232 75.0003 85.9375C75.0003 86.3518 75.1649 86.7492 75.4578 87.0422L84.4547 96.0391C85.9909 97.5752 88.0744 98.4383 90.2469 98.4383C92.4194 98.4383 94.5029 97.5752 96.0391 96.0391C97.5752 94.5029 98.4383 92.4194 98.4383 90.2469C98.4383 88.0744 97.5752 85.9909 96.0391 84.4547ZM78.125 56.25C78.1319 60.0921 77.1249 63.8679 75.2058 67.1963C73.2866 70.5248 70.5233 73.2879 67.1947 75.2067C63.8661 77.1256 60.0901 78.1322 56.2481 78.125C52.406 78.1178 48.6339 77.097 45.3125 75.1656V75H45.0406C41.7589 73.0372 39.0494 70.248 37.1825 66.9108C35.3156 63.5735 34.3567 59.805 34.4015 55.9813C34.4463 52.1577 35.4932 48.4126 37.4377 45.12C39.3822 41.8274 42.1563 39.1024 45.4831 37.217C48.8099 35.3316 52.573 34.3517 56.3968 34.3752C60.2207 34.3987 63.9715 35.4248 67.2749 37.3509C70.5783 39.2771 73.3187 42.0359 75.2225 45.3522C77.1264 48.6685 78.1272 52.4261 78.125 56.25ZM20.3125 68.75H14.0625V43.75H20.3125V68.75ZM36.7656 71.875C37.6753 73.0013 38.6806 74.0468 39.7703 75H10.9375V71.875H36.7656ZM35.9375 41.7313C33.1288 45.6256 31.5105 50.2512 31.2789 55.0472C31.0473 59.8431 32.2124 64.6032 34.6328 68.75H29.6875V31.25H35.9375V41.7313ZM53.125 31.4672C50.9797 31.733 48.8785 32.2788 46.875 33.0906V21.875H53.125V31.4672ZM64.0625 95.3125H4.6875V4.6875H64.0625V32.5172C61.5427 31.6804 58.9051 31.2526 56.25 31.25V20.3125C56.25 19.8981 56.0854 19.5007 55.7924 19.2076C55.4993 18.9146 55.1019 18.75 54.6875 18.75H45.3125C44.8981 18.75 44.5007 18.9146 44.2076 19.2076C43.9146 19.5007 43.75 19.8981 43.75 20.3125V34.6328C42.056 35.6157 40.4827 36.7935 39.0625 38.1422V29.6875C39.0625 29.2731 38.8979 28.8757 38.6049 28.5826C38.3118 28.2896 37.9144 28.125 37.5 28.125H28.125C27.7106 28.125 27.3132 28.2896 27.0201 28.5826C26.7271 28.8757 26.5625 29.2731 26.5625 29.6875V68.75H23.4375V42.1875C23.4375 41.7731 23.2729 41.3757 22.9799 41.0826C22.6868 40.7896 22.2894 40.625 21.875 40.625H12.5C12.0856 40.625 11.6882 40.7896 11.3951 41.0826C11.1021 41.3757 10.9375 41.7731 10.9375 42.1875V68.75H9.375C8.9606 68.75 8.56317 68.9146 8.27015 69.2076C7.97712 69.5007 7.8125 69.8981 7.8125 70.3125V76.5625C7.8125 76.9769 7.97712 77.3743 8.27015 77.6674C8.56317 77.9604 8.9606 78.125 9.375 78.125H44.1734C47.1792 79.7951 50.4992 80.8226 53.9229 81.1424C57.3466 81.4622 60.7994 81.0673 64.0625 79.9828V95.3125ZM71.7719 75.8125C73.2668 74.6223 74.6223 73.2668 75.8125 71.7719L82.1656 78.125L78.125 82.1656L71.7719 75.8125ZM90.2469 95.3125C89.5813 95.3144 88.922 95.1844 88.307 94.9299C87.692 94.6753 87.1336 94.3014 86.6641 93.8297L78.7719 85.9375L85.9375 78.7719L93.8297 86.6641C94.5377 87.3728 95.0198 88.2755 95.215 89.2581C95.4101 90.2407 95.3096 91.2591 94.9262 92.1847C94.5428 93.1102 93.8936 93.9013 93.0608 94.458C92.2279 95.0148 91.2487 95.3121 90.2469 95.3125Z" fill="white"/>
<path d="M37.5 56.25C37.5 59.9584 38.5997 63.5835 40.6599 66.6669C42.7202 69.7504 45.6486 72.1536 49.0747 73.5727C52.5008 74.9919 56.2708 75.3632 59.9079 74.6397C63.5451 73.9162 66.886 72.1305 69.5082 69.5082C72.1305 66.886 73.9162 63.5451 74.6397 59.9079C75.3632 56.2708 74.9919 52.5008 73.5727 49.0747C72.1536 45.6486 69.7504 42.7202 66.6669 40.6599C63.5835 38.5997 59.9584 37.5 56.25 37.5C51.2788 37.5054 46.5128 39.4825 42.9977 42.9977C39.4825 46.5128 37.5054 51.2788 37.5 56.25ZM46.875 43.7797C48.7201 42.3777 50.8557 41.4066 53.125 40.9375V71.5625C50.8559 71.0943 48.7204 70.1243 46.875 68.7234V43.7797ZM40.625 56.25C40.6261 52.8819 41.723 49.6055 43.75 46.9156V65.5844C41.723 62.8945 40.6261 59.6181 40.625 56.25ZM56.25 40.625C58.9954 40.626 61.6913 41.3555 64.0625 42.7391V69.7609C61.6913 71.1445 58.9954 71.874 56.25 71.875V40.625ZM71.875 56.25C71.8755 58.3254 71.461 60.3799 70.656 62.2929C69.8511 64.2058 68.6718 65.9385 67.1875 67.3891V45.1109C68.6718 46.5615 69.8511 48.2942 70.656 50.2071C71.461 52.12 71.8755 54.1746 71.875 56.25Z" fill="white"/>
<path d="M10.9375 10.9375H23.4375V14.0625H10.9375V10.9375Z" fill="white"/>
<path d="M7.8125 17.1875H23.4375V20.3125H7.8125V17.1875Z" fill="white"/>
<path d="M7.8125 23.4375H23.4375V26.5625H7.8125V23.4375Z" fill="white"/>
<path d="M32.8125 89.0625H54.6875V92.1875H32.8125V89.0625Z" fill="white"/>
<path d="M57.8125 89.0625H60.9375V92.1875H57.8125V89.0625Z" fill="white"/>
<path d="M32.8125 82.8125H54.6875V85.9375H32.8125V82.8125Z" fill="white"/>
<path d="M57.8125 82.8125H60.9375V85.9375H57.8125V82.8125Z" fill="white"/>
</svg>
