<svg width="81" height="82" viewBox="0 0 81 82" fill="none" xmlns="http://www.w3.org/2000/svg">
<path d="M37.8668 1.80158C39.4139 0.90825 41.3201 0.908249 42.8672 1.80158L57.8459 10.4505L72.8254 19.098C74.3726 19.9912 75.3257 21.642 75.3257 23.4285L75.3248 40.7249L75.3257 58.0213C75.3257 59.8078 74.3726 61.4586 72.8254 62.3518L57.8459 70.9992L42.8672 79.6482C41.3201 80.5415 39.4139 80.5415 37.8668 79.6482L22.8881 70.9992L7.90852 62.3518C6.36131 61.4586 5.40821 59.8078 5.4083 58.0213L5.40918 40.7249L5.4083 23.4285C5.40821 21.642 6.36131 19.9912 7.90852 19.098L22.8881 10.4505L37.8668 1.80158Z" fill="#6F3A80"/>
<path d="M52.4038 28.2605C52.4038 27.7967 52.0277 27.4207 51.564 27.4207H51.5592C51.0954 27.4207 50.7217 27.7967 50.7217 28.2605C50.7217 28.7243 51.1001 29.1003 51.5639 29.1003C52.0276 29.1003 52.4038 28.7243 52.4038 28.2605Z" fill="white"/>
<path d="M56.936 28.2605C56.936 27.7967 56.5599 27.4207 56.0962 27.4207H56.0914C55.6276 27.4207 55.2539 27.7967 55.2539 28.2605C55.2539 28.7243 55.6323 29.1003 56.0961 29.1003C56.5599 29.1003 56.936 28.7243 56.936 28.2605Z" fill="white"/>
<path d="M47.8716 28.2605C47.8716 27.7967 47.4955 27.4207 47.0317 27.4207H47.0269C46.5632 27.4207 46.1895 27.7967 46.1895 28.2605C46.1895 28.7243 46.5679 29.1003 47.0316 29.1003C47.4954 29.1003 47.8716 28.7243 47.8716 28.2605Z" fill="white"/>
<path d="M24.0605 28.2605C24.0605 28.7243 24.4365 29.1003 24.9004 29.1003H37.5201C37.9839 29.1003 38.3599 28.7243 38.3599 28.2605C38.3599 27.7967 37.9839 27.4207 37.5201 27.4207H24.9004C24.4365 27.4207 24.0605 27.7967 24.0605 28.2605Z" fill="white"/>
<path d="M59.3057 23H33.0166C32.5527 23 32.1767 23.3761 32.1767 23.8398C32.1767 24.3036 32.5527 24.6797 33.0166 24.6797H59.3057C59.8651 24.6797 60.3203 25.1349 60.3203 25.6943V31.844H20.6797V25.6943C20.6797 25.1349 21.1349 24.6797 21.6944 24.6797H25.4724C25.9363 24.6797 26.3123 24.3036 26.3123 23.8398C26.3123 23.3761 25.9363 23 25.4724 23H21.6944C20.2087 23 19 24.2087 19 25.6943V56.7923C19 58.2779 20.2087 59.4866 21.6944 59.4866H32.1923C34.1703 61.3578 36.7774 62.5698 39.6589 62.7684V65.1602C39.6589 65.6239 40.0349 66 40.4987 66C40.9626 66 41.3386 65.6239 41.3386 65.1602V62.7684C44.2208 62.5698 46.8284 61.3579 48.8068 59.4866H59.3055C60.7911 59.4866 61.9998 58.2779 61.9998 56.7923V25.6943C62 24.2087 60.7913 23 59.3057 23V23ZM30.1147 51.5378H32.8583C33.2479 55.1078 36.0901 57.9509 39.659 58.3407V61.0845C34.5827 60.6775 30.5215 56.6152 30.1147 51.5378ZM48.1416 49.8581C47.7518 46.2893 44.9087 43.447 41.3387 43.0575V40.3138C46.416 40.7206 50.4783 44.7819 50.8853 49.8581H48.1416ZM40.4988 56.7071C37.1866 56.7071 34.492 54.0114 34.492 50.698C34.492 47.3858 37.1866 44.6911 40.4988 44.6911C43.8123 44.6911 46.508 47.3858 46.508 50.698C46.508 54.0114 43.8123 56.7071 40.4988 56.7071ZM39.659 43.0575C36.0902 43.4471 33.248 46.2894 32.8584 49.8581H30.1147C30.5216 44.7819 34.5828 40.7207 39.6591 40.3138V43.0575H39.659ZM41.3387 58.3407C44.9088 57.951 47.752 55.1078 48.1416 51.5378H50.8853C50.4784 56.6153 46.4161 60.6776 41.3387 61.0845V58.3407ZM59.3057 57.8069H50.284C51.5843 56.0221 52.4086 53.8699 52.5693 51.5378H54.9611C55.4249 51.5378 55.8009 51.1617 55.8009 50.698C55.8009 50.2342 55.4249 49.8581 54.9611 49.8581H52.5693C52.1555 43.8553 47.3428 39.0435 41.3388 38.6298V36.2381C41.3388 35.7744 40.9627 35.3983 40.4989 35.3983C40.0351 35.3983 39.6591 35.7744 39.6591 36.2381V38.6298C33.6563 39.0435 28.8445 43.8553 28.4308 49.8581H26.039C25.5751 49.8581 25.1991 50.2342 25.1991 50.698C25.1991 51.1617 25.5751 51.5378 26.039 51.5378H28.4307C28.5914 53.87 29.4156 56.0222 30.7156 57.8069H21.6944C21.1349 57.8069 20.6797 57.3517 20.6797 56.7923V33.5236H60.3203V56.7923C60.3203 57.3517 59.8651 57.8069 59.3057 57.8069Z" fill="white"/>
<path d="M43.3927 48.2186C43.0374 47.9208 42.5076 47.9673 42.2096 48.323L39.6761 51.3467L38.6873 50.5092C38.3335 50.2094 37.8035 50.2534 37.5036 50.6073C37.2039 50.9613 37.2478 51.4911 37.6017 51.7909L39.2348 53.1741C39.3871 53.303 39.5796 53.373 39.7775 53.373C40.0188 53.3729 40.2334 53.2728 40.4213 53.0725L43.4971 49.4018C43.795 49.0462 43.7483 48.5165 43.3927 48.2186Z" fill="white"/>
<path d="M29.2451 24.6797H29.2475C29.7113 24.6797 30.0861 24.3036 30.0861 23.8398C30.0861 23.3761 29.709 23 29.2451 23C28.7813 23 28.4053 23.3761 28.4053 23.8398C28.4053 24.3036 28.7813 24.6797 29.2451 24.6797Z" fill="white"/>
</svg>
