<svg width="81" height="82" viewBox="0 0 81 82" fill="none" xmlns="http://www.w3.org/2000/svg">
<path d="M37.8668 1.80158C39.4139 0.90825 41.3201 0.908249 42.8672 1.80158L57.8459 10.4505L72.8254 19.098C74.3726 19.9912 75.3257 21.642 75.3257 23.4285L75.3248 40.7249L75.3257 58.0213C75.3257 59.8078 74.3726 61.4586 72.8254 62.3518L57.8459 70.9992L42.8672 79.6482C41.3201 80.5415 39.4139 80.5415 37.8668 79.6482L22.8881 70.9992L7.90852 62.3518C6.36131 61.4586 5.40821 59.8078 5.4083 58.0213L5.40918 40.7249L5.4083 23.4285C5.40821 21.642 6.36131 19.9912 7.90852 19.098L22.8881 10.4505L37.8668 1.80158Z" fill="#6F3A80"/>
<g clip-path="url(#clip0)">
<path d="M58.7889 39.1444L60.8519 36.6975C60.9644 36.5641 61.0165 36.39 60.9958 36.2169L60.0375 28.1859C60.0083 27.9415 59.8395 27.7365 59.6053 27.661C59.3711 27.5856 59.1144 27.6532 58.9479 27.8345L54.6084 32.5614L46.678 33.3691C46.3319 33.4043 46.0799 33.7135 46.1151 34.0596C46.1504 34.4057 46.4601 34.6579 46.8055 34.6224L54.9743 33.7905C55.1278 33.7748 55.2702 33.7035 55.3745 33.5898L58.9488 29.6962L59.7123 36.0946L57.8822 38.2653L54.1788 40.7634C53.9927 40.8891 53.8874 41.1042 53.9026 41.3283L54.1904 45.5698C54.2113 45.8776 54.452 46.1249 54.7591 46.1541L57.3965 46.4053L58.7482 49.8465L58.1306 51.4378L56.3304 49.0356C56.1904 48.8488 55.9588 48.7547 55.728 48.7911L52.9936 49.2229C52.7682 49.2585 52.5797 49.4132 52.5008 49.6273L51.6147 52.0324L46.5009 53.069C46.1599 53.1381 45.9397 53.4705 46.0088 53.8115C46.0693 54.1102 46.332 54.3163 46.6255 54.3163C46.667 54.3163 46.709 54.3122 46.7513 54.3036L52.2095 53.1972C52.4236 53.1537 52.5999 53.0026 52.6754 52.7976L53.5552 50.4095L55.5498 50.0945L57.8031 53.1014C57.9404 53.2845 58.1659 53.379 58.3929 53.3477C58.6196 53.3166 58.8116 53.165 58.8944 52.9517L60.0117 50.073C60.0689 49.9255 60.0686 49.762 60.0107 49.6148L58.4276 45.5846C58.3409 45.3637 58.1373 45.2103 57.9011 45.1878L55.4112 44.9507L55.1841 41.6049L58.6594 39.2606C58.708 39.228 58.7515 39.1889 58.7889 39.1444Z" fill="white"/>
<path d="M43.7375 53.6294L41.6497 54.0526L36.6766 48.835C36.5199 48.6707 36.287 48.6032 36.0667 48.6588L32.4583 49.5681L30.8405 47.577C30.734 47.446 30.5795 47.3632 30.4113 47.3472L24.3665 46.7714C24.1902 46.7546 24.0143 46.813 23.8831 46.9324C23.7518 47.0518 23.6769 47.221 23.6769 47.3985V48.7249L21.2856 51.1699L20.5018 47.7321L21.5169 45.0656C21.5781 44.9046 21.5709 44.7257 21.4967 44.5703C21.4227 44.4148 21.2881 44.2966 21.1245 44.243L19.3806 43.6711L21.4993 35.0138L25.4988 32.567L28.8924 34.1455C29.2078 34.2923 29.5824 34.1555 29.7291 33.84C29.8758 33.5246 29.7391 33.15 29.4237 33.0033L25.7239 31.2824C25.5327 31.1934 25.3094 31.2061 25.1296 31.3161L20.6205 34.0747C20.4788 34.1614 20.377 34.3008 20.3374 34.4622L18.0182 43.9382C17.9399 44.2579 18.1211 44.5839 18.4337 44.6865L20.1046 45.2344L19.2565 47.4622C19.2123 47.5784 19.2034 47.7051 19.2311 47.8263L20.314 52.5761C20.3652 52.8009 20.5352 52.9797 20.757 53.0423C20.9788 53.1048 21.2171 53.0413 21.3784 52.8765L24.7571 49.4222C24.8722 49.3045 24.9366 49.1464 24.9366 48.9818V48.0912L30.0292 48.5763L31.7338 50.6743C31.8883 50.8644 32.1391 50.9477 32.3766 50.8879L36.0181 49.9702L40.9778 55.1737C41.0979 55.2997 41.2633 55.369 41.4338 55.369C41.4754 55.369 41.5173 55.3649 41.5589 55.3565L43.9877 54.8642C44.3286 54.7951 44.5489 54.4627 44.4798 54.1217C44.4109 53.7807 44.0788 53.5601 43.7375 53.6294Z" fill="white"/>
<path d="M44.3118 31.6274C41.22 31.6274 39.7172 31.2668 38.1262 30.8849C36.6405 30.5283 35.1076 30.1605 32.2764 30.1129V29.3938C32.2764 29.0459 31.9943 28.7639 31.6465 28.7639C31.2986 28.7639 31.0166 29.0459 31.0166 29.3938V43.9705C31.0166 44.3183 31.2986 44.6003 31.6465 44.6003C31.9943 44.6003 32.2764 44.3183 32.2764 43.9705V40.8269C34.9503 40.8725 36.3531 41.2092 37.8322 41.5642C39.4244 41.9464 41.071 42.3415 44.3118 42.3415C44.6597 42.3415 44.9417 42.0595 44.9417 41.7116V32.2573C44.9417 31.9094 44.6597 31.6274 44.3118 31.6274ZM37.8322 32.1099C39.3179 32.4665 40.8508 32.8343 43.6819 32.8819V34.8005C41.0081 34.7549 39.6053 34.4182 38.1262 34.0632C36.6405 33.7066 35.1076 33.3387 32.2764 33.2911V31.3726C34.9503 31.4182 36.3531 31.7549 37.8322 32.1099ZM38.1262 40.3392C36.6405 39.9826 35.1076 39.6148 32.2764 39.5672V37.6567C34.9503 37.7023 36.3531 38.039 37.8321 38.3939C38.0399 38.4438 38.2476 38.4936 38.4589 38.5426C38.5067 38.5537 38.5546 38.559 38.6017 38.559C38.8882 38.559 39.1473 38.3623 39.2148 38.0713C39.2934 37.7324 39.0825 37.394 38.7436 37.3154C38.5355 37.2671 38.3308 37.218 38.1261 37.1688C36.6404 36.8123 35.1076 36.4445 32.2765 36.3968V34.5509C34.9504 34.5965 36.3532 34.9332 37.8323 35.2882C39.318 35.6448 40.8509 36.0126 43.682 36.0602V37.906C42.881 37.8922 42.153 37.8512 41.4713 37.7819C41.1245 37.7466 40.8161 37.9988 40.7809 38.3448C40.7457 38.6909 40.9977 38.9999 41.3437 39.0352C42.067 39.1088 42.8368 39.1519 43.682 39.1661V41.0764C41.0079 41.0308 39.6053 40.6941 38.1262 40.3392Z" fill="white"/>
</g>
<defs>
<clipPath id="clip0">
<rect width="43" height="43" fill="white" transform="translate(18 20)"/>
</clipPath>
</defs>
</svg>
