<svg width="81" height="82" viewBox="0 0 81 82" fill="none" xmlns="http://www.w3.org/2000/svg">
<path d="M37.8668 1.80158C39.4139 0.90825 41.3201 0.908249 42.8672 1.80158L57.8459 10.4505L72.8254 19.098C74.3726 19.9912 75.3257 21.642 75.3257 23.4285L75.3248 40.7249L75.3257 58.0213C75.3257 59.8078 74.3726 61.4586 72.8254 62.3518L57.8459 70.9992L42.8672 79.6482C41.3201 80.5415 39.4139 80.5415 37.8668 79.6482L22.8881 70.9992L7.90852 62.3518C6.36131 61.4586 5.40821 59.8078 5.4083 58.0213L5.40918 40.7249L5.4083 23.4285C5.40821 21.642 6.36131 19.9912 7.90852 19.098L22.8881 10.4505L37.8668 1.80158Z" fill="#6F3A80"/>
<path d="M38.7151 23.9828H58.0495C58.397 23.9828 58.6786 23.7012 58.6786 23.3537C58.6786 23.0063 58.397 22.7246 58.0495 22.7246H38.7151C38.3676 22.7246 38.0859 23.0062 38.0859 23.3537C38.0859 23.7012 38.3676 23.9828 38.7151 23.9828Z" fill="white"/>
<path d="M58.0495 25.8442H38.7151C38.3676 25.8442 38.0859 26.1258 38.0859 26.4734C38.0859 26.8208 38.3676 27.1024 38.7151 27.1024H58.0495C58.397 27.1024 58.6786 26.8208 58.6786 26.4734C58.6786 26.1259 58.397 25.8442 58.0495 25.8442Z" fill="white"/>
<path d="M38.7151 30.222H51.8349C52.1823 30.222 52.464 29.9404 52.464 29.593C52.464 29.2456 52.1824 28.9639 51.8349 28.9639H38.7151C38.3676 28.9639 38.0859 29.2455 38.0859 29.593C38.0859 29.9404 38.3676 30.222 38.7151 30.222Z" fill="white"/>
<path d="M58.0495 37.7515H38.7151C38.3676 37.7515 38.0859 38.0331 38.0859 38.3805C38.0859 38.728 38.3676 39.0096 38.7151 39.0096H58.0495C58.397 39.0096 58.6786 38.728 58.6786 38.3805C58.6786 38.0331 58.397 37.7515 58.0495 37.7515Z" fill="white"/>
<path d="M58.0495 40.8711H38.7151C38.3676 40.8711 38.0859 41.1527 38.0859 41.5002C38.0859 41.8477 38.3676 42.1293 38.7151 42.1293H58.0495C58.397 42.1293 58.6786 41.8477 58.6786 41.5002C58.6786 41.1527 58.397 40.8711 58.0495 40.8711Z" fill="white"/>
<path d="M38.7151 45.2483H51.8349C52.1823 45.2483 52.464 44.9667 52.464 44.6193C52.464 44.2718 52.1824 43.9902 51.8349 43.9902H38.7151C38.3676 43.9902 38.0859 44.2718 38.0859 44.6193C38.0859 44.9667 38.3676 45.2483 38.7151 45.2483Z" fill="white"/>
<path d="M35.6931 50.9874C35.3385 50.6755 34.8838 50.5208 34.4124 50.5506C33.9411 50.5808 33.5098 50.7927 33.1979 51.1473L32.8785 51.5104C31.7638 50.601 30.3429 50.0537 28.7955 50.0537C25.2262 50.0537 22.3223 52.9576 22.3223 56.5269C22.3223 60.0963 25.2261 63.0001 28.7955 63.0001C32.365 63.0001 35.2688 60.0963 35.2688 56.5269C35.2688 55.8241 35.1537 55.1484 34.9453 54.5146L35.853 53.4826C36.1649 53.1281 36.32 52.6733 36.2899 52.202C36.2596 51.7306 36.0477 51.2993 35.6931 50.9874ZM28.7955 61.7419C25.9199 61.7419 23.5805 59.4025 23.5805 56.5269C23.5805 53.6514 25.92 51.3119 28.7955 51.3119C30.0249 51.3119 31.1552 51.7406 32.0477 52.455L29.3831 55.4842L28.427 54.3688C28.1197 54.0103 27.6911 53.793 27.2203 53.7566C26.7501 53.7201 26.2927 53.8695 25.9341 54.1769C25.1939 54.8114 25.1079 55.9297 25.7424 56.6699L28.0235 59.3312C28.3567 59.7201 28.8415 59.9451 29.3536 59.9486C29.3583 59.9487 29.3628 59.9487 29.3659 59.9487C29.874 59.9487 30.3577 59.7299 30.6933 59.3484L33.9376 55.6601C33.9853 55.9421 34.0107 56.2315 34.0107 56.5269C34.0105 59.4025 31.6711 61.7419 28.7955 61.7419ZM34.9082 52.6516L29.7485 58.5174C29.6523 58.6268 29.5138 58.6898 29.3682 58.6905C29.3663 58.6905 29.3643 58.6904 29.3623 58.6904C29.2147 58.6895 29.0749 58.6247 28.9787 58.5125L26.6975 55.8512C26.5146 55.6378 26.5395 55.3153 26.7529 55.1323C26.8461 55.0524 26.9622 55.0096 27.0837 55.0096C27.0969 55.0096 27.1102 55.0101 27.1236 55.0112C27.2594 55.0216 27.3829 55.0843 27.4716 55.1877L28.8992 56.8532C29.0178 56.9915 29.1905 57.0717 29.3728 57.0729C29.5572 57.0755 29.7288 56.9962 29.8491 56.8592L34.1425 51.9782C34.2324 51.876 34.3568 51.8149 34.4927 51.8062C34.6283 51.7971 34.7598 51.8422 34.862 51.9321C34.9643 52.0221 35.0253 52.1464 35.0341 52.2823C35.0429 52.4182 34.9981 52.5493 34.9082 52.6516Z" fill="white"/>
<path d="M58.0495 52.7778H38.7151C38.3676 52.7778 38.0859 53.0594 38.0859 53.4069C38.0859 53.7543 38.3676 54.0359 38.7151 54.0359H58.0495C58.397 54.0359 58.6786 53.7543 58.6786 53.4069C58.6786 53.0594 58.397 52.7778 58.0495 52.7778Z" fill="white"/>
<path d="M58.0495 55.8975H38.7151C38.3676 55.8975 38.0859 56.1791 38.0859 56.5265C38.0859 56.8739 38.3676 57.1556 38.7151 57.1556H58.0495C58.397 57.1556 58.6786 56.874 58.6786 56.5265C58.6786 56.1791 58.397 55.8975 58.0495 55.8975Z" fill="white"/>
<path d="M51.8349 59.0171H38.7151C38.3676 59.0171 38.0859 59.2987 38.0859 59.6461C38.0859 59.9936 38.3676 60.2753 38.7151 60.2753H51.8349C52.1823 60.2753 52.464 59.9937 52.464 59.6461C52.464 59.2986 52.1823 59.0171 51.8349 59.0171Z" fill="white"/>
<path d="M35.6931 20.9337C35.3385 20.6218 34.8838 20.467 34.4124 20.4968C33.9411 20.527 33.5098 20.7389 33.1979 21.0935L32.8794 21.4557C31.7646 20.5464 30.3429 20 28.7955 20C27.1927 20 25.6545 20.5902 24.4645 21.6621C24.2063 21.8947 24.1855 22.2924 24.4181 22.5507C24.6506 22.8089 25.0484 22.8296 25.3066 22.5971C26.2651 21.7338 27.5042 21.2583 28.7955 21.2583C30.0249 21.2583 31.1552 21.687 32.0476 22.4014L29.3831 25.4306L28.4269 24.3151C28.1196 23.9566 27.6911 23.7392 27.2202 23.7029C26.75 23.6663 26.2926 23.8159 25.934 24.1232C25.1939 24.7577 25.1079 25.876 25.7423 26.6161L28.0234 29.2773C28.3566 29.6663 28.8414 29.8913 29.3535 29.8948C29.3582 29.8949 29.3628 29.8949 29.3658 29.8949C29.8739 29.8949 30.3576 29.6761 30.6932 29.2946L33.9375 25.6063C33.9851 25.8883 34.0105 26.1777 34.0105 26.4731C34.0105 29.3486 31.6711 31.6881 28.7955 31.6881C25.92 31.6881 23.5805 29.3486 23.5805 26.4731C23.5805 25.8563 23.6869 25.2529 23.8969 24.6797C24.0164 24.3534 23.8488 23.9921 23.5225 23.8726C23.1964 23.7532 22.8349 23.9207 22.7154 24.247C22.4545 24.9593 22.3223 25.7082 22.3223 26.4731C22.3223 30.0424 25.2261 32.9463 28.7955 32.9463C32.365 32.9463 35.2688 30.0424 35.2688 26.4731C35.2688 25.77 35.1552 25.0931 34.9469 24.4589L35.853 23.4288C36.1649 23.0742 36.32 22.6195 36.2899 22.1482C36.2596 21.6769 36.0477 21.2456 35.6931 20.9337ZM34.9082 22.5979L29.7485 28.4637C29.6523 28.573 29.5138 28.636 29.3682 28.6368C29.3663 28.6368 29.3643 28.6367 29.3623 28.6367C29.2147 28.6358 29.0749 28.5709 28.9787 28.4587L26.6975 25.7974C26.5146 25.584 26.5395 25.2615 26.7529 25.0785C26.8461 24.9987 26.9622 24.9558 27.0837 24.9558C27.0969 24.9558 27.1102 24.9563 27.1236 24.9574C27.2594 24.9678 27.3829 25.0306 27.4716 25.134L28.8992 26.7995C29.0178 26.9378 29.1905 27.018 29.3728 27.0192C29.5572 27.0178 29.7288 26.9424 29.8491 26.8055L34.1425 21.9245C34.2324 21.8223 34.3568 21.7612 34.4927 21.7525C34.6283 21.7438 34.7598 21.7885 34.862 21.8784C34.9643 21.9684 35.0253 22.0927 35.0341 22.2287C35.0429 22.3645 34.9981 22.4956 34.9082 22.5979Z" fill="white"/>
<path d="M35.6931 35.9605C35.3385 35.6487 34.8838 35.4935 34.4124 35.5237C33.9411 35.5539 33.5098 35.7658 33.1979 36.1204L32.8781 36.484C31.7635 35.5746 30.3429 35.0269 28.7955 35.0269C25.2262 35.0269 22.3223 37.9307 22.3223 41.5C22.3223 45.0694 25.2261 47.9732 28.7955 47.9732C32.3649 47.9732 35.2687 45.0694 35.2687 41.5C35.2687 40.7971 35.1546 40.1206 34.9461 39.4865L35.8529 38.4557C36.1648 38.1011 36.3199 37.6463 36.2898 37.175C36.2596 36.7038 36.0477 36.2724 35.6931 35.9605ZM34.9082 37.6247L32.2318 40.6673C32.0023 40.9281 32.0278 41.3257 32.2886 41.5551C32.5495 41.7847 32.947 41.7592 33.1765 41.4983L33.9373 40.6334C33.9849 40.9153 34.0105 41.2048 34.0105 41.5C34.0105 44.3756 31.6711 46.7151 28.7955 46.7151C25.92 46.7151 23.5804 44.3756 23.5804 41.5C23.5804 38.6245 25.9199 36.285 28.7954 36.285C30.0248 36.285 31.155 36.714 32.0474 37.4283L29.383 40.4574L28.4269 39.342C28.1196 38.9834 27.6911 38.766 27.2202 38.7297C26.75 38.6928 26.2926 38.8427 25.934 39.1501C25.1939 39.7846 25.1079 40.9028 25.7423 41.643L28.0234 44.3042C28.3566 44.6931 28.8414 44.9181 29.3535 44.9217C29.3582 44.9217 29.3628 44.9217 29.3658 44.9217C29.8739 44.9217 30.3576 44.703 30.6932 44.3215L31.2774 43.6574C31.5069 43.3966 31.4815 42.999 31.2206 42.7696C30.9597 42.5399 30.5621 42.5656 30.3327 42.8263L29.7485 43.4905C29.6523 43.5997 29.5141 43.6627 29.3681 43.6636C29.3662 43.6636 29.3643 43.6635 29.3623 43.6635C29.2147 43.6626 29.0749 43.5977 28.9787 43.4854L26.6975 40.8241C26.5146 40.6107 26.5395 40.2882 26.7529 40.1052C26.8563 40.0166 26.9884 39.9732 27.1237 39.9841C27.2595 39.9945 27.383 40.0573 27.4717 40.1607L28.8992 41.8262C29.0178 41.9645 29.1906 42.0447 29.3728 42.0459H29.3769C29.5577 42.0459 29.7298 41.9681 29.8492 41.8323L34.1426 36.9513C34.2325 36.8491 34.3569 36.7879 34.4928 36.7793C34.6284 36.7704 34.7598 36.8153 34.8621 36.9052C34.9643 36.9952 35.0254 37.1195 35.0341 37.2555C35.0429 37.3914 34.9981 37.5225 34.9082 37.6247Z" fill="white"/>
</svg>
