<svg width="100" height="100" viewBox="0 0 100 100" fill="none" xmlns="http://www.w3.org/2000/svg">
<g clip-path="url(#clip0)">
<path d="M97.5611 90.2416H88.9482V35.265C88.9482 33.9203 87.8541 32.8262 86.5094 32.8262H80.9447C80.1365 32.8262 79.4814 33.4812 79.4814 34.2895C79.4814 35.0977 80.1365 35.7527 80.9447 35.7527H86.0217V90.2416H72.1219V35.7527H74.0639C74.8721 35.7527 75.5272 35.0977 75.5272 34.2895C75.5272 33.4812 74.8721 32.8262 74.0639 32.8262H71.6342C70.2895 32.8262 69.1953 33.9203 69.1953 35.265V90.2418H59.8768V53.7912C59.8768 52.4465 58.7826 51.3523 57.4379 51.3523H42.5625C41.2178 51.3523 40.1236 52.4465 40.1236 53.7912V90.2416H30.8049V69.7957C30.8049 68.451 29.7107 67.3568 28.366 67.3568H13.4908C12.1461 67.3568 11.052 68.451 11.052 69.7957V76.3396C11.052 77.1479 11.707 77.8029 12.5152 77.8029C13.3234 77.8029 13.9785 77.1479 13.9785 76.3396V70.2836H27.8781V90.2418H13.9785V83.1445C13.9785 82.3363 13.3234 81.6812 12.5152 81.6812C11.707 81.6812 11.052 82.3363 11.052 83.1445V90.2418H2.43887C1.09414 90.2416 0 91.3357 0 92.6807V97.3469C0 98.6916 1.09414 99.7857 2.43887 99.7857H97.5611C98.9059 99.7857 100 98.6916 100 97.3469V92.6807C100 91.3357 98.9059 90.2416 97.5611 90.2416ZM43.0502 54.2791H56.95V90.2418H43.0502V54.2791ZM97.0732 96.8592H2.92676V93.1686H12.5154H29.3418H41.5871H58.4135H70.6586H87.485H97.0734V96.8592H97.0732Z" fill="white"/>
<path d="M12.1574 53.7992L11.3203 58.6799C11.0869 60.0408 11.6359 61.3902 12.7529 62.2018C13.3842 62.6604 14.1226 62.8936 14.866 62.8936C15.4383 62.8936 16.0135 62.7553 16.5451 62.476L20.9281 60.1717L25.3111 62.476C26.533 63.1184 27.9859 63.0133 29.1033 62.202C30.2203 61.3902 30.7693 60.0406 30.5359 58.6799L29.6988 53.7992L33.2447 50.3428C34.2334 49.3791 34.5826 47.9647 34.156 46.6516C33.7293 45.3383 32.6156 44.3992 31.2492 44.2006L26.3488 43.4885L24.1574 39.0481C23.5463 37.8098 22.309 37.0408 20.9281 37.0408C19.5474 37.0408 18.3101 37.81 17.6992 39.0481L15.5078 43.4885L10.6072 44.2006C9.2408 44.3992 8.12713 45.3381 7.70037 46.6516C7.27381 47.9649 7.62283 49.3791 8.6115 50.3426L12.1574 53.7992ZM10.4838 47.5559C10.5228 47.4359 10.6537 47.1514 11.0281 47.0969L16.1523 46.3522C16.9654 46.2344 17.6679 45.7238 18.0318 44.9869L20.3236 40.3434C20.491 40.0041 20.8021 39.9674 20.9281 39.9674C21.0541 39.9674 21.3652 40.0039 21.5328 40.3434L23.8246 44.9867C24.1883 45.7236 24.8908 46.2342 25.7037 46.3522L30.8283 47.0969C31.2027 47.1514 31.3336 47.4359 31.3726 47.5559C31.4117 47.6758 31.473 47.983 31.2019 48.2469L27.4941 51.8613C26.9054 52.4346 26.6371 53.2608 26.7761 54.0705L27.6515 59.1744C27.7154 59.5473 27.4851 59.76 27.3832 59.834C27.281 59.908 27.0076 60.0615 26.6732 59.8852L22.0896 57.4754C21.726 57.2842 21.3269 57.1887 20.9281 57.1887C20.5293 57.1887 20.1303 57.2844 19.7666 57.4754L15.183 59.8852C14.848 60.0613 14.575 59.908 14.473 59.834C14.3711 59.7598 14.1408 59.5473 14.2047 59.1744L15.0801 54.0707C15.2191 53.2608 14.9506 52.4348 14.3625 51.8615L10.6543 48.2471C10.3834 47.983 10.4447 47.6758 10.4838 47.5559Z" fill="white"/>
<path d="M41.229 35.9951L40.3919 40.876C40.1585 42.2367 40.7073 43.5861 41.8243 44.3976C42.4556 44.8562 43.194 45.0892 43.9376 45.0892C44.5099 45.0892 45.0851 44.9512 45.6167 44.6719L49.9997 42.3676L54.3827 44.6719C55.6048 45.3146 57.0579 45.2094 58.1753 44.3976C59.2923 43.5861 59.8411 42.2365 59.6077 40.876L58.7704 35.9951L62.3165 32.5387C63.3052 31.575 63.6542 30.1605 63.2276 28.8474C62.8011 27.5342 61.6872 26.5953 60.3206 26.3967L55.4204 25.6845L53.2288 21.2439C52.6177 20.0058 51.3804 19.2367 49.9997 19.2367C48.619 19.2367 47.3817 20.0058 46.7706 21.2439L44.5792 25.6845L39.6786 26.3967C38.3124 26.5953 37.1985 27.5342 36.7718 28.8474C36.345 30.1603 36.694 31.575 37.6829 32.5388L41.229 35.9951ZM39.5552 29.7517C39.5942 29.6318 39.7251 29.3474 40.0995 29.2929L45.2245 28.5482C46.0374 28.4299 46.7396 27.9197 47.1032 27.183L49.395 22.5392C49.5624 22.2 49.8735 22.1635 49.9995 22.1635C50.1255 22.1635 50.4366 22.2 50.604 22.5392L52.8962 27.1836C53.2597 27.9199 53.962 28.4299 54.7751 28.5482L59.8997 29.2929C60.2741 29.3474 60.405 29.6322 60.444 29.7519C60.4829 29.8719 60.5442 30.1789 60.2733 30.4429L56.5651 34.0576C55.9771 34.631 55.7089 35.4566 55.8476 36.2666L56.7229 41.3705C56.7868 41.7433 56.5565 41.9558 56.4546 42.0299C56.3526 42.1037 56.0792 42.2576 55.7444 42.081L51.161 39.6715C50.7976 39.4803 50.3985 39.3846 49.9995 39.3846C49.6007 39.3846 49.2017 39.4803 48.838 39.6713L44.2544 42.081C43.9192 42.2574 43.6462 42.1037 43.5444 42.0299C43.4425 41.9558 43.2124 41.7433 43.2763 41.3705L44.1517 36.2666C44.2905 35.457 44.0224 34.6312 43.4339 34.0574L39.7257 30.4431C39.455 30.1789 39.5163 29.8719 39.5552 29.7517Z" fill="white"/>
<path d="M70.3002 16.9724L69.4631 21.8531C69.2295 23.2139 69.7785 24.5635 70.8955 25.375C72.0127 26.1865 73.4654 26.2914 74.6879 25.6492L79.0709 23.3449L83.4539 25.6492C83.9855 25.9285 84.5607 26.0666 85.1332 26.0666C85.8767 26.0666 86.6152 25.8336 87.2463 25.375C88.3635 24.5635 88.9123 23.2139 88.6787 21.8531L87.8416 16.9724L91.3875 13.516C92.3764 12.5523 92.7254 11.1379 92.2988 9.82499C91.8723 8.51171 90.7584 7.57264 89.392 7.37401L84.4916 6.66171L82.3 2.22128C81.6889 0.983191 80.4515 0.21405 79.0709 0.21405C77.6902 0.21405 76.4529 0.983191 75.8418 2.22128L73.6502 6.66171L68.75 7.37401C67.3836 7.57245 66.2697 8.51151 65.8429 9.82479C65.4164 11.1377 65.7654 12.5523 66.7541 13.516L70.3002 16.9724ZM68.6265 10.7293C68.6654 10.6094 68.7963 10.3248 69.1709 10.2703L74.2949 9.52557C75.1086 9.4076 75.8113 8.89725 76.1746 8.16034L78.4664 3.51678C78.634 3.17753 78.9451 3.141 79.0709 3.141C79.1967 3.141 79.5082 3.17753 79.6754 3.51678L81.9674 8.16053C82.331 8.89725 83.0338 9.4078 83.8463 9.52557L88.9711 10.2703C89.3455 10.3248 89.4765 10.6096 89.5154 10.7293C89.5543 10.8492 89.6156 11.1562 89.3447 11.4203L85.6363 15.0351C85.0484 15.6086 84.7801 16.4342 84.9187 17.2441L85.7941 22.3478C85.858 22.7209 85.6277 22.9334 85.5258 23.0074C85.424 23.0816 85.1506 23.2349 84.8156 23.0586L80.2322 20.649C79.8685 20.4578 79.4695 20.3621 79.0707 20.3621C78.6717 20.3621 78.2728 20.4578 77.9094 20.6488L73.3258 23.0586C72.991 23.2349 72.7176 23.0812 72.6156 23.0074C72.5137 22.9332 72.2836 22.7209 72.3472 22.3478L73.2226 17.2445C73.3617 16.4348 73.0935 15.609 72.5051 15.0349L68.7969 11.4203C68.526 11.1562 68.5875 10.849 68.6265 10.7293Z" fill="white"/>
</g>
<defs>
<clipPath id="clip0">
<rect width="100" height="100" fill="white"/>
</clipPath>
</defs>
</svg>
