<svg width="100" height="100" viewBox="0 0 100 100" fill="none" xmlns="http://www.w3.org/2000/svg">
<g clip-path="url(#clip0)">
<path d="M20.8984 37.1094C20.8984 53.2639 34.0409 66.4063 50.1954 66.4063C66.3499 66.4063 79.4923 53.2639 79.4923 37.1094C79.4923 20.9549 66.3499 7.8125 50.1954 7.8125C34.0409 7.8125 20.8984 20.9549 20.8984 37.1094ZM50.1954 11.7188C64.1961 11.7188 75.586 23.1087 75.586 37.1094C75.586 51.1101 64.1961 62.5001 50.1954 62.5001C36.1946 62.5001 24.8047 51.1101 24.8047 37.1094C24.8047 23.1087 36.1946 11.7188 50.1954 11.7188Z" fill="#6F3A80"/>
<path d="M32.1069 33.6275L39.6775 41.0867L37.9357 51.5703C37.8144 52.3004 38.1158 53.0359 38.7147 53.4708C39.3129 53.9057 40.1055 53.9644 40.7624 53.6241L50.1947 48.7261L59.6262 53.6241C60.2777 53.9621 61.0704 53.9095 61.6739 53.4708C62.2728 53.0359 62.5742 52.3004 62.4529 51.5703L60.7111 41.0867L68.2817 33.6275C68.8089 33.1087 68.9974 32.3366 68.7685 31.6324C68.5396 30.9289 67.9331 30.4155 67.2014 30.3049L56.6949 28.7233L51.9411 19.2163C51.6107 18.5548 50.934 18.1367 50.1947 18.1367C49.4546 18.1367 48.7787 18.5548 48.4475 19.2163L43.6937 28.7233L33.1872 30.3049C32.4555 30.4147 31.849 30.9289 31.6201 31.6324C31.3912 32.3366 31.5804 33.1087 32.1069 33.6275ZM45.2783 32.435C45.907 32.3404 46.4502 31.9459 46.7347 31.3776L50.1947 24.4569L53.6546 31.3776C53.9392 31.9459 54.4824 32.3404 55.1111 32.435L62.758 33.5863L57.2473 39.0146C56.7949 39.4609 56.5874 40.0995 56.6911 40.7266L57.9591 48.3568L51.0942 44.7923C50.8127 44.6459 50.5037 44.5726 50.1947 44.5726C49.8857 44.5726 49.5767 44.6459 49.2944 44.7923L42.4295 48.3568L43.6975 40.7266C43.802 40.0995 43.5945 39.4609 43.1413 39.0146L37.6313 33.5863L45.2783 32.435Z" fill="#6F3A80"/>
<path d="M52.1484 1.95313C52.1484 3.03193 51.2741 3.90626 50.1953 3.90626C49.1165 3.90626 48.2422 3.03193 48.2422 1.95313C48.2422 0.87433 49.1165 0 50.1953 0C51.2741 0 52.1484 0.87433 52.1484 1.95313Z" fill="#6F3A80"/>
<path d="M40.9905 1.15158C24.5606 5.34546 13.0859 20.132 13.0859 37.1097C13.0859 47.6543 17.5194 57.5901 25.3021 64.6267L13.5353 85.3642C13.1569 86.0318 13.2042 86.8588 13.6559 87.4783C14.1075 88.0986 14.8796 88.3969 15.6311 88.2405L28.994 85.4657L33.6907 98.7004C33.9455 99.4206 34.5978 99.9249 35.3592 99.9928C36.1206 100.061 36.8508 99.6769 37.2284 99.0124L50.1954 76.2158L63.1615 99.0124C63.511 99.6266 64.161 99.9997 64.8583 99.9997C64.9155 99.9997 64.9735 99.9974 65.0308 99.9928C65.7922 99.9249 66.4445 99.4198 66.7001 98.7004L71.396 85.4657L84.7589 88.2405C85.5096 88.3961 86.2825 88.0978 86.7341 87.4783C87.1865 86.8588 87.2331 86.0318 86.8547 85.3642L75.0878 64.6267C82.8706 57.5901 87.304 47.6543 87.304 37.1097C87.304 20.132 75.8294 5.34546 59.4002 1.15158C58.3543 0.884551 57.2915 1.5155 57.0245 2.56073C56.7574 3.60596 57.3884 4.6695 58.4336 4.93653C73.1324 8.68867 83.3985 21.9188 83.3985 37.1097C83.3985 55.5981 68.3831 70.3129 50.1954 70.3129C31.9947 70.3129 16.9922 55.5859 16.9922 37.1097C16.9922 21.9188 27.2576 8.68867 41.9564 4.93653C43.0016 4.6695 43.6326 3.60596 43.3663 2.56073C43.0993 1.5155 42.0365 0.884551 40.9905 1.15158ZM35.9444 93.3705L32.106 82.5543C31.7795 81.6342 30.8243 81.0963 29.8683 81.2947L19.0628 83.5385L28.3753 67.1261C33.8051 71.0735 40.2344 73.4783 46.9201 74.0734L35.9444 93.3705ZM70.5216 81.2947C69.5664 81.0963 68.6105 81.6342 68.2839 82.5543L64.4463 93.3705L53.4699 74.0734C60.1563 73.4783 66.5849 71.0735 72.0155 67.1261L81.3279 83.5385L70.5216 81.2947Z" fill="#6F3A80"/>
</g>
<defs>
<clipPath id="clip0">
<rect width="100" height="100" fill="white"/>
</clipPath>
</defs>
</svg>
