<svg width="53" height="59" viewBox="0 0 53 59" fill="none" xmlns="http://www.w3.org/2000/svg">
<path d="M23.9998 1.44367C25.5469 0.550338 27.4531 0.550339 29.0002 1.44367L39.2735 7.37565L49.5474 13.3066C51.0946 14.1998 52.0477 15.8506 52.0476 17.6371L52.047 29.5L52.0476 41.3629C52.0477 43.1494 51.0946 44.8002 49.5474 45.6934L39.2735 51.6244L29.0002 57.5563C27.4531 58.4497 25.5469 58.4497 23.9998 57.5563L13.7265 51.6244L3.45262 45.6934C1.90541 44.8002 0.952307 43.1494 0.952398 41.3629L0.953001 29.5L0.952398 17.6371C0.952307 15.8506 1.90541 14.1998 3.45262 13.3066L13.7265 7.37565L23.9998 1.44367Z" fill="#EE778C"/>
</svg>
