<svg width="100" height="100" viewBox="0 0 100 100" fill="none" xmlns="http://www.w3.org/2000/svg">
<path d="M5.85938 5.85937H10.7832V0H0V10.7834H5.85938V5.85937Z" fill="white"/>
<path d="M0 17.8431H5.85938V28.6265H0V17.8431Z" fill="white"/>
<path d="M0 35.6867H5.85938V46.4701H0V35.6867Z" fill="white"/>
<path d="M71.374 0H82.1572V5.85938H71.374V0Z" fill="white"/>
<path d="M53.5303 0H64.3135V5.85938H53.5303V0Z" fill="white"/>
<path d="M35.6865 0H46.4697V5.85938H35.6865V0Z" fill="white"/>
<path d="M17.8428 0H28.626V5.85938H17.8428V0Z" fill="white"/>
<path d="M89.2168 0V5.85937H94.1406V10.7834H100V0H89.2168Z" fill="white"/>
<path d="M94.1406 17.8431H100V28.6265H94.1406V17.8431Z" fill="white"/>
<path d="M94.1406 35.6867H100V46.4701H94.1406V35.6867Z" fill="white"/>
<path d="M94.1406 53.5299H100V64.3133H94.1406V53.5299Z" fill="white"/>
<path d="M94.1406 71.3734H100V82.1568H94.1406V71.3734Z" fill="white"/>
<path d="M94.1406 94.1406H89.2168V100H100V89.2166H94.1406V94.1406Z" fill="white"/>
<path d="M71.374 94.1406H82.1572V100H71.374V94.1406Z" fill="white"/>
<path d="M53.5303 94.1406H64.3135V100H53.5303V94.1406Z" fill="white"/>
<path d="M0 100H46.4699V53.5301H0V100ZM5.85938 59.3895H40.6105V94.1406H5.85938V59.3895Z" fill="white"/>
<path d="M70.3053 22.6433H73.2135L57.4854 38.3714V35.4632H51.626V48.374H64.5367V42.5146H61.6285L77.3566 26.7863V29.6947H83.216V16.7839H70.3053V22.6433Z" fill="white"/>
</svg>
