<svg width="100" height="100" viewBox="0 0 100 100" fill="none" xmlns="http://www.w3.org/2000/svg">
<g clip-path="url(#clip0)">
<path d="M97.5611 90.2416H88.9482V35.265C88.9482 33.9203 87.8541 32.8262 86.5094 32.8262H80.9447C80.1365 32.8262 79.4814 33.4812 79.4814 34.2895C79.4814 35.0977 80.1365 35.7527 80.9447 35.7527H86.0217V90.2416H72.1219V35.7527H74.0639C74.8721 35.7527 75.5272 35.0977 75.5272 34.2895C75.5272 33.4812 74.8721 32.8262 74.0639 32.8262H71.6342C70.2895 32.8262 69.1953 33.9203 69.1953 35.265V90.2418H59.8768V53.7912C59.8768 52.4465 58.7826 51.3523 57.4379 51.3523H42.5625C41.2178 51.3523 40.1236 52.4465 40.1236 53.7912V90.2416H30.8049V69.7957C30.8049 68.451 29.7107 67.3568 28.366 67.3568H13.4908C12.1461 67.3568 11.052 68.451 11.052 69.7957V76.3396C11.052 77.1479 11.707 77.8029 12.5152 77.8029C13.3234 77.8029 13.9785 77.1479 13.9785 76.3396V70.2836H27.8781V90.2418H13.9785V83.1445C13.9785 82.3363 13.3234 81.6812 12.5152 81.6812C11.707 81.6812 11.052 82.3363 11.052 83.1445V90.2418H2.43887C1.09414 90.2416 0 91.3357 0 92.6807V97.3469C0 98.6916 1.09414 99.7857 2.43887 99.7857H97.5611C98.9059 99.7857 100 98.6916 100 97.3469V92.6807C100 91.3357 98.9059 90.2416 97.5611 90.2416ZM43.0502 54.2791H56.95V90.2418H43.0502V54.2791ZM97.0732 96.8592H2.92676V93.1686H12.5154H29.3418H41.5871H58.4135H70.6586H87.485H97.0734V96.8592H97.0732Z" fill="white"/>
<path d="M12.1574 53.7994L11.3203 58.6801C11.0869 60.041 11.6359 61.3904 12.7529 62.202C13.3842 62.6605 14.1226 62.8938 14.866 62.8938C15.4383 62.8938 16.0135 62.7555 16.5451 62.4762L20.9281 60.1719L25.3111 62.4762C26.533 63.1186 27.9859 63.0135 29.1033 62.2021C30.2203 61.3904 30.7693 60.0408 30.5359 58.6801L29.6988 53.7994L33.2447 50.343C34.2334 49.3793 34.5826 47.9648 34.156 46.6518C33.7293 45.3385 32.6156 44.3994 31.2492 44.2008L26.3488 43.4887L24.1574 39.0482C23.5463 37.81 22.309 37.041 20.9281 37.041C19.5474 37.041 18.3101 37.8102 17.6992 39.0482L15.5078 43.4887L10.6072 44.2008C9.2408 44.3994 8.12713 45.3383 7.70037 46.6518C7.27381 47.965 7.62283 49.3793 8.6115 50.3428L12.1574 53.7994ZM10.4838 47.5561C10.5228 47.4361 10.6537 47.1516 11.0281 47.0971L16.1523 46.3523C16.9654 46.2346 17.6679 45.724 18.0318 44.9871L20.3236 40.3436C20.491 40.0043 20.8021 39.9676 20.9281 39.9676C21.0541 39.9676 21.3652 40.0041 21.5328 40.3436L23.8246 44.9869C24.1883 45.7238 24.8908 46.2344 25.7037 46.3523L30.8283 47.0971C31.2027 47.1516 31.3336 47.4361 31.3726 47.5561C31.4117 47.676 31.473 47.9832 31.2019 48.2471L27.4941 51.8615C26.9054 52.4348 26.6371 53.2609 26.7761 54.0707L27.6515 59.1746C27.7154 59.5475 27.4851 59.7602 27.3832 59.8342C27.281 59.9082 27.0076 60.0617 26.6732 59.8854L22.0896 57.4756C21.726 57.2844 21.3269 57.1889 20.9281 57.1889C20.5293 57.1889 20.1303 57.2846 19.7666 57.4756L15.183 59.8854C14.848 60.0615 14.575 59.9082 14.473 59.8342C14.3711 59.76 14.1408 59.5475 14.2047 59.1746L15.0801 54.0709C15.2191 53.2609 14.9506 52.435 14.3625 51.8617L10.6543 48.2473C10.3834 47.9832 10.4447 47.676 10.4838 47.5561Z" fill="white"/>
<path d="M41.23 35.9947L40.3929 40.8756C40.1595 42.2363 40.7083 43.5857 41.8253 44.3973C42.4565 44.8559 43.195 45.0889 43.9386 45.0889C44.5108 45.0889 45.086 44.9508 45.6177 44.6715L50.0007 42.3672L54.3837 44.6715C55.6058 45.3143 57.0589 45.209 58.1763 44.3973C59.2933 43.5857 59.8421 42.2361 59.6087 40.8756L58.7714 35.9947L62.3175 32.5383C63.3062 31.5746 63.6552 30.1602 63.2286 28.8471C62.802 27.5338 61.6882 26.5949 60.3216 26.3963L55.4214 25.6842L53.2298 21.2436C52.6187 20.0055 51.3813 19.2363 50.0007 19.2363C48.62 19.2363 47.3827 20.0055 46.7716 21.2436L44.5802 25.6842L39.6796 26.3963C38.3134 26.5949 37.1995 27.5338 36.7728 28.8471C36.346 30.16 36.695 31.5746 37.6839 32.5385L41.23 35.9947ZM39.5562 29.7514C39.5952 29.6314 39.7261 29.3471 40.1005 29.2926L45.2255 28.5479C46.0384 28.4295 46.7405 27.9193 47.1042 27.1826L49.396 22.5389C49.5634 22.1996 49.8745 22.1631 50.0005 22.1631C50.1265 22.1631 50.4376 22.1996 50.605 22.5389L52.8972 27.1832C53.2606 27.9195 53.963 28.4295 54.7761 28.5479L59.9007 29.2926C60.2751 29.3471 60.406 29.6318 60.445 29.7516C60.4839 29.8715 60.5452 30.1785 60.2743 30.4426L56.5661 34.0572C55.978 34.6307 55.7099 35.4563 55.8485 36.2662L56.7239 41.3701C56.7878 41.743 56.5575 41.9555 56.4556 42.0295C56.3536 42.1033 56.0802 42.2572 55.7454 42.0807L51.162 39.6711C50.7985 39.4799 50.3995 39.3842 50.0005 39.3842C49.6017 39.3842 49.2026 39.4799 48.839 39.6709L44.2554 42.0807C43.9202 42.257 43.6472 42.1033 43.5454 42.0295C43.4435 41.9555 43.2134 41.743 43.2772 41.3701L44.1526 36.2662C44.2915 35.4566 44.0233 34.6309 43.4349 34.057L39.7267 30.4428C39.456 30.1785 39.5173 29.8715 39.5562 29.7514Z" fill="white"/>
<path d="M70.3002 16.9723L69.4631 21.8529C69.2295 23.2137 69.7785 24.5633 70.8955 25.3748C72.0127 26.1863 73.4654 26.2912 74.6879 25.649L79.0709 23.3447L83.4539 25.649C83.9855 25.9283 84.5607 26.0664 85.1332 26.0664C85.8767 26.0664 86.6152 25.8334 87.2463 25.3748C88.3635 24.5633 88.9123 23.2137 88.6787 21.8529L87.8416 16.9723L91.3875 13.5158C92.3764 12.5521 92.7254 11.1377 92.2988 9.8248C91.8723 8.51152 90.7584 7.57246 89.392 7.37383L84.4916 6.66152L82.3 2.22109C81.6889 0.983008 80.4515 0.213867 79.0709 0.213867C77.6902 0.213867 76.4529 0.983008 75.8418 2.22109L73.6502 6.66152L68.75 7.37383C67.3836 7.57226 66.2697 8.51133 65.8429 9.82461C65.4164 11.1375 65.7654 12.5521 66.7541 13.5158L70.3002 16.9723ZM68.6265 10.7291C68.6654 10.6092 68.7963 10.3246 69.1709 10.2701L74.2949 9.52539C75.1086 9.40742 75.8113 8.89707 76.1746 8.16015L78.4664 3.5166C78.634 3.17734 78.9451 3.14082 79.0709 3.14082C79.1967 3.14082 79.5082 3.17734 79.6754 3.5166L81.9674 8.16035C82.331 8.89707 83.0338 9.40762 83.8463 9.52539L88.9711 10.2701C89.3455 10.3246 89.4765 10.6094 89.5154 10.7291C89.5543 10.849 89.6156 11.1561 89.3447 11.4201L85.6363 15.035C85.0484 15.6084 84.7801 16.434 84.9187 17.2439L85.7941 22.3477C85.858 22.7207 85.6277 22.9332 85.5258 23.0072C85.424 23.0814 85.1506 23.2348 84.8156 23.0584L80.2322 20.6488C79.8685 20.4576 79.4695 20.3619 79.0707 20.3619C78.6717 20.3619 78.2728 20.4576 77.9094 20.6486L73.3258 23.0584C72.991 23.2348 72.7176 23.0811 72.6156 23.0072C72.5137 22.933 72.2836 22.7207 72.3472 22.3477L73.2226 17.2443C73.3617 16.4346 73.0935 15.6088 72.5051 15.0348L68.7969 11.4201C68.526 11.1561 68.5875 10.8488 68.6265 10.7291Z" fill="white"/>
</g>
<defs>
<clipPath id="clip0">
<rect width="100" height="100" fill="white"/>
</clipPath>
</defs>
</svg>
