<svg width="100" height="100" viewBox="0 0 100 100" fill="none" xmlns="http://www.w3.org/2000/svg">
<g clip-path="url(#clip0)">
<path d="M97.2774 66.381L92.0505 65.0739C91.6134 63.6308 91.0331 62.2342 90.3185 60.9067L93.0923 56.2845C93.4862 55.6285 93.3829 54.7885 92.8424 54.2473L87.6399 49.0382C87.0986 48.497 86.2587 48.3944 85.6027 48.7884L80.9805 51.5622C80.3806 51.2407 79.7637 50.9436 79.1353 50.6734C78.3735 50.3503 77.5946 50.0686 76.8019 49.8302L75.4947 44.6024C75.31 43.8601 74.6434 43.3392 73.8783 43.3392H66.5254C65.7604 43.3392 65.0938 43.8601 64.9082 44.6024L63.6019 49.8302C62.158 50.2672 60.7621 50.8476 59.4346 51.5622L54.8124 48.7884C54.1564 48.3944 53.3165 48.497 52.7752 49.0382L47.5662 54.2408C47.0249 54.782 46.9224 55.622 47.3163 56.278L50.0901 60.9002C49.3747 62.2277 48.7952 63.6235 48.3581 65.0674L43.1304 66.3737C42.3881 66.5593 41.8672 67.2259 41.8672 67.991V75.3487C41.8672 76.1138 42.3881 76.7804 43.1304 76.9651L48.3581 78.2723C48.7952 79.7153 49.3747 81.1112 50.0901 82.4395L47.3163 87.0617C46.9224 87.7177 47.0249 88.5577 47.5662 89.0989L52.7687 94.3014C53.31 94.8419 54.1499 94.9452 54.8051 94.5513L59.4273 91.7775C60.7556 92.4921 62.1515 93.0724 63.5945 93.5095L64.9017 98.7364C65.0872 99.4787 65.7538 99.9996 66.5189 100H73.8767C74.6417 99.9996 75.3083 99.4787 75.4931 98.7364L76.8002 93.5095C78.2433 93.0724 79.6392 92.4921 80.9675 91.7775L85.5897 94.5513C86.2457 94.9452 87.0856 94.8419 87.6269 94.3014L92.8286 89.0989C93.3698 88.5577 93.4732 87.7177 93.0793 87.0617L90.3055 82.4395C91.0201 81.1112 91.6004 79.7153 92.0375 78.2723L97.2644 76.9651C98.0067 76.7804 98.5276 76.1138 98.5276 75.3487V67.9975C98.5292 67.2365 98.0148 66.5707 97.2774 66.381ZM95.2076 74.053L90.3022 75.2803C89.7056 75.4285 89.24 75.8916 89.0887 76.4874C88.6296 78.2934 87.9126 80.0238 86.9578 81.624C86.6437 82.1514 86.6437 82.8082 86.9578 83.3348L89.5615 87.6689L86.2066 91.0377L81.8725 88.434C81.3459 88.119 80.6891 88.119 80.1625 88.434C78.5615 89.3879 76.8312 90.1057 75.0251 90.564C74.4293 90.7153 73.9662 91.1817 73.8181 91.7775L72.5809 96.6797H67.8269L66.6003 91.7742C66.4522 91.1785 65.9882 90.7121 65.3933 90.5607C63.5872 90.1017 61.8568 89.3846 60.2559 88.4299C59.7293 88.1157 59.0724 88.1157 58.5458 88.4299L54.2118 91.0336L50.843 87.6786L53.4467 83.3446C53.7617 82.818 53.7617 82.1611 53.4467 81.6345C52.4928 80.0336 51.7749 78.3032 51.3167 76.4971C51.1653 75.9022 50.6989 75.4382 50.1032 75.2901L45.201 74.053V69.2997L50.1064 68.0723C50.7022 67.9242 51.1686 67.4611 51.3199 66.8653C51.7782 65.0593 52.496 63.3289 53.45 61.7287C53.7649 61.2013 53.7649 60.5445 53.45 60.0179L50.8463 55.6838L54.202 52.315L58.5361 54.9187C59.0627 55.2337 59.7195 55.2337 60.2461 54.9187C61.8471 53.9648 63.5774 53.247 65.3835 52.7887C65.9785 52.6373 66.4424 52.171 66.5905 51.5752L67.8269 46.673H72.5809L73.8083 51.5785C73.9564 52.1742 74.4195 52.6406 75.0145 52.792C76.8206 53.2494 78.551 53.9665 80.1503 54.9212C80.6777 55.2362 81.3353 55.2362 81.8628 54.9212L86.196 52.3175L89.5648 55.674L86.9611 60.0081C86.6469 60.5347 86.6469 61.1915 86.9611 61.7181C87.9158 63.3191 88.6329 65.0495 89.0919 66.8556C89.2433 67.4505 89.7089 67.9144 90.3055 68.0626L95.2076 69.2997V74.053Z" fill="#6F3A80"/>
<path d="M70.2043 58.3412C62.8392 58.3412 56.8691 64.3112 56.8691 71.6763C56.8691 79.0414 62.8392 85.0114 70.2043 85.0114C77.5685 85.0114 83.5394 79.0414 83.5394 71.6763C83.5312 64.3153 77.5653 58.3493 70.2043 58.3412ZM70.2043 81.6776C64.6802 81.6776 60.2029 77.1995 60.2029 71.6763C60.2029 66.1531 64.6802 61.675 70.2043 61.675C75.7274 61.675 80.2056 66.1531 80.2056 71.6763C80.1999 77.1979 75.725 81.6719 70.2043 81.6776Z" fill="#6F3A80"/>
<path d="M78.5391 20.0027H81.8729V46.6729H78.5391V20.0027Z" fill="#6F3A80"/>
<path d="M8.52888 85.0113V91.6789C8.52888 92.5994 9.27524 93.3458 10.1958 93.3458H45.2004V90.012H11.8627V85.0113H31.8653C32.1233 85.0138 32.3781 84.9568 32.6101 84.8445L39.2776 81.5107C39.8433 81.2291 40.2014 80.6512 40.2014 80.0188C40.2014 79.3872 39.8433 78.8093 39.2776 78.5269L32.6101 75.1931C32.3797 75.0751 32.1242 75.0124 31.8653 75.01H11.8627V18.3358H75.2044C78.8866 18.3358 81.872 15.3504 81.872 11.6682V8.33444C81.872 7.41391 81.1256 6.66756 80.2051 6.66756H75.2044V10.0013H78.5382V11.6682C78.5382 13.5093 77.0455 15.002 75.2044 15.002C73.3634 15.002 71.8707 13.5093 71.8707 11.6682V6.66756C71.8707 4.82649 73.3634 3.33378 75.2044 3.33378H81.872C83.7131 3.33378 85.2058 4.82649 85.2058 6.66756V45.006H88.5396V6.66756C88.5396 2.98542 85.5541 0 81.872 0H8.52888C4.84594 0 1.86133 2.98542 1.86133 6.66756V11.6682C1.86133 15.3504 4.84594 18.3358 8.52888 18.3358V75.01H6.86199C4.1004 75.01 1.86133 77.2491 1.86133 80.0107C1.86133 82.7723 4.1004 85.0113 6.86199 85.0113H8.52888ZM5.19511 11.6682V6.66756C5.19511 4.82649 6.68782 3.33378 8.52888 3.33378H69.4631C68.8633 4.34303 68.5434 5.4939 68.5369 6.66756V11.6682C68.5434 12.8419 68.8633 13.9928 69.4631 15.002H8.52888C6.68782 15.002 5.19511 13.5093 5.19511 11.6682ZM34.8052 80.0107L31.4714 81.6776H30.1984V78.3438H31.4714L34.8052 80.0107ZM5.19511 80.0107C5.19511 79.0901 5.94146 78.3438 6.86199 78.3438H26.8647V81.6776H6.86199C5.94146 81.6776 5.19511 80.9312 5.19511 80.0107Z" fill="#6F3A80"/>
<path d="M1.86133 25.0034H5.19511V58.3412H1.86133V25.0034Z" fill="#6F3A80"/>
<path d="M66.871 26.6703V23.3365H45.2014C44.7595 23.3365 44.3354 23.5123 44.0229 23.8248L40.9772 26.8705C33.696 21.5337 23.6092 22.3126 17.2338 28.7042C16.5835 29.3545 16.5835 30.4102 17.2338 31.0605L29.0209 42.8476C29.3326 43.1609 29.7567 43.3383 30.1994 43.3392H46.8683C47.7888 43.3392 48.5352 42.5928 48.5352 41.6723C48.5336 36.9801 46.7267 32.4686 43.4873 29.0737L45.8916 26.6703H66.871ZM45.1078 40.0054H30.8896L20.8346 29.9503C25.959 25.8474 33.1604 25.5674 38.5884 29.2593L34.0215 33.8262L36.3786 36.1833L41.1392 31.4227C43.3563 33.779 44.7489 36.7904 45.1078 40.0054Z" fill="#6F3A80"/>
<path d="M70.2051 23.3365H73.5388V26.6703H70.2051V23.3365Z" fill="#6F3A80"/>
<path d="M20.1973 48.3397H23.531V51.6735H20.1973V48.3397Z" fill="#6F3A80"/>
<path d="M26.8652 48.3397H43.5341V51.6735H26.8652V48.3397Z" fill="#6F3A80"/>
<path d="M16.8633 55.0073H43.5335V58.3411H16.8633V55.0073Z" fill="#6F3A80"/>
<path d="M53.5352 30.0039H56.8689V33.3377H53.5352V30.0039Z" fill="#6F3A80"/>
<path d="M60.2031 30.0039H73.5382V33.3377H60.2031V30.0039Z" fill="#6F3A80"/>
<path d="M53.5352 36.6715H73.5378V40.0053H53.5352V36.6715Z" fill="#6F3A80"/>
<path d="M16.8633 61.6748H38.5328V65.0086H16.8633V61.6748Z" fill="#6F3A80"/>
</g>
<defs>
<clipPath id="clip0">
<rect width="100" height="100" fill="white"/>
</clipPath>
</defs>
</svg>
