<svg width="100" height="100" viewBox="0 0 100 100" fill="none" xmlns="http://www.w3.org/2000/svg">
<g clip-path="url(#clip0)">
<path d="M91.7331 17.2678C77.9743 13.4979 64.1347 7.62777 51.7103 0.292236C51.0503 -0.0974119 50.2314 -0.0974119 49.5716 0.292236C36.7888 7.83851 23.697 13.391 9.54765 17.2678C8.63359 17.518 8 18.3488 8 19.2967V40.79C8 62.9234 18.2107 77.5741 26.7767 85.9669C35.9986 95.003 46.7407 100 50.6409 100C54.5407 100 65.2829 95.003 74.5048 85.9669C83.0706 77.5743 93.2807 62.9236 93.2807 40.79V19.2965C93.2807 18.3488 92.6471 17.518 91.7331 17.2678ZM89.0737 40.7898C89.0737 61.4622 79.5501 75.1331 71.5602 82.9616C62.4917 91.8473 52.7958 95.7926 50.6409 95.7926C48.4861 95.7926 38.7896 91.8473 29.7209 82.9616C21.7312 75.1329 12.2072 61.4622 12.2072 40.7898V20.8934C25.7381 17.0516 38.3392 11.6901 50.6413 4.54106C62.6362 11.5004 75.8661 17.1285 89.0737 20.8926V40.7898Z" fill="white"/>
<path d="M31.9963 20.6584C31.5705 19.5773 30.3492 19.0463 29.2679 19.4722C25.5101 20.9529 21.6531 22.3158 17.8041 23.5232C16.927 23.7986 16.3301 24.6111 16.3301 25.5302V33.6535C16.3301 34.8152 17.2721 35.757 18.4336 35.757C19.5951 35.757 20.5371 34.8152 20.5371 33.6535V27.0675C23.99 25.9503 27.4392 24.7146 30.8101 23.3863C31.8912 22.9607 32.4222 21.7394 31.9963 20.6584Z" fill="white"/>
<path d="M35.9911 21.057C36.2734 21.057 36.5599 21.0002 36.8347 20.8803L36.8734 20.8635C37.9376 20.3971 38.4169 19.1582 37.9505 18.0944C37.4837 17.0301 36.2378 16.5487 35.1747 17.0147L35.1407 17.0293C34.0759 17.4944 33.595 18.7322 34.0601 19.7967C34.4052 20.5869 35.1796 21.057 35.9911 21.057Z" fill="white"/>
<path d="M75.7033 67.8291C74.7313 67.1937 73.4278 67.467 72.7916 68.4394C71.0582 71.0925 69.0246 73.6332 66.7465 75.99C64.8731 77.9279 62.843 79.7341 60.7127 81.3582C59.7891 82.0625 59.6114 83.3824 60.3155 84.3064C60.7297 84.8492 61.3561 85.1347 61.9897 85.1347C62.4346 85.1347 62.8829 84.9943 63.2637 84.7037C65.5616 82.9515 67.751 81.0037 69.7709 78.9142C72.234 76.3666 74.4352 73.6166 76.3137 70.7406C76.9494 69.7679 76.6758 68.4644 75.7033 67.8291Z" fill="white"/>
<path d="M55.827 84.6566L55.7063 84.7277C54.7011 85.31 54.3575 86.5967 54.9396 87.6019C55.3296 88.2758 56.0356 88.6519 56.762 88.6519C57.1194 88.6519 57.4823 88.5607 57.8138 88.3683L57.953 88.2865C58.9555 87.6994 59.2923 86.4109 58.7052 85.4084C58.1177 84.4062 56.829 84.0701 55.827 84.6566Z" fill="white"/>
<path d="M36.3023 45.707C35.0107 44.4152 33.2929 43.7043 31.466 43.7043C29.639 43.7043 27.921 44.4154 26.6289 45.707C23.9623 48.3742 23.9623 52.714 26.6289 55.381L39.0499 67.8017C40.3417 69.0931 42.0595 69.8042 43.8866 69.8042C45.7138 69.8042 47.4315 69.0931 48.7235 67.8013L74.6534 41.8713C77.3198 39.2035 77.3198 34.8642 74.653 32.198C73.3612 30.9062 71.6434 30.1953 69.8161 30.1953C67.9889 30.1953 66.2712 30.9064 64.9792 32.198L43.8864 53.2908L36.3023 45.707ZM67.9542 35.173C68.4512 34.676 69.1128 34.4023 69.8163 34.4023C70.5202 34.4023 71.1811 34.676 71.6786 35.173C72.7049 36.1994 72.7049 37.8701 71.6782 38.8969L45.7487 64.8265C45.2517 65.3236 44.5901 65.5972 43.8866 65.5972C43.1831 65.5972 42.5216 65.3236 42.0243 64.8265L29.6037 52.4062C28.5769 51.3795 28.5769 49.7088 29.6033 48.6824C30.1005 48.1853 30.762 47.9113 31.4658 47.9113C32.1695 47.9113 32.8306 48.1849 33.3277 48.682L42.3989 57.7535C42.7937 58.1478 43.3284 58.3695 43.8864 58.3695C44.4444 58.3695 44.9792 58.148 45.3735 57.7535L67.9542 35.173Z" fill="white"/>
</g>
<defs>
<clipPath id="clip0">
<rect width="100" height="100" fill="white"/>
</clipPath>
</defs>
</svg>
