<svg width="100" height="100" viewBox="0 0 100 100" fill="none" xmlns="http://www.w3.org/2000/svg">
<path d="M89.3302 19.1283H92.42C93.4978 19.1283 94.3719 18.2542 94.3719 17.1764C94.3719 16.0986 93.4978 15.2246 92.42 15.2246H85.003C83.9252 15.2246 83.0512 16.0986 83.0512 17.1764V24.5934C83.0512 25.6712 83.9252 26.5453 85.003 26.5453C86.0808 26.5453 86.9548 25.6712 86.9548 24.5934V22.4458C92.8771 30.3744 96.0963 39.9945 96.0963 50C96.0963 75.4177 75.4177 96.0963 50 96.0963C24.5823 96.0963 3.90369 75.4177 3.90369 50C3.90369 24.5823 24.5823 3.90369 50 3.90369C51.8798 3.90369 53.7717 4.01787 55.6237 4.24292C56.6923 4.37213 57.6668 3.61111 57.7968 2.54091C57.927 1.47091 57.165 0.49772 56.0948 0.367727C54.0872 0.123747 52.0368 0 50 0C36.6445 0 24.0883 5.20088 14.6447 14.6447C5.20088 24.0883 0 36.6445 0 50C0 63.3555 5.20088 75.9117 14.6447 85.3553C24.0883 94.7991 36.6445 100 50 100C63.3555 100 75.9117 94.7991 85.3553 85.3553C94.7991 75.9117 100 63.3555 100 50C100 38.7299 96.2349 27.9104 89.3302 19.1283Z" fill="#6F3A80"/>
<path d="M21.1709 29.4754C20.26 28.8988 19.0543 29.1701 18.4776 30.0805C14.0217 37.118 12.0492 45.5816 12.9234 53.9123C13.8105 62.3665 17.6156 70.339 23.6378 76.3614C30.9055 83.6291 40.4522 87.263 49.9991 87.263C59.5459 87.263 69.0924 83.6293 76.3603 76.3614C90.8959 61.8258 90.8959 38.1746 76.3603 23.6392C70.3472 17.6263 62.3878 13.8226 53.9476 12.9286C45.6324 12.0474 37.178 14.0045 30.1433 18.4385C29.2312 19.0133 28.9582 20.2186 29.5328 21.1305C30.1076 22.0426 31.3129 22.3156 32.2248 21.741C45.4852 13.3832 62.4989 15.2986 73.5998 26.3995C86.6133 39.413 86.6133 60.5874 73.5998 73.6009C60.5865 86.6147 39.4117 86.6147 26.3983 73.6009C15.4508 62.6534 13.5068 45.2287 21.776 32.1689C22.3524 31.258 22.0816 30.0522 21.1709 29.4754Z" fill="#6F3A80"/>
<path d="M75.3737 51.9835H77.7807C78.8585 51.9835 79.7326 51.1095 79.7326 50.0317C79.7326 48.9539 78.8585 48.0798 77.7807 48.0798H75.3737C74.2959 48.0798 73.4219 48.9539 73.4219 50.0317C73.4219 51.1095 74.2957 51.9835 75.3737 51.9835Z" fill="#6F3A80"/>
<path d="M20.2656 49.9683C20.2656 51.0461 21.1397 51.9202 22.2175 51.9202H24.6245C25.7023 51.9202 26.5763 51.0461 26.5763 49.9683C26.5763 48.8905 25.7023 48.0165 24.6245 48.0165H22.2175C21.1397 48.0165 20.2656 48.8903 20.2656 49.9683Z" fill="#6F3A80"/>
<path d="M51.9838 24.6258V22.2188C51.9838 21.141 51.1097 20.267 50.0319 20.267C48.9541 20.267 48.0801 21.141 48.0801 22.2188V24.6258C48.0801 25.7036 48.9541 26.5777 50.0319 26.5777C51.1097 26.5777 51.9838 25.7036 51.9838 24.6258Z" fill="#6F3A80"/>
<path d="M48.0176 75.3741V77.7811C48.0176 78.8589 48.8916 79.733 49.9694 79.733C51.0472 79.733 51.9213 78.8589 51.9213 77.7811V75.3741C51.9213 74.2963 51.0472 73.4222 49.9694 73.4222C48.8916 73.4222 48.0176 74.2961 48.0176 75.3741Z" fill="#6F3A80"/>
<path d="M40.2169 37.4561C39.4545 36.6941 38.219 36.6941 37.4564 37.4561C36.6942 38.2183 36.6942 39.4542 37.4564 40.2166L44.0714 46.8316C43.5645 47.7763 43.2762 48.8551 43.2762 50.0001C43.2762 53.7078 46.2926 56.7242 50.0003 56.7242C53.708 56.7242 56.7244 53.7078 56.7244 50.0001C56.7244 48.8551 56.4359 47.7763 55.9292 46.8316L69.2765 33.4843C70.0387 32.7221 70.0387 31.4862 69.2765 30.7238C68.5142 29.9618 67.2786 29.9618 66.5161 30.7238L53.1688 44.0711C52.2241 43.5642 51.1453 43.276 50.0003 43.276C48.8554 43.276 47.7766 43.5644 46.8319 44.0711L40.2169 37.4561ZM52.8207 50.0001C52.8207 51.5553 51.5556 52.8205 50.0003 52.8205C48.4451 52.8205 47.1799 51.5553 47.1799 50.0001C47.1799 48.4448 48.4451 47.1796 50.0003 47.1796C51.5556 47.1796 52.8207 48.4448 52.8207 50.0001Z" fill="#6F3A80"/>
<path d="M26.3982 26.3983C26.7632 26.0353 26.9718 25.5317 26.9718 25.0184C26.9718 24.505 26.7632 24.0034 26.3982 23.6384C26.0352 23.2756 25.5333 23.0665 25.0182 23.0665C24.5049 23.0665 24.0013 23.2754 23.6383 23.6384C23.2754 24.0015 23.0664 24.505 23.0664 25.0184C23.0664 25.5337 23.2753 26.0353 23.6383 26.3983C24.0013 26.7612 24.5049 26.9702 25.0182 26.9702C25.5333 26.9702 26.0352 26.7612 26.3982 26.3983Z" fill="#6F3A80"/>
<path d="M63.5202 5.83167C64.0357 5.83167 64.5393 5.62458 64.9021 5.25978C65.2652 4.89673 65.4742 4.39491 65.4742 3.87982C65.4742 3.36649 65.2654 2.86291 64.9021 2.49987C64.5393 2.13702 64.0357 1.92798 63.5202 1.92798C63.0069 1.92798 62.5033 2.13683 62.1404 2.49987C61.7774 2.86291 61.5684 3.36649 61.5684 3.87982C61.5684 4.39511 61.7772 4.89673 62.1404 5.25978C62.5033 5.62458 63.0069 5.83167 63.5202 5.83167Z" fill="#6F3A80"/>
</svg>
