<svg width="100" height="100" viewBox="0 0 100 100" fill="none" xmlns="http://www.w3.org/2000/svg">
<path d="M89.3302 19.1283H92.42C93.4978 19.1283 94.3719 18.2542 94.3719 17.1764C94.3719 16.0986 93.4978 15.2246 92.42 15.2246H85.003C83.9252 15.2246 83.0512 16.0986 83.0512 17.1764V24.5934C83.0512 25.6712 83.9252 26.5453 85.003 26.5453C86.0808 26.5453 86.9548 25.6712 86.9548 24.5934V22.4458C92.8771 30.3744 96.0963 39.9945 96.0963 50C96.0963 75.4177 75.4177 96.0963 50 96.0963C24.5823 96.0963 3.90369 75.4177 3.90369 50C3.90369 24.5823 24.5823 3.90369 50 3.90369C51.8798 3.90369 53.7717 4.01787 55.6237 4.24292C56.6923 4.37213 57.6668 3.61111 57.7968 2.54091C57.927 1.47091 57.165 0.49772 56.0948 0.367727C54.0872 0.123747 52.0368 0 50 0C36.6445 0 24.0883 5.20088 14.6447 14.6447C5.20088 24.0883 0 36.6445 0 50C0 63.3555 5.20088 75.9117 14.6447 85.3553C24.0883 94.7991 36.6445 100 50 100C63.3555 100 75.9117 94.7991 85.3553 85.3553C94.7991 75.9117 100 63.3555 100 50C100 38.7299 96.2349 27.9104 89.3302 19.1283Z" fill="white"/>
<path d="M21.1709 29.475C20.26 28.8984 19.0543 29.1698 18.4776 30.0801C14.0217 37.1177 12.0492 45.5812 12.9234 53.9119C13.8105 62.3661 17.6156 70.3386 23.6378 76.361C30.9055 83.6287 40.4522 87.2627 49.9991 87.2627C59.5459 87.2627 69.0924 83.6289 76.3603 76.361C90.8959 61.8255 90.8959 38.1742 76.3603 23.6388C70.3472 17.626 62.3878 13.8222 53.9476 12.9283C45.6324 12.047 37.178 14.0041 30.1433 18.4381C29.2312 19.0129 28.9582 20.2182 29.5328 21.1301C30.1076 22.0422 31.3129 22.3153 32.2248 21.7406C45.4852 13.3828 62.4989 15.2982 73.5998 26.3991C86.6133 39.4126 86.6133 60.587 73.5998 73.6006C60.5865 86.6143 39.4117 86.6143 26.3983 73.6006C15.4508 62.6531 13.5068 45.2284 21.776 32.1686C22.3524 31.2576 22.0816 30.0518 21.1709 29.475Z" fill="white"/>
<path d="M75.3737 51.9838H77.7807C78.8585 51.9838 79.7326 51.1097 79.7326 50.0319C79.7326 48.9541 78.8585 48.0801 77.7807 48.0801H75.3737C74.2959 48.0801 73.4219 48.9541 73.4219 50.0319C73.4219 51.1097 74.2957 51.9838 75.3737 51.9838Z" fill="white"/>
<path d="M20.2656 49.9684C20.2656 51.0463 21.1397 51.9203 22.2175 51.9203H24.6245C25.7023 51.9203 26.5763 51.0463 26.5763 49.9684C26.5763 48.8906 25.7023 48.0166 24.6245 48.0166H22.2175C21.1397 48.0166 20.2656 48.8904 20.2656 49.9684Z" fill="white"/>
<path d="M51.9838 24.6255V22.2184C51.9838 21.1406 51.1097 20.2666 50.0319 20.2666C48.9541 20.2666 48.0801 21.1406 48.0801 22.2184V24.6255C48.0801 25.7033 48.9541 26.5773 50.0319 26.5773C51.1097 26.5773 51.9838 25.7033 51.9838 24.6255Z" fill="white"/>
<path d="M48.0176 75.3737V77.7807C48.0176 78.8586 48.8916 79.7326 49.9694 79.7326C51.0472 79.7326 51.9213 78.8586 51.9213 77.7807V75.3737C51.9213 74.2959 51.0472 73.4219 49.9694 73.4219C48.8916 73.4219 48.0176 74.2957 48.0176 75.3737Z" fill="white"/>
<path d="M40.2169 37.4561C39.4545 36.6941 38.219 36.6941 37.4564 37.4561C36.6942 38.2183 36.6942 39.4542 37.4564 40.2166L44.0714 46.8316C43.5645 47.7763 43.2762 48.8551 43.2762 50.0001C43.2762 53.7078 46.2926 56.7242 50.0003 56.7242C53.708 56.7242 56.7244 53.7078 56.7244 50.0001C56.7244 48.8551 56.4359 47.7763 55.9292 46.8316L69.2765 33.4843C70.0387 32.7221 70.0387 31.4862 69.2765 30.7238C68.5142 29.9618 67.2786 29.9618 66.5161 30.7238L53.1688 44.0711C52.2241 43.5642 51.1453 43.276 50.0003 43.276C48.8554 43.276 47.7766 43.5644 46.8319 44.0711L40.2169 37.4561ZM52.8207 50.0001C52.8207 51.5553 51.5556 52.8205 50.0003 52.8205C48.4451 52.8205 47.1799 51.5553 47.1799 50.0001C47.1799 48.4448 48.4451 47.1796 50.0003 47.1796C51.5556 47.1796 52.8207 48.4448 52.8207 50.0001Z" fill="white"/>
<path d="M26.3982 26.3982C26.7632 26.0352 26.9718 25.5316 26.9718 25.0182C26.9718 24.5049 26.7632 24.0033 26.3982 23.6383C26.0352 23.2754 25.5333 23.0664 25.0182 23.0664C24.5049 23.0664 24.0013 23.2753 23.6383 23.6383C23.2754 24.0013 23.0664 24.5049 23.0664 25.0182C23.0664 25.5335 23.2753 26.0352 23.6383 26.3982C24.0013 26.761 24.5049 26.9701 25.0182 26.9701C25.5333 26.9701 26.0352 26.761 26.3982 26.3982Z" fill="white"/>
<path d="M63.5202 5.83142C64.0357 5.83142 64.5393 5.62433 64.9021 5.25953C65.2652 4.89649 65.4742 4.39467 65.4742 3.87958C65.4742 3.36624 65.2654 2.86267 64.9021 2.49962C64.5393 2.13678 64.0357 1.92773 63.5202 1.92773C63.0069 1.92773 62.5033 2.13658 62.1404 2.49962C61.7774 2.86267 61.5684 3.36624 61.5684 3.87958C61.5684 4.39487 61.7772 4.89649 62.1404 5.25953C62.5033 5.62433 63.0069 5.83142 63.5202 5.83142Z" fill="white"/>
</svg>
