<svg width="89" height="98" viewBox="0 0 89 98" fill="none" xmlns="http://www.w3.org/2000/svg">
<rect x="11.2637" y="37.193" width="9.89474" height="33.0526" rx="4.94737" stroke="#6F3A80" stroke-width="4"/>
<rect x="66.8418" y="37.193" width="9.89474" height="33.0526" rx="4.94737" stroke="#6F3A80" stroke-width="4"/>
<path fill-rule="evenodd" clip-rule="evenodd" d="M10.807 44.5843C10.3049 44.5 9.78917 44.4562 9.26316 44.4562C4.14726 44.4562 0 48.6034 0 53.7193C0 58.8352 4.14726 62.9825 9.26316 62.9825C9.78917 62.9825 10.3049 62.9386 10.807 62.8544V58.7524C10.3188 58.902 9.80038 58.9825 9.26316 58.9825C6.3564 58.9825 4 56.6261 4 53.7193C4 50.8126 6.3564 48.4562 9.26316 48.4562C9.80038 48.4562 10.3188 48.5367 10.807 48.6862V44.5843Z" fill="#6F3A80"/>
<path fill-rule="evenodd" clip-rule="evenodd" d="M78.7383 62.9824C83.8542 62.9824 88.0014 58.8351 88.0014 53.7192C88.0014 48.6033 83.8542 44.4561 78.7383 44.4561V48.4561C81.645 48.4561 84.0014 50.8125 84.0014 53.7192C84.0014 56.626 81.645 58.9824 78.7383 58.9824V62.9824Z" fill="#6F3A80"/>
<path d="M16.2109 35.9649V27C16.2109 13.1929 27.4038 2 41.2109 2H46.7899C60.597 2 71.7899 13.1929 71.7899 27V35.9649" stroke="#6F3A80" stroke-width="4"/>
<path d="M16.2109 72L16.2109 72.2807C16.2109 84.6441 26.2335 94.6666 38.5969 94.6666V94.6666" stroke="#6F3A80" stroke-width="4"/>
<rect x="38.5966" y="93.1228" width="12.3509" height="3.08772" rx="1.54386" stroke="#6F3A80" stroke-width="3.08772"/>
</svg>
