<svg width="176" height="176" viewBox="0 0 176 176" fill="none" xmlns="http://www.w3.org/2000/svg">
<path d="M150.504 0H25.4961C24.0719 0 22.918 1.15431 22.918 2.57812V125.043C22.918 126.466 24.0719 127.621 25.4961 127.621C26.9202 127.621 28.0742 126.466 28.0742 125.043V5.15625H147.926V21.3641C147.926 22.7879 149.08 23.9422 150.504 23.9422C151.928 23.9422 153.082 22.7879 153.082 21.3641V2.57812C153.082 1.15431 151.928 0 150.504 0V0Z" fill="#6F3A80"/>
<path d="M150.504 30.8173C149.08 30.8173 147.926 31.9716 147.926 33.3954V170.844H28.0742V137.074C28.0742 135.65 26.9202 134.496 25.4961 134.496C24.0719 134.496 22.918 135.65 22.918 137.074V173.422C22.918 174.846 24.0719 176 25.4961 176H150.504C151.928 176 153.082 174.846 153.082 173.422V33.3954C153.082 31.9716 151.928 30.8173 150.504 30.8173Z" fill="#6F3A80"/>
<path d="M34.0312 53.6229C34.0312 64.6181 42.9763 73.5632 53.9715 73.5632C64.9667 73.5632 73.9117 64.6181 73.9117 53.6229C73.9117 42.6277 64.9667 33.6827 53.9715 33.6827C42.9763 33.6827 34.0312 42.6277 34.0312 53.6229ZM53.9715 68.4069C45.8195 68.4069 39.1875 61.775 39.1875 53.6229C39.1875 46.3506 44.4668 40.2923 51.3934 39.0686V53.6229C51.3934 55.0467 52.5473 56.2011 53.9715 56.2011H68.5259C67.3018 63.1276 61.2439 68.4069 53.9715 68.4069ZM68.5259 51.0448H56.5496V39.0686C62.6381 40.1445 67.4499 44.9563 68.5259 51.0448Z" fill="#6F3A80"/>
<path d="M37.9961 148.62C36.5719 148.62 35.418 149.775 35.418 151.198V162.31C35.418 163.734 36.5719 164.888 37.9961 164.888H54.6638C56.088 164.888 57.242 163.734 57.242 162.31V151.198C57.242 149.775 56.088 148.62 54.6638 148.62H37.9961ZM52.0857 159.732H40.5742V153.776H52.0857V159.732Z" fill="#6F3A80"/>
<path d="M65.7773 164.888H82.4447C83.8689 164.888 85.0229 163.734 85.0229 162.31V134.531C85.0229 133.107 83.8689 131.953 82.4447 131.953H65.7773C64.3532 131.953 63.1992 133.107 63.1992 134.531V162.31C63.1992 163.734 64.3532 164.888 65.7773 164.888ZM68.3555 137.109H79.8666V159.732H68.3555V137.109Z" fill="#6F3A80"/>
<path d="M93.5547 111.118C92.1305 111.118 90.9766 112.272 90.9766 113.696V162.31C90.9766 163.734 92.1305 164.888 93.5547 164.888H110.222C111.646 164.888 112.8 163.734 112.8 162.31V113.696C112.8 112.272 111.646 111.118 110.222 111.118H93.5547ZM107.644 159.732H96.1328V116.274H107.644V159.732Z" fill="#6F3A80"/>
<path d="M138.001 111.478C139.425 111.478 140.579 110.324 140.579 108.9V99.8077C140.579 98.3839 139.425 97.2296 138.001 97.2296H121.336C119.912 97.2296 118.758 98.3839 118.758 99.8077V162.308C118.758 163.732 119.912 164.886 121.336 164.886H138.001C139.425 164.886 140.579 163.732 140.579 162.308V120.931C140.579 119.507 139.425 118.353 138.001 118.353C136.576 118.353 135.422 119.507 135.422 120.931V159.73H123.914V102.386H135.422V108.9C135.423 110.324 136.577 111.478 138.001 111.478Z" fill="#6F3A80"/>
<path d="M115.778 11.1117H60.2187C58.7946 11.1117 57.6406 12.266 57.6406 13.6898V24.8015C57.6406 26.2254 58.7946 27.3797 60.2187 27.3797H115.778C117.202 27.3797 118.356 26.2254 118.356 24.8015V13.6898C118.356 12.266 117.202 11.1117 115.778 11.1117ZM113.2 22.2234H62.7969V16.2679H113.2V22.2234H113.2Z" fill="#6F3A80"/>
<path d="M139.392 33.6827H88C86.5758 33.6827 85.4219 34.837 85.4219 36.2608C85.4219 37.6846 86.5758 38.8389 88 38.8389H139.392C140.816 38.8389 141.97 37.6846 141.97 36.2608C141.97 34.837 140.816 33.6827 139.392 33.6827Z" fill="#6F3A80"/>
<path d="M139.392 45.2574H88C86.5758 45.2574 85.4219 46.4118 85.4219 47.8356C85.4219 49.2594 86.5758 50.4137 88 50.4137H139.392C140.816 50.4137 141.97 49.2594 141.97 47.8356C141.97 46.4118 140.816 45.2574 139.392 45.2574Z" fill="#6F3A80"/>
<path d="M141.97 59.4103C141.97 57.9865 140.816 56.8322 139.392 56.8322H88C86.5758 56.8322 85.4219 57.9865 85.4219 59.4103C85.4219 60.8341 86.5758 61.9884 88 61.9884H139.392C140.816 61.9884 141.97 60.8341 141.97 59.4103Z" fill="#6F3A80"/>
<path d="M121.136 70.9851C121.136 69.5613 119.982 68.407 118.558 68.407H88C86.5758 68.407 85.4219 69.5613 85.4219 70.9851C85.4219 72.4089 86.5758 73.5632 88 73.5632H118.558C119.981 73.5632 121.136 72.4089 121.136 70.9851Z" fill="#6F3A80"/>
<path d="M87.999 85.4219H41.1211C39.6969 85.4219 38.543 86.5762 38.543 88C38.543 89.4238 39.6969 90.5781 41.1211 90.5781H87.999C89.4231 90.5781 90.5771 89.4238 90.5771 88C90.5771 86.5762 89.4231 85.4219 87.999 85.4219Z" fill="#6F3A80"/>
<path d="M90.5771 99.5748C90.5771 98.151 89.4231 96.9967 87.999 96.9967H41.1211C39.6969 96.9967 38.543 98.151 38.543 99.5748C38.543 100.999 39.6969 102.153 41.1211 102.153H87.999C89.4231 102.153 90.5771 100.999 90.5771 99.5748Z" fill="#6F3A80"/>
<path d="M69.7428 111.15C69.7428 109.726 68.5888 108.571 67.1646 108.571H41.1211C39.6969 108.571 38.543 109.726 38.543 111.15C38.543 112.573 39.6969 113.728 41.1211 113.728H67.1646C68.5884 113.728 69.7428 112.573 69.7428 111.15Z" fill="#6F3A80"/>
</svg>
