<svg width="186" height="186" viewBox="0 0 186 186" fill="none" xmlns="http://www.w3.org/2000/svg">
<g clip-path="url(#clip0)">
<path d="M125.046 100.54L109.213 93.5033C108.095 93.0064 107.373 91.8943 107.373 90.6708V86.323C112.691 82.0854 116.11 75.5597 116.11 68.2469V62.1266C117.862 61.1585 119.022 59.2876 119.022 57.1922V56.5982C119.022 43.8557 108.655 33.4888 95.9123 33.4888H90.0881C77.3457 33.4888 66.9787 43.8557 66.9787 56.5982V61.9875C66.9787 63.8294 67.7714 65.4979 69.1529 66.5656C69.3872 66.7465 69.6339 66.9056 69.8907 67.0433V68.2465C69.8907 75.5594 73.3089 82.085 78.6269 86.3223V90.6704C78.6269 91.894 77.9044 93.006 76.7862 93.503L60.9536 100.54C55.7685 102.844 52.418 108 52.418 113.674V149.786C52.418 151.29 53.6379 152.51 55.1426 152.51C56.6473 152.51 57.8672 151.29 57.8672 149.786V113.674C57.8672 113.358 57.8897 113.046 57.9224 112.737L65.2178 120.032C66.3531 121.168 66.9787 122.677 66.9787 124.283V149.786C66.9787 151.291 68.1986 152.51 69.7033 152.51C71.208 152.51 72.4279 151.291 72.4279 149.786V124.283C72.4279 121.222 71.236 118.344 69.0712 116.179L60.3738 107.482C61.1574 106.669 62.0976 105.995 63.1671 105.519L78.7327 98.6012L90.276 110.145V149.786C90.276 151.29 91.4958 152.51 93.0006 152.51C94.5053 152.51 95.7252 151.29 95.7252 149.786V110.145L107.268 98.6016L122.834 105.519C123.903 105.995 124.843 106.669 125.627 107.482L116.93 116.179C114.765 118.344 113.573 121.222 113.573 124.283V149.786C113.573 151.291 114.793 152.51 116.297 152.51C117.802 152.51 119.022 151.291 119.022 149.786V124.283C119.022 122.678 119.647 121.168 120.783 120.032L128.078 112.737C128.111 113.047 128.133 113.358 128.133 113.674V149.786C128.133 151.29 129.353 152.51 130.858 152.51C132.363 152.51 133.582 151.29 133.582 149.786V113.674C133.581 108 130.231 102.844 125.046 100.54ZM92.9995 105.163L82.8708 95.0342C83.641 93.7384 84.0758 92.2391 84.0758 90.6708V89.5621C86.8233 90.7166 89.8382 91.3563 92.9998 91.3563C96.1615 91.3563 99.176 90.7169 101.923 89.5624V90.6708C101.923 92.2395 102.358 93.7384 103.129 95.0346L92.9995 105.163ZM92.9998 85.9067C83.2621 85.9071 75.3396 77.9846 75.3396 68.2469V67.0215C77.0398 66.3476 78.6992 65.2752 80.2879 63.8094C81.3933 62.7889 81.4627 61.0651 80.4419 59.9593C79.4214 58.8538 77.698 58.7845 76.5918 59.8049C75.2292 61.063 73.8676 61.8756 72.546 62.2207C72.514 62.2291 72.4904 62.2327 72.4737 62.2342C72.4541 62.196 72.4275 62.1161 72.4275 61.9879V56.5986C72.4275 46.8608 80.35 38.9384 90.0878 38.9384H95.9119C105.65 38.9384 113.572 46.8608 113.572 56.5986V57.1926C113.572 57.2808 113.519 57.3575 113.449 57.3713C97.134 60.5936 88.9507 54.5206 86.1898 51.7597C85.1257 50.6956 83.4005 50.6956 82.3368 51.7597C81.2727 52.8237 81.2727 54.549 82.3368 55.6126C90.7976 64.0735 103.144 64.2261 110.66 63.3229V68.2465C110.66 77.9843 102.738 85.9067 92.9998 85.9067Z" fill="#6F3A80"/>
<path d="M49.131 85.7204V79.8952C49.131 72.7872 45.4371 66.53 39.8713 62.9292C40.2149 61.8266 40.3944 60.6717 40.3944 59.5103C40.3944 53.1907 35.2532 48.0495 28.9336 48.0495C22.6139 48.0495 17.4728 53.191 17.4728 59.5103C17.4728 60.6863 17.6508 61.8299 17.9952 62.9299C12.4297 66.5304 8.7362 72.7875 8.7362 79.8952V85.7193C8.7362 92.6024 12.1994 98.6888 17.4724 102.337V108.328C17.4724 109.51 16.816 110.572 15.7592 111.101L6.33527 115.813C2.42745 117.767 0 121.695 0 126.064V149.786C0 151.291 1.2199 152.511 2.72461 152.511C4.22933 152.511 5.44923 151.291 5.44923 149.786V127.243L9.88781 131.681C11.0231 132.817 11.6486 134.326 11.6486 135.932V149.786C11.6486 151.291 12.8685 152.511 14.3732 152.511C15.878 152.511 17.0979 151.291 17.0979 149.786V135.932C17.0979 132.871 15.9056 129.993 13.7411 127.828L7.56353 121.651C7.53374 121.621 7.50177 121.595 7.47126 121.567C7.85888 121.225 8.29373 120.927 8.77253 120.687L18.1964 115.976C18.6792 115.734 19.1286 115.449 19.5475 115.132L26.209 121.794V149.787C26.209 151.291 27.4289 152.511 28.9336 152.511C30.4383 152.511 31.6582 151.291 31.6582 149.787V121.794L38.3201 115.132C38.7393 115.449 39.1883 115.734 39.6711 115.975L42.2697 117.275C42.6609 117.47 43.0765 117.563 43.4863 117.563C44.4857 117.563 45.448 117.011 45.9254 116.057C46.5985 114.711 46.0529 113.074 44.7069 112.401L42.1084 111.102C41.0512 110.573 40.3948 109.511 40.3948 108.33V102.338C45.6678 98.6899 49.131 92.6031 49.131 85.7204ZM28.9336 53.4987C32.2485 53.4987 34.9452 56.1957 34.9452 59.5103C34.9452 59.8754 34.9125 60.2332 34.85 60.5838C32.9776 60.0091 30.9916 59.6978 28.9336 59.6978C26.8785 59.6978 24.895 60.008 23.0255 60.5813C22.9627 60.2307 22.922 59.8747 22.922 59.5103C22.922 56.1954 25.6186 53.4987 28.9336 53.4987ZM28.9336 65.1474C37.0657 65.1474 43.6817 71.7635 43.6817 79.8955V80.8829C32.3383 84.3559 25.578 75.7269 25.2891 75.3487C24.8151 74.7169 24.0903 74.3217 23.3027 74.2657C22.5151 74.2105 21.7413 74.4986 21.183 75.057C18.5822 77.6577 16.0349 78.9121 14.1952 79.5177C14.3969 71.5596 20.9283 65.1474 28.9336 65.1474ZM28.9336 116.812L22.6376 110.515C22.8214 109.813 22.922 109.08 22.922 108.329V105.003C24.8216 105.597 26.8411 105.917 28.9336 105.917C31.0261 105.917 33.0456 105.597 34.9452 105.003V108.329C34.9452 109.08 35.0458 109.813 35.2296 110.515L28.9336 116.812ZM28.9336 100.467C20.8015 100.467 14.1854 93.8513 14.1854 85.7193V85.1548C16.3582 84.6556 19.5798 83.4956 22.9405 80.7928C24.1295 81.9146 25.829 83.2907 27.9931 84.4711C30.5527 85.8671 34.0878 87.1586 38.4058 87.1586C40.0467 87.1586 41.8025 86.9679 43.6585 86.5298C43.236 94.2866 36.7936 100.467 28.9336 100.467Z" fill="#6F3A80"/>
<path d="M179.667 109.989L164.419 102.365C163.362 101.836 162.705 100.774 162.705 99.5927V95.7314C166.275 92.5625 168.53 87.9444 168.53 82.8076V79.7063C168.592 79.7063 168.654 79.7081 168.717 79.7081C170.222 79.7081 171.442 78.4882 171.442 76.9835V71.1593C171.442 61.6283 163.687 53.874 154.156 53.874H148.332C138.801 53.874 131.047 61.6283 131.047 71.1593V76.9835C131.047 78.4882 132.267 79.7081 133.771 79.7081C133.794 79.7081 133.859 79.7074 133.959 79.7034V82.8076C133.959 87.9448 136.214 92.5628 139.783 95.7317V99.5931C139.783 100.775 139.127 101.837 138.07 102.365C136.724 103.038 136.178 104.675 136.851 106.021C137.329 106.975 138.291 107.528 139.29 107.528C139.7 107.528 140.115 107.435 140.507 107.239C140.99 106.998 141.439 106.713 141.858 106.396L148.52 113.058V149.787C148.52 151.291 149.74 152.511 151.244 152.511C152.749 152.511 153.969 151.291 153.969 149.787V113.057L160.63 106.395C161.05 106.712 161.499 106.997 161.981 107.239L176.736 114.616L172.261 119.091C170.096 121.256 168.904 124.134 168.904 127.196V149.786C168.904 151.291 170.124 152.511 171.629 152.511C173.133 152.511 174.353 151.291 174.353 149.786V127.196C174.353 125.59 174.979 124.08 176.114 122.944L180.353 118.705C180.482 119.198 180.552 119.712 180.552 120.24V149.786C180.552 151.291 181.772 152.511 183.277 152.511C184.782 152.511 186.002 151.291 186.002 149.786V120.24C186.002 115.871 183.575 111.943 179.667 109.989ZM136.496 73.6983V71.159H136.496C136.496 64.6326 141.806 59.3229 148.332 59.3229H154.156C160.683 59.3229 165.992 64.6326 165.992 71.159V74.1855C154.148 73.5465 147.001 68.9375 146.931 68.8921C146.47 68.5848 145.944 68.4344 145.421 68.4344C144.718 68.4344 144.02 68.7061 143.493 69.2325C140.886 71.8394 138.332 73.0942 136.496 73.6983ZM151.244 108.075L144.948 101.779C145.132 101.077 145.233 100.344 145.233 99.5927V99.0125C147.106 99.7097 149.131 100.093 151.244 100.093C153.357 100.093 155.383 99.7097 157.256 99.0125V99.5927C157.256 100.344 157.356 101.077 157.54 101.779L151.244 108.075ZM151.244 94.6437C144.718 94.6437 139.408 89.3343 139.408 82.8076V78.4152C141.316 77.6526 143.54 76.4404 145.802 74.5128C148.663 76.0015 154.65 78.5747 163.08 79.4247V82.8076C163.08 89.334 157.771 94.6437 151.244 94.6437Z" fill="#6F3A80"/>
</g>
<defs>
<clipPath id="clip0">
<rect width="186" height="186" fill="white"/>
</clipPath>
</defs>
</svg>
