<svg width="186" height="186" viewBox="0 0 186 186" fill="none" xmlns="http://www.w3.org/2000/svg">
<path d="M150.948 162L144.003 141.162C141.576 133.887 135.384 128.517 127.836 127.143L107.787 123.495V121.941C111.276 119.916 114.312 117.207 116.73 114H122.787C127.749 114 131.787 109.962 131.787 105V69C131.787 47.496 114.291 30 92.7867 30C71.2827 30 53.7867 47.496 53.7867 69V90C53.7867 95.784 57.8997 100.623 63.3537 101.751C65.0367 110.373 70.4247 117.669 77.7867 121.941V123.495L57.7347 127.143C50.1897 128.517 43.9947 133.887 41.5707 141.162L40.3707 144.765L30.1527 134.547C28.9827 133.377 28.9827 131.472 30.1527 130.302L42.0027 118.455L19.7607 96.213L6.36875 109.605C2.40275 113.571 0.21875 118.845 0.21875 124.455C0.21875 130.065 2.40275 135.336 6.36875 139.302L46.9137 179.847C50.8797 183.813 56.1537 186 61.7637 186C67.3737 186 72.6447 183.813 76.5177 179.937L91.1307 166.548L86.5737 162H150.948ZM125.787 105C125.787 106.656 124.44 108 122.787 108H120.264C121.134 106.017 121.794 103.926 122.22 101.751C123.504 101.484 124.686 100.974 125.787 100.332V105ZM122.787 95.166V84.834C124.572 85.875 125.787 87.789 125.787 90C125.787 92.211 124.572 94.125 122.787 95.166ZM62.7867 95.166C61.0017 94.125 59.7867 92.211 59.7867 90C59.7867 87.789 61.0017 85.875 62.7867 84.834V95.166ZM62.7867 75V78.426C61.7187 78.705 60.7167 79.125 59.7867 79.668V69C59.7867 50.805 74.5917 36 92.7867 36C110.982 36 125.787 50.805 125.787 69V79.668C124.857 79.125 123.855 78.702 122.787 78.426V75H119.787C110.916 75 102.576 71.544 96.2997 65.271L92.7867 61.758L89.2737 65.271C82.9977 71.544 74.6577 75 65.7867 75H62.7867ZM68.7867 96V80.886C77.7957 80.208 86.1957 76.491 92.7867 70.224C99.3777 76.491 107.778 80.211 116.787 80.886V96C116.787 100.374 115.593 104.466 113.541 108H92.7867V114H108.609C104.379 117.723 98.8497 120 92.7867 120C79.5537 120 68.7867 109.233 68.7867 96ZM101.787 124.617V124.758L92.7867 133.758L83.7867 124.758V124.617C86.6307 125.511 89.6517 126 92.7867 126C95.9217 126 98.9427 125.511 101.787 124.617ZM47.2587 143.058C48.9897 137.862 53.4147 134.025 58.8057 133.041L79.7757 129.231L92.7867 142.242L105.795 129.234L126.762 133.044C132.153 134.028 136.578 137.862 138.309 143.061L142.626 156H80.5737L68.8887 144.315L55.9047 156.06C54.7737 157.197 52.7967 157.197 51.6627 156.06L45.1107 149.508L47.2587 143.058ZM19.7577 104.697L33.5157 118.455L30.2577 121.713L16.4997 107.955L19.7577 104.697ZM72.3627 175.611C69.5307 178.437 65.7627 180 61.7577 180C57.7527 180 53.9847 178.437 51.1497 175.605L10.6047 135.063C7.77275 132.231 6.21275 128.463 6.21275 124.458C6.21275 120.45 7.77275 116.682 10.6047 113.85L12.2547 112.2L26.0127 125.958L25.9047 126.066C22.3977 129.576 22.3977 135.285 25.9047 138.795L47.4177 160.308C49.1187 162.006 51.3777 162.945 53.7837 162.945C56.1897 162.945 58.4487 162.009 60.0387 160.413L60.2637 160.212L74.0847 174.033L72.3627 175.611ZM78.5127 169.971L64.7217 156.18L68.6847 152.598L82.4517 166.365L78.5127 169.971Z" fill="#6F3A80"/>
<path d="M176.785 0H134.785C129.823 0 125.785 4.038 125.785 9V33C125.785 37.962 129.823 42 134.785 42H142.798L139.696 60.093L168.646 42H176.785C181.747 42 185.785 37.962 185.785 33V9C185.785 4.038 181.747 0 176.785 0ZM179.785 33C179.785 34.653 178.438 36 176.785 36H166.924L147.871 47.907L149.914 36H134.785C133.132 36 131.785 34.653 131.785 33V9C131.785 7.347 133.132 6 134.785 6H176.785C178.438 6 179.785 7.347 179.785 9V33Z" fill="#6F3A80"/>
<path d="M173.785 12H137.785V18H173.785V12Z" fill="#6F3A80"/>
<path d="M161.785 24H137.785V30H161.785V24Z" fill="#6F3A80"/>
<path d="M173.785 24H167.785V30H173.785V24Z" fill="#6F3A80"/>
<path d="M92.7858 9C53.5878 9 19.8228 36.114 11.0448 73.935L5.35984 64.458L0.214844 67.545L10.7598 85.116L28.3308 74.571L25.2438 69.426L17.1138 74.304C25.6158 39.705 56.7288 15 92.7858 15C100.667 15 108.443 16.17 115.898 18.48L117.674 12.75C109.643 10.26 101.27 9 92.7858 9Z" fill="#6F3A80"/>
<path d="M184.326 66.426L166.755 55.881L156.213 73.455L161.358 76.542L166.608 67.791C169.371 75.876 170.784 84.333 170.784 93C170.784 110.841 164.604 128.283 153.387 142.11L158.046 145.89C170.13 130.998 176.784 112.212 176.784 93C176.784 83.823 175.305 74.862 172.422 66.282L181.239 71.571L184.326 66.426Z" fill="#6F3A80"/>
</svg>
