<svg width="50" height="50" viewBox="0 0 50 50" fill="none" xmlns="http://www.w3.org/2000/svg">
<g clip-path="url(#clip0)">
<path d="M48.0711 27.8734C48.3241 27.3971 48.1432 26.8059 47.6669 26.5528C42.195 23.645 35.5199 24.3423 30.7781 28.2389L29.2003 26.6611L31.7771 24.0842C32.1585 23.7029 32.1585 23.0845 31.7771 22.7031C31.3957 22.3217 30.7775 22.3217 30.396 22.7031L27.8191 25.2799L21.5319 18.9927C22.962 17.0749 23.8617 14.8221 24.1454 12.4234C24.4723 9.65819 23.9521 6.89219 22.6407 4.42471C22.3877 3.94845 21.7963 3.76759 21.3201 4.02061C20.8439 4.27374 20.663 4.86495 20.916 5.34122C23.0193 9.29921 22.6901 13.999 20.1341 17.5949L15.9909 13.4516C15.4095 12.8703 14.5831 12.6291 13.7802 12.8059C12.9773 12.983 12.3291 13.5495 12.046 14.3215L0.149608 46.7756C-0.175293 47.662 0.0374996 48.6275 0.705173 49.295C1.16621 49.7561 1.76904 50.0002 2.39003 50.0002C2.66835 50.0002 2.95028 49.9511 3.2246 49.8506L35.6786 37.9541C36.4505 37.6712 37.017 37.0228 37.1942 36.22C37.3711 35.4171 37.1298 34.5907 36.5485 34.0094L32.1676 29.6284C36.2939 26.3361 42.0342 25.7713 46.7505 28.2776C47.2267 28.5307 47.8179 28.3496 48.0711 27.8734ZM15.5542 43.2507L6.74948 34.446L9.18912 27.7906L22.2096 40.8111L15.5542 43.2507ZM10.7821 45L5.00017 39.2181L6.00857 36.4673L13.533 43.9916L10.7821 45ZM2.55233 48.0167C2.32089 48.1016 2.16103 47.9887 2.08612 47.914C2.01132 47.8392 1.89853 47.6792 1.98339 47.4479L4.25916 41.2394L8.76071 45.741L2.55233 48.0167ZM35.2869 35.7994C35.2673 35.888 35.2049 36.0474 35.0065 36.1202L29.0029 38.3209L23.4485 32.7664C23.0672 32.385 22.4488 32.3851 22.0675 32.7663C21.6861 33.1476 21.686 33.766 22.0674 34.1474L26.9816 39.0617L24.2308 40.0701L9.93004 25.7694L10.9384 23.0185L15.8528 27.9327C16.0434 28.1235 16.2934 28.2188 16.5433 28.2188C16.7932 28.2188 17.0432 28.1234 17.2338 27.9327C17.6152 27.5514 17.6152 26.933 17.2337 26.5517L11.6793 20.9973L13.88 14.9937C13.9528 14.7953 14.1122 14.7329 14.2009 14.7132C14.2279 14.7073 14.2625 14.7022 14.3019 14.7022C14.3916 14.7022 14.506 14.7288 14.6099 14.8328L35.1674 35.3903C35.3169 35.5398 35.3064 35.7108 35.2869 35.7994Z" fill="white"/>
<path d="M29.4531 7.79331C29.9925 7.79331 30.4297 7.3561 30.4297 6.81675C30.4297 5.99888 31.0951 5.33354 31.913 5.33354C33.8077 5.33354 35.3493 3.79204 35.3493 1.89722C35.3493 1.35786 34.912 0.920654 34.3728 0.920654C33.8335 0.920654 33.3962 1.35786 33.3962 1.89722C33.3962 2.71509 32.7308 3.38042 31.913 3.38042C30.0182 3.38042 28.4766 4.92192 28.4766 6.81675C28.4766 7.3561 28.9139 7.79331 29.4531 7.79331Z" fill="white"/>
<path d="M38.1172 17.0112C40.0741 17.0112 41.6662 15.4191 41.6662 13.4623C41.6662 12.5824 42.382 11.8665 43.262 11.8665C43.8013 11.8665 44.2386 11.4292 44.2386 10.8899C44.2386 10.3505 43.8013 9.91333 43.262 9.91333C41.3052 9.91333 39.7131 11.5054 39.7131 13.4623C39.7131 14.3421 38.9972 15.0581 38.1172 15.0581C37.5779 15.0581 37.1406 15.4953 37.1406 16.0346C37.1406 16.574 37.5779 17.0112 38.1172 17.0112Z" fill="white"/>
<path d="M43.75 18.895C43.75 20.6182 45.1519 22.02 46.875 22.02C48.5981 22.02 50 20.6182 50 18.895C50 17.1719 48.5981 15.77 46.875 15.77C45.1519 15.77 43.75 17.1719 43.75 18.895ZM46.875 17.7231C47.5212 17.7231 48.0469 18.2488 48.0469 18.895C48.0469 19.5412 47.5212 20.0669 46.875 20.0669C46.2288 20.0669 45.7031 19.5412 45.7031 18.895C45.7031 18.2488 46.2288 17.7231 46.875 17.7231Z" fill="white"/>
<path d="M30.7734 16.5874C32.4966 16.5874 33.8984 15.1856 33.8984 13.4624C33.8984 11.7393 32.4966 10.3374 30.7734 10.3374C29.0503 10.3374 27.6484 11.7393 27.6484 13.4624C27.6484 15.1856 29.0504 16.5874 30.7734 16.5874ZM30.7734 12.2905C31.4196 12.2905 31.9453 12.8162 31.9453 13.4624C31.9453 14.1086 31.4196 14.6343 30.7734 14.6343C30.1272 14.6343 29.6016 14.1086 29.6016 13.4624C29.6016 12.8162 30.1272 12.2905 30.7734 12.2905Z" fill="white"/>
<path d="M12.5 6.25C14.2231 6.25 15.625 4.84814 15.625 3.125C15.625 1.40186 14.2231 0 12.5 0C10.7769 0 9.375 1.40186 9.375 3.125C9.375 4.84814 10.7769 6.25 12.5 6.25ZM12.5 1.95312C13.1462 1.95312 13.6719 2.47881 13.6719 3.125C13.6719 3.77119 13.1462 4.29688 12.5 4.29688C11.8538 4.29688 11.3281 3.77119 11.3281 3.125C11.3281 2.47881 11.8538 1.95312 12.5 1.95312Z" fill="white"/>
<path d="M44.1906 34.2828C43.8093 33.9015 43.1912 33.9015 42.8094 34.2827C42.4281 34.6641 42.4281 35.2825 42.8094 35.6638L43.7301 36.5845C43.9209 36.7752 44.1708 36.8705 44.4207 36.8705C44.6706 36.8705 44.9205 36.7751 45.1112 36.5845C45.4925 36.2032 45.4925 35.5848 45.1112 35.2034L44.1906 34.2828Z" fill="white"/>
<path d="M48.7922 38.8866C48.4107 38.5052 47.7926 38.5052 47.411 38.8866C47.0297 39.2679 47.0297 39.8863 47.411 40.2678L48.3317 41.1885C48.5224 41.3792 48.7723 41.4745 49.0222 41.4745C49.2721 41.4745 49.522 41.3792 49.7128 41.1885C50.0941 40.8071 50.0941 40.1888 49.7128 39.8073L48.7922 38.8866Z" fill="white"/>
<path d="M48.3317 34.2829L47.411 35.2036C47.0297 35.5849 47.0297 36.2033 47.411 36.5846C47.6017 36.7753 47.8516 36.8707 48.1015 36.8707C48.3514 36.8707 48.6014 36.7752 48.7921 36.5846L49.7128 35.6639C50.0941 35.2826 50.0941 34.6642 49.7128 34.2829C49.3314 33.9014 48.7131 33.9015 48.3317 34.2829Z" fill="white"/>
<path d="M43.7301 38.8866L42.8094 39.8073C42.4281 40.1887 42.4281 40.807 42.8094 41.1885C43.0002 41.3792 43.2501 41.4745 43.5 41.4745C43.75 41.4745 43.9998 41.3792 44.1905 41.1885L45.1112 40.2678C45.4925 39.8864 45.4925 39.268 45.1112 38.8866C44.7298 38.5052 44.1116 38.5052 43.7301 38.8866Z" fill="white"/>
<path d="M48.1016 2.8738C48.3515 2.8738 48.6015 2.77849 48.7922 2.58777L49.7129 1.66707C50.0942 1.28572 50.0942 0.667358 49.7129 0.286011C49.3314 -0.0953369 48.7131 -0.0953369 48.3317 0.286011L47.411 1.20671C47.0297 1.58806 47.0297 2.20642 47.411 2.58777C47.6018 2.77849 47.8516 2.8738 48.1016 2.8738Z" fill="white"/>
<path d="M43.5001 7.47717C43.7501 7.47717 43.9999 7.38186 44.1906 7.19114L45.1113 6.27043C45.4926 5.88909 45.4926 5.27073 45.1113 4.88928C44.7298 4.50793 44.1117 4.50793 43.7301 4.88928L42.8094 5.80999C42.4281 6.19133 42.4281 6.80969 42.8094 7.19114C43.0003 7.38186 43.2502 7.47717 43.5001 7.47717Z" fill="white"/>
<path d="M48.7922 4.88953C48.4107 4.50818 47.7926 4.50818 47.411 4.88953C47.0297 5.27087 47.0297 5.88923 47.411 6.27068L48.3317 7.19138C48.5224 7.3821 48.7723 7.47742 49.0222 7.47742C49.2721 7.47742 49.522 7.3821 49.7128 7.19138C50.0941 6.81003 50.0941 6.19167 49.7128 5.81023L48.7922 4.88953Z" fill="white"/>
<path d="M43.7302 2.58777C43.921 2.77849 44.1709 2.8738 44.4208 2.8738C44.6707 2.8738 44.9206 2.77849 45.1113 2.58777C45.4926 2.20642 45.4926 1.58806 45.1113 1.20671L44.1906 0.286011C43.8093 -0.0953369 43.1912 -0.0953369 42.8094 0.286011C42.4281 0.667358 42.4281 1.28572 42.8094 1.66707L43.7302 2.58777Z" fill="white"/>
<path d="M19.6484 29.373C19.3916 29.373 19.1396 29.4775 18.958 29.6592C18.7764 29.8408 18.6719 30.0928 18.6719 30.3496C18.6719 30.6064 18.7764 30.8584 18.958 31.04C19.1396 31.2217 19.3916 31.3262 19.6484 31.3262C19.9053 31.3262 20.1572 31.2217 20.3389 31.04C20.5205 30.8584 20.625 30.6064 20.625 30.3496C20.625 30.0928 20.5205 29.8408 20.3389 29.6592C20.1572 29.4775 19.9053 29.373 19.6484 29.373Z" fill="white"/>
<path d="M33.9003 19.2006L33.1923 19.9086C32.8109 20.2899 32.8109 20.9083 33.1923 21.2897C33.383 21.4804 33.6329 21.5758 33.8828 21.5758C34.1327 21.5758 34.3826 21.4804 34.5733 21.2897L35.2813 20.5817C35.6627 20.2004 35.6627 19.582 35.2813 19.2006C34.8999 18.8192 34.2817 18.8192 33.9003 19.2006Z" fill="white"/>
</g>
<defs>
<clipPath id="clip0">
<rect width="50" height="50" fill="white"/>
</clipPath>
</defs>
</svg>
