<svg width="50" height="50" viewBox="0 0 50 50" fill="none" xmlns="http://www.w3.org/2000/svg">
<path d="M34.2344 15.6328C34.0759 15.1746 33.7785 14.7771 33.3837 14.4957C32.9889 14.2142 32.5161 14.0628 32.0312 14.0625H31.25V12.5H32.0312C32.6523 12.4981 33.2473 12.2506 33.6865 11.8115C34.1256 11.3723 34.3731 10.7773 34.375 10.1562V3.90625C34.3731 3.28522 34.1256 2.69015 33.6865 2.25102C33.2473 1.81188 32.6523 1.56435 32.0312 1.5625H3.90625C3.28522 1.56435 2.69015 1.81188 2.25102 2.25102C1.81188 2.69015 1.56435 3.28522 1.5625 3.90625V10.1562C1.56435 10.7773 1.81188 11.3723 2.25102 11.8115C2.69015 12.2506 3.28522 12.4981 3.90625 12.5H4.6875V14.0625H3.90625C3.28522 14.0644 2.69015 14.3119 2.25102 14.751C1.81188 15.1902 1.56435 15.7852 1.5625 16.4062V22.6562C1.56435 23.2773 1.81188 23.8723 2.25102 24.3115C2.69015 24.7506 3.28522 24.9981 3.90625 25H4.6875V26.5625H3.90625C3.28522 26.5644 2.69015 26.8119 2.25102 27.251C1.81188 27.6902 1.56435 28.2852 1.5625 28.9062V35.1562C1.56435 35.7773 1.81188 36.3723 2.25102 36.8115C2.69015 37.2506 3.28522 37.4981 3.90625 37.5H18.75V43.75C18.75 46.8281 26.2188 48.4375 33.5938 48.4375C40.9688 48.4375 48.4375 46.8281 48.4375 43.75V20.3125C48.4375 17.3203 41.3984 15.7266 34.2344 15.6328ZM3.90625 10.9375C3.69905 10.9375 3.50034 10.8552 3.35382 10.7087C3.20731 10.5622 3.125 10.3635 3.125 10.1562V3.90625C3.125 3.69905 3.20731 3.50034 3.35382 3.35382C3.50034 3.20731 3.69905 3.125 3.90625 3.125H32.0312C32.2385 3.125 32.4372 3.20731 32.5837 3.35382C32.7302 3.50034 32.8125 3.69905 32.8125 3.90625V10.1562C32.8125 10.3635 32.7302 10.5622 32.5837 10.7087C32.4372 10.8552 32.2385 10.9375 32.0312 10.9375H3.90625ZM29.6875 12.5V14.0625H26.5625V12.5H29.6875ZM25 12.5V14.0625H10.9375V12.5H25ZM9.375 12.5V14.0625H6.25V12.5H9.375ZM18.75 35.9375H3.90625C3.69905 35.9375 3.50034 35.8552 3.35382 35.7087C3.20731 35.5622 3.125 35.3634 3.125 35.1562V28.9062C3.125 28.699 3.20731 28.5003 3.35382 28.3538C3.50034 28.2073 3.69905 28.125 3.90625 28.125H18.75V35.9375ZM6.25 26.5625V25H9.375V26.5625H6.25ZM18.75 26.5625H10.9375V25H18.75V26.5625ZM18.75 20.3125V23.4375H3.90625C3.69905 23.4375 3.50034 23.3552 3.35382 23.2087C3.20731 23.0622 3.125 22.8635 3.125 22.6562V16.4062C3.125 16.199 3.20731 16.0003 3.35382 15.8538C3.50034 15.7073 3.69905 15.625 3.90625 15.625H32.0312C32.0684 15.6291 32.1051 15.6369 32.1406 15.6484C25.2656 15.8438 18.75 17.4375 18.75 20.3125ZM46.875 43.75C46.875 44.8125 42.1875 46.875 33.5938 46.875C25 46.875 20.3125 44.8125 20.3125 43.75V38.1406C22.8828 39.7734 28.25 40.625 33.5938 40.625C38.9375 40.625 44.3047 39.7734 46.875 38.1406V43.75ZM46.875 35.9375C46.875 37 42.1875 39.0625 33.5938 39.0625C25 39.0625 20.3125 37 20.3125 35.9375V30.3281C22.8828 31.9609 28.25 32.8125 33.5938 32.8125C38.9375 32.8125 44.3047 31.9609 46.875 30.3281V35.9375ZM46.875 28.125C46.875 29.1875 42.1875 31.25 33.5938 31.25C25 31.25 20.3125 29.1875 20.3125 28.125V22.5156C22.8828 24.1484 28.25 25 33.5938 25C38.9375 25 44.3047 24.1484 46.875 22.5156V28.125ZM33.5938 23.4375C25 23.4375 20.3125 21.375 20.3125 20.3125C20.3125 19.25 25 17.1875 33.5938 17.1875C42.1875 17.1875 46.875 19.25 46.875 20.3125C46.875 21.375 42.1875 23.4375 33.5938 23.4375Z" fill="white"/>
<path d="M32.8125 27.3438H34.375V28.9062H32.8125V27.3438Z" fill="white"/>
<path d="M32.8125 35.9375H34.375V37.5H32.8125V35.9375Z" fill="white"/>
<path d="M32.8125 42.9688H34.375V44.5312H32.8125V42.9688Z" fill="white"/>
<path d="M8.59375 17.1875H5.46875C5.26155 17.1875 5.06284 17.2698 4.91632 17.4163C4.76981 17.5628 4.6875 17.7615 4.6875 17.9688V21.0938C4.6875 21.301 4.76981 21.4997 4.91632 21.6462C5.06284 21.7927 5.26155 21.875 5.46875 21.875H8.59375C8.80095 21.875 8.99966 21.7927 9.14618 21.6462C9.29269 21.4997 9.375 21.301 9.375 21.0938V17.9688C9.375 17.7615 9.29269 17.5628 9.14618 17.4163C8.99966 17.2698 8.80095 17.1875 8.59375 17.1875ZM7.8125 20.3125H6.25V18.75H7.8125V20.3125Z" fill="white"/>
<path d="M14.8438 17.1875H11.7188C11.5115 17.1875 11.3128 17.2698 11.1663 17.4163C11.0198 17.5628 10.9375 17.7615 10.9375 17.9688V21.0938C10.9375 21.301 11.0198 21.4997 11.1663 21.6462C11.3128 21.7927 11.5115 21.875 11.7188 21.875H14.8438C15.051 21.875 15.2497 21.7927 15.3962 21.6462C15.5427 21.4997 15.625 21.301 15.625 21.0938V17.9688C15.625 17.7615 15.5427 17.5628 15.3962 17.4163C15.2497 17.2698 15.051 17.1875 14.8438 17.1875ZM14.0625 20.3125H12.5V18.75H14.0625V20.3125Z" fill="white"/>
<path d="M8.59375 4.6875H5.46875C5.26155 4.6875 5.06284 4.76981 4.91632 4.91632C4.76981 5.06284 4.6875 5.26155 4.6875 5.46875V8.59375C4.6875 8.80095 4.76981 8.99966 4.91632 9.14618C5.06284 9.29269 5.26155 9.375 5.46875 9.375H8.59375C8.80095 9.375 8.99966 9.29269 9.14618 9.14618C9.29269 8.99966 9.375 8.80095 9.375 8.59375V5.46875C9.375 5.26155 9.29269 5.06284 9.14618 4.91632C8.99966 4.76981 8.80095 4.6875 8.59375 4.6875ZM7.8125 7.8125H6.25V6.25H7.8125V7.8125Z" fill="white"/>
<path d="M14.8438 4.6875H11.7188C11.5115 4.6875 11.3128 4.76981 11.1663 4.91632C11.0198 5.06284 10.9375 5.26155 10.9375 5.46875V8.59375C10.9375 8.80095 11.0198 8.99966 11.1663 9.14618C11.3128 9.29269 11.5115 9.375 11.7188 9.375H14.8438C15.051 9.375 15.2497 9.29269 15.3962 9.14618C15.5427 8.99966 15.625 8.80095 15.625 8.59375V5.46875C15.625 5.26155 15.5427 5.06284 15.3962 4.91632C15.2497 4.76981 15.051 4.6875 14.8438 4.6875ZM14.0625 7.8125H12.5V6.25H14.0625V7.8125Z" fill="white"/>
<path d="M17.1875 4.6875H28.125V6.25H17.1875V4.6875Z" fill="white"/>
<path d="M29.6875 4.6875H31.25V6.25H29.6875V4.6875Z" fill="white"/>
<path d="M17.1875 7.8125H28.125V9.375H17.1875V7.8125Z" fill="white"/>
<path d="M29.6875 7.8125H31.25V9.375H29.6875V7.8125Z" fill="white"/>
<path d="M8.59375 29.6875H5.46875C5.26155 29.6875 5.06284 29.7698 4.91632 29.9163C4.76981 30.0628 4.6875 30.2615 4.6875 30.4688V33.5938C4.6875 33.801 4.76981 33.9997 4.91632 34.1462C5.06284 34.2927 5.26155 34.375 5.46875 34.375H8.59375C8.80095 34.375 8.99966 34.2927 9.14618 34.1462C9.29269 33.9997 9.375 33.801 9.375 33.5938V30.4688C9.375 30.2615 9.29269 30.0628 9.14618 29.9163C8.99966 29.7698 8.80095 29.6875 8.59375 29.6875ZM7.8125 32.8125H6.25V31.25H7.8125V32.8125Z" fill="white"/>
<path d="M14.8438 29.6875H11.7188C11.5115 29.6875 11.3128 29.7698 11.1663 29.9163C11.0198 30.0628 10.9375 30.2615 10.9375 30.4688V33.5938C10.9375 33.801 11.0198 33.9997 11.1663 34.1462C11.3128 34.2927 11.5115 34.375 11.7188 34.375H14.8438C15.051 34.375 15.2497 34.2927 15.3962 34.1462C15.5427 33.9997 15.625 33.801 15.625 33.5938V30.4688C15.625 30.2615 15.5427 30.0628 15.3962 29.9163C15.2497 29.7698 15.051 29.6875 14.8438 29.6875ZM14.0625 32.8125H12.5V31.25H14.0625V32.8125Z" fill="white"/>
</svg>
