<svg width="50" height="50" viewBox="0 0 50 50" fill="none" xmlns="http://www.w3.org/2000/svg">
<g clip-path="url(#clip0)">
<path d="M47.4358 8.33325H2.56416C1.15381 8.33325 0 9.48706 0 10.8973V39.1025C0 40.5126 1.15381 41.6666 2.56416 41.6666H47.4359C48.8461 41.6666 50.0001 40.5128 50.0001 39.1025V10.8973C50 9.48706 48.8462 8.33325 47.4358 8.33325ZM46.4736 10.2562L26.475 25.2564C26.1154 25.53 25.5635 25.7012 24.9999 25.6987C24.4364 25.7012 23.8846 25.53 23.5249 25.2564L3.52627 10.2562H46.4736ZM35.791 26.2461L46.6885 39.7078C46.6994 39.7212 46.7128 39.7315 46.7244 39.7437H3.27559C3.28711 39.7309 3.30059 39.7212 3.31152 39.7078L14.209 26.2461C14.5429 25.8333 14.4796 25.2282 14.066 24.8935C13.6532 24.5596 13.048 24.6229 12.7141 25.0358L1.92305 38.366V11.4582L22.3717 26.7947C23.1403 27.3671 24.0755 27.6191 24.9998 27.6216C25.9229 27.6197 26.8588 27.3677 27.6279 26.7947L48.0766 11.4582V38.3658L37.2858 25.0358C36.9519 24.623 36.3461 24.5595 35.9339 24.8935C35.5204 25.2274 35.4569 25.8333 35.791 26.2461Z" fill="white"/>
</g>
<defs>
<clipPath id="clip0">
<rect width="50" height="50" fill="white"/>
</clipPath>
</defs>
</svg>
