<svg width="50" height="50" viewBox="0 0 50 50" fill="none" xmlns="http://www.w3.org/2000/svg">
<path d="M29.753 41.1482H20.3281C19.7888 41.1482 19.3516 40.7109 19.3516 40.1716C19.3516 39.6324 19.7888 39.1951 20.3281 39.1951H29.753C30.2924 39.1951 30.7296 39.6324 30.7296 40.1716C30.7296 40.7109 30.2924 41.1482 29.753 41.1482Z" fill="white"/>
<path d="M32.6694 45.0337H17.4102C16.8708 45.0337 16.4336 44.5964 16.4336 44.0571C16.4336 43.5179 16.8708 43.0806 17.4102 43.0806H32.6694C33.2088 43.0806 33.646 43.5179 33.646 44.0571C33.646 44.5964 33.2088 45.0337 32.6694 45.0337Z" fill="white"/>
<path d="M25.0391 6.64814C24.4997 6.64814 24.0625 6.21084 24.0625 5.67158V4.6875C24.0625 4.14824 24.4997 3.71094 25.0391 3.71094C25.5784 3.71094 26.0156 4.14824 26.0156 4.6875V5.67158C26.0156 6.21094 25.5784 6.64814 25.0391 6.64814Z" fill="white"/>
<path d="M25.0391 30.0699C24.4997 30.0699 24.0625 29.6326 24.0625 29.0933V28.1091C24.0625 27.5699 24.4997 27.1326 25.0391 27.1326C25.5784 27.1326 26.0156 27.5699 26.0156 28.1091V29.0933C26.0156 29.6327 25.5784 30.0699 25.0391 30.0699Z" fill="white"/>
<path d="M32.9726 9.93401C32.7226 9.93401 32.4728 9.8386 32.2821 9.64798C31.9008 9.26663 31.9008 8.64827 32.2821 8.26682L33.937 6.61204C34.3183 6.23088 34.9367 6.23088 35.3181 6.61204C35.6994 6.99338 35.6994 7.61174 35.3181 7.99319L33.6632 9.64798C33.4724 9.8386 33.2225 9.93401 32.9726 9.93401Z" fill="white"/>
<path d="M15.4531 27.4546C15.2031 27.4546 14.9533 27.3591 14.7626 27.1685C14.3812 26.7872 14.3812 26.1688 14.7626 25.7874L16.4175 24.1326C16.7988 23.7513 17.4171 23.7514 17.7985 24.1326C18.1799 24.5139 18.1799 25.1323 17.7985 25.5137L16.1436 27.1685C15.9529 27.3591 15.703 27.4546 15.4531 27.4546Z" fill="white"/>
<path d="M37.242 17.8669H36.2578C35.7185 17.8669 35.2812 17.4296 35.2812 16.8904C35.2812 16.3511 35.7185 15.9138 36.2578 15.9138H37.242C37.7813 15.9138 38.2186 16.3511 38.2186 16.8904C38.2186 17.4296 37.7813 17.8669 37.242 17.8669Z" fill="white"/>
<path d="M13.8201 17.8669H12.8359C12.2966 17.8669 11.8594 17.4296 11.8594 16.8904C11.8594 16.3511 12.2966 15.9138 12.8359 15.9138H13.8201C14.3595 15.9138 14.7967 16.3511 14.7967 16.8904C14.7967 17.4296 14.3595 17.8669 13.8201 17.8669Z" fill="white"/>
<path d="M17.108 9.93408C16.8581 9.93408 16.6082 9.83867 16.4175 9.64805L14.7626 7.99326C14.3813 7.61191 14.3812 6.99355 14.7626 6.61211C15.144 6.23086 15.7623 6.23086 16.1437 6.61211L17.7986 8.26689C18.1799 8.64824 18.18 9.2666 17.7986 9.64805C17.6079 9.83867 17.3579 9.93408 17.108 9.93408Z" fill="white"/>
<path d="M34.6276 27.4546C34.3776 27.4546 34.1277 27.3592 33.937 27.1686L32.2821 25.5138C31.9008 25.1324 31.9007 24.5141 32.2821 24.1326C32.6635 23.7514 33.2818 23.7514 33.6632 24.1326L35.3181 25.7874C35.6994 26.1688 35.6995 26.7871 35.3181 27.1686C35.1275 27.3592 34.8776 27.4546 34.6276 27.4546Z" fill="white"/>
<path d="M21.4569 24.0339C21.1167 24.0339 20.7788 23.9281 20.4946 23.7213C20.0151 23.3728 19.7617 22.7908 19.8332 22.2024L20.2182 19.0374L18.0437 16.7026C17.6395 16.2686 17.5021 15.6485 17.6853 15.0845C17.8685 14.5203 18.3443 14.0989 18.9269 13.985L22.0612 13.3725L23.6129 10.5851C23.9013 10.0671 24.4488 9.74536 25.0418 9.74536C25.6349 9.74536 26.1824 10.067 26.4708 10.5851L28.0226 13.3725L31.157 13.985C31.7396 14.0989 32.2154 14.5202 32.3986 15.0846C32.5817 15.6486 32.4443 16.2686 32.0401 16.7026L29.8655 19.0374L30.2506 22.2024C30.3222 22.7908 30.0688 23.3727 29.5893 23.7214C29.1094 24.0703 28.4768 24.1319 27.9386 23.8821L25.042 22.5376L22.1454 23.8821C21.9259 23.9839 21.6908 24.0339 21.4569 24.0339ZM25.0418 20.4845C25.1823 20.4845 25.3226 20.5148 25.453 20.5753L28.2425 21.8701L27.8717 18.8223C27.8369 18.5363 27.9302 18.2496 28.1265 18.0388L30.2192 15.7919L27.2027 15.2024C26.9202 15.1472 26.6767 14.9704 26.5367 14.719L25.0418 12.0337L23.5469 14.719C23.407 14.9704 23.1633 15.1472 22.881 15.2024L19.8645 15.7919L21.9572 18.0388C22.1534 18.2496 22.2467 18.5364 22.2119 18.8223L21.8412 21.8701L24.6308 20.5753C24.7611 20.5147 24.9015 20.4845 25.0418 20.4845Z" fill="white"/>
<path d="M45.6797 13.4903H45.4248V3.39102C45.4248 1.52119 43.9036 0 42.0338 0H7.96621C6.09639 0 4.5752 1.52119 4.5752 3.39102V13.4903H4.32031C1.93809 13.4903 0 15.4283 0 17.8105V45.6793C0 48.0617 1.93828 50 4.3208 50H45.6793C48.0617 50 50 48.0617 50 45.6793V36.1598C50 35.6205 49.5628 35.1832 49.0234 35.1832C48.4841 35.1832 48.0469 35.6205 48.0469 36.1598V42.432L35.6505 31.168L48.0469 20.9252V27.3304C48.0469 27.8696 48.4841 28.3069 49.0234 28.3069C49.5628 28.3069 50 27.8696 50 27.3304V17.8105C50 15.4283 48.0619 13.4903 45.6797 13.4903ZM6.52832 3.39102C6.52832 2.59814 7.17334 1.95312 7.96621 1.95312H42.0338C42.8267 1.95312 43.4717 2.59814 43.4717 3.39102V22.172L27.4134 35.4404H22.5865L6.52832 22.172V3.39102ZM1.95312 20.9252L14.3495 31.168L1.95312 42.432V20.9252ZM1.95312 17.8105C1.95312 16.5054 3.01504 15.4435 4.32031 15.4435H4.5752V20.5582L1.95312 18.3917V17.8105ZM48.0469 45.071V45.6793C48.0469 46.9848 46.9848 48.0469 45.6792 48.0469H4.3208C3.01523 48.0469 1.95312 46.9848 1.95312 45.6793V45.071L15.8706 32.4248L21.6133 37.1698C21.7883 37.3144 22.0082 37.3936 22.2354 37.3936H27.7646C27.9917 37.3936 28.2116 37.3144 28.3867 37.1698L34.1294 32.4248L48.0469 45.071ZM45.4248 15.4435H45.6797C46.985 15.4435 48.0469 16.5054 48.0469 17.8105V18.3917L45.4248 20.5582V15.4435Z" fill="white"/>
<path d="M49.0253 32.7042C48.6169 32.7042 48.2444 32.4396 48.1069 32.0561C47.9713 31.6781 48.087 31.2428 48.3936 30.9828C48.7133 30.7116 49.1844 30.6766 49.5407 30.8979C49.8819 31.1099 50.0618 31.5241 49.9824 31.918C49.8917 32.3686 49.4861 32.7042 49.0253 32.7042Z" fill="white"/>
</svg>
