<svg width="50" height="50" viewBox="0 0 50 50" fill="none" xmlns="http://www.w3.org/2000/svg">
<path d="M7.01738 40.8314L11.7188 43.1817V49.0234C11.7188 49.5628 12.1561 50 12.6953 50H23.0469C23.5861 50 24.0234 49.5628 24.0234 49.0234V35.6885C24.0234 32.6966 21.779 30.2153 18.8095 29.9177C18.7979 29.9145 14.6786 29.2714 12.7675 27.3602L10.5743 25.168C9.83643 24.4299 8.85557 24.0234 7.8125 24.0234V16.2109C7.8125 14.057 6.06016 12.3047 3.90625 12.3047C1.75234 12.3047 0 14.057 0 16.2109V29.4766C0 34.2824 2.71465 38.6796 7.01738 40.8314ZM1.95312 16.2109C1.95312 15.134 2.8293 14.2578 3.90625 14.2578C4.9832 14.2578 5.85938 15.134 5.85938 16.2109V24.547C4.66836 25.2356 3.90625 26.5196 3.90625 27.9297C3.90625 28.9727 4.3127 29.9534 5.05068 30.6914L10.0517 35.6934C10.4328 36.0747 11.0513 36.0749 11.4327 35.6935C11.8141 35.3121 11.8142 34.6938 11.4328 34.3124L6.43184 29.3104C6.0627 28.9413 5.85938 28.451 5.85938 27.9297C5.85938 27.1031 6.38252 26.3629 7.16133 26.0878C7.16162 26.0877 7.16191 26.0875 7.16221 26.0874H7.1623C7.83574 25.8487 8.63467 25.9903 9.19346 26.5491L11.3866 28.7414C13.6509 31.0056 18.5979 31.8576 18.6077 31.8604C20.5817 32.0582 22.0703 33.704 22.0703 35.6885V48.0469H13.6719V42.5781C13.6719 42.2082 13.4628 41.87 13.132 41.7047L7.89092 39.0846C4.22842 37.2528 1.95312 33.5713 1.95312 29.4766V16.2109Z" fill="white"/>
<path d="M13.2812 24.0234H36.7188C37.258 24.0234 37.6953 23.5862 37.6953 23.0469V0.976562C37.6953 0.437207 37.258 0 36.7188 0H13.2812C12.742 0 12.3047 0.437207 12.3047 0.976562V23.0469C12.3047 23.5862 12.742 24.0234 13.2812 24.0234ZM22.0703 1.95312H27.9297V7.21611L25.3931 5.96074C25.1177 5.82432 24.7938 5.82578 24.5196 5.96436L22.0703 7.20166V1.95312ZM14.2578 1.95312H20.1172V8.78906C20.1172 9.12822 20.2932 9.44316 20.5821 9.6209C20.8709 9.79854 21.2314 9.81367 21.5341 9.66074L24.9645 7.92783L28.4731 9.66436C28.7706 9.81162 29.1296 9.8 29.4214 9.61875C29.7083 9.44053 29.8828 9.12676 29.8828 8.78906V1.95312H35.7422V22.0703H14.2578V1.95312Z" fill="white"/>
<path d="M32.8125 17.1875H26.9531C26.4139 17.1875 25.9766 17.6247 25.9766 18.1641C25.9766 18.7034 26.4139 19.1406 26.9531 19.1406H32.8125C33.3518 19.1406 33.7891 18.7034 33.7891 18.1641C33.7891 17.6247 33.3518 17.1875 32.8125 17.1875Z" fill="white"/>
<path d="M44.8242 39.4531C45.3636 39.4531 45.8008 39.0159 45.8008 38.4766C45.8008 37.9372 45.3636 37.5 44.8242 37.5C44.2849 37.5 43.8477 37.9372 43.8477 38.4766C43.8477 39.0159 44.2849 39.4531 44.8242 39.4531Z" fill="white"/>
<path d="M46.0938 12.3047C43.9398 12.3047 42.1875 14.057 42.1875 16.2109V24.0234C41.1444 24.0234 40.1636 24.4299 39.4259 25.1677L37.2323 27.3603C36.0312 28.5615 32.9883 29.7369 31.2628 29.9099L31.1976 29.9169C28.221 30.2153 25.9766 32.6966 25.9766 35.6885V49.0234C25.9766 49.5628 26.4139 50 26.9531 50H37.3047C37.8439 50 38.2812 49.5628 38.2812 49.0234V43.1817L41.4775 41.5839C41.9599 41.3427 42.1555 40.7562 41.9144 40.2736C41.6732 39.7914 41.0868 39.5957 40.6042 39.8368L36.868 41.7045C36.5372 41.87 36.3281 42.2082 36.3281 42.5781V48.0469H27.9297V35.6885C27.9297 33.704 29.4183 32.0582 31.3993 31.8596L31.4646 31.8525C33.5829 31.6401 37.0901 30.2645 38.6132 28.7415L40.8067 26.5489C41.3657 25.9899 42.1654 25.8491 42.8377 26.0874H42.8378C42.8381 26.0875 42.8384 26.0877 42.8387 26.0878C44.1835 26.5629 44.5884 28.29 43.5683 29.3105L38.5673 34.3125C38.1859 34.6939 38.186 35.3122 38.5674 35.6936C38.9486 36.0748 39.5671 36.0749 39.9484 35.6935L44.9494 30.6915C46.7548 28.8858 46.3787 25.841 44.1407 24.547V16.2109C44.1407 15.134 45.0169 14.2578 46.0938 14.2578C47.1708 14.2578 48.047 15.134 48.047 16.2109V29.4766C48.047 31.2633 47.5961 33.0371 46.743 34.6063C46.4853 35.0801 46.6605 35.673 47.1345 35.9307C47.6082 36.1881 48.2013 36.013 48.4589 35.5392C49.4671 33.6847 50 31.5882 50 29.4766V16.2109C50 14.057 48.2477 12.3047 46.0938 12.3047Z" fill="white"/>
</svg>
