<svg width="100" height="100" viewBox="0 0 100 100" fill="none" xmlns="http://www.w3.org/2000/svg">
<path d="M90.0262 52.4396C90.9098 51.1295 91.4262 49.5521 91.4262 47.8564V46.2898C91.4262 41.758 87.7391 38.0709 83.2072 38.0709C80.9461 38.0709 78.8953 38.9891 77.4078 40.4719C73.559 29.0252 62.7271 20.7568 50 20.7568C37.2729 20.7568 26.441 29.025 22.5922 40.4719C21.1047 38.9891 19.0541 38.0709 16.7928 38.0709C12.2609 38.0709 8.57383 41.758 8.57383 46.2898V47.8564C8.57383 49.5521 9.09023 51.1295 9.97383 52.4396C4.28457 53.6385 0 58.6961 0 64.7367V68.6691C0 69.7477 0.874609 70.6223 1.95312 70.6223H12.1094C13.1879 70.6223 14.0625 69.7477 14.0625 68.6691C14.0625 67.5906 13.1879 66.716 12.1094 66.716H3.90625V64.7367C3.90625 59.9607 7.7918 56.0752 12.5678 56.0752H21.8117C22.5613 59.3723 23.8752 62.4574 25.6479 65.2219L3.36289 87.5068C0.509375 90.3605 0.509375 95.0041 3.36309 97.858C4.79004 99.285 6.66406 99.9982 8.53848 99.9982C10.4129 99.9982 12.2873 99.2848 13.7143 97.858L26 85.5721C26.7627 84.8094 26.7627 83.5727 26 82.8098C25.2371 82.0473 24.0008 82.0473 23.2377 82.8098L10.9521 95.0957C9.62109 96.4266 7.45586 96.4264 6.125 95.0959C4.79434 93.765 4.79434 91.5996 6.125 90.2688L28.0014 68.3926C33.3074 74.6156 41.2002 78.5693 50 78.5693C63.7359 78.5693 75.2637 68.9385 78.1883 56.0752H87.4322C92.2082 56.0752 96.0938 59.9607 96.0938 64.7367V66.716H77.7344C76.6559 66.716 75.7812 67.5906 75.7812 68.6691C75.7812 69.7477 76.6559 70.6223 77.7344 70.6223H98.0469C99.1254 70.6223 100 69.7477 100 68.6691V64.7367C100 58.6961 95.7154 53.6385 90.0262 52.4396ZM21.1055 47.8566C21.1055 50.2346 19.1709 52.1691 16.7928 52.1691C14.4146 52.1691 12.4801 50.2346 12.4801 47.8566V46.29C12.4801 43.9119 14.4146 41.9773 16.7928 41.9773C19.1709 41.9773 21.1055 43.9119 21.1055 46.29V47.8566ZM50 74.6631C36.215 74.6631 25 63.448 25 49.6631C25 35.8781 36.215 24.6631 50 24.6631C63.785 24.6631 75 35.8781 75 49.6631C75 63.448 63.785 74.6631 50 74.6631ZM87.5197 47.8566C87.5197 50.2346 85.5852 52.1691 83.207 52.1691C80.8289 52.1691 78.8943 50.2346 78.8943 47.8566V46.29C78.8943 43.9119 80.8289 41.9773 83.207 41.9773C85.5852 41.9773 87.5197 43.9119 87.5197 46.29V47.8566Z" fill="#6F3A80"/>
<path d="M50 28.5693C38.3688 28.5693 28.9062 38.0318 28.9062 49.6631C28.9062 55.7002 31.4563 61.1523 35.5348 65.001C35.6045 65.0764 35.6793 65.1475 35.7613 65.2119C39.5164 68.6535 44.517 70.7568 50 70.7568C55.483 70.7568 60.4836 68.6533 64.2387 65.2119C64.3207 65.1477 64.3955 65.0764 64.4652 65.001C68.5438 61.1523 71.0938 55.7002 71.0938 49.6631C71.0938 38.032 61.6312 28.5693 50 28.5693ZM50 66.8506C45.9838 66.8506 42.2854 65.4656 39.3561 63.1486C41.4313 59.2221 45.4754 56.7516 50 56.7516C54.5246 56.7516 58.5688 59.2221 60.6439 63.1486C57.7147 65.4656 54.0162 66.8506 50 66.8506ZM45.8842 48.7295V47.2121C45.8842 44.9426 47.7305 43.0963 50 43.0963C52.2695 43.0963 54.1158 44.9426 54.1158 47.2121V48.7295C54.1158 50.999 52.2695 52.8453 50 52.8453C47.7305 52.8453 45.8842 50.999 45.8842 48.7295ZM63.501 60.2879C61.7117 57.433 59.0928 55.2559 56.0275 54.0145C57.2676 52.6018 58.0221 50.7527 58.0221 48.7297V47.2123C58.0221 42.7891 54.4232 39.1902 50 39.1902C45.5768 39.1902 41.9779 42.7891 41.9779 47.2123V48.7297C41.9779 50.7527 42.7322 52.6018 43.9725 54.0145C40.9072 55.2561 38.2885 57.433 36.499 60.2879C34.1912 57.3617 32.8125 53.6705 32.8125 49.6631C32.8125 40.1859 40.5229 32.4756 50 32.4756C59.4771 32.4756 67.1875 40.1859 67.1875 49.6631C67.1875 53.6705 65.8088 57.3617 63.501 60.2879Z" fill="#6F3A80"/>
<path d="M31.2246 77.5859C30.8613 77.2227 30.3574 77.0137 29.8438 77.0137C29.3301 77.0137 28.8262 77.2227 28.4629 77.5859C28.0998 77.9492 27.8906 78.4531 27.8906 78.9668C27.8906 79.4805 28.0996 79.9844 28.4629 80.3477C28.8262 80.7107 29.3301 80.9199 29.8438 80.9199C30.3574 80.9199 30.8613 80.7109 31.2246 80.3477C31.5877 79.9844 31.7969 79.4805 31.7969 78.9668C31.7969 78.4531 31.5879 77.9492 31.2246 77.5859Z" fill="#6F3A80"/>
<path d="M50.0391 0.00195312C48.9605 0.00195312 48.0859 0.876563 48.0859 1.95508V8.60039C48.0859 9.6791 48.9605 10.5535 50.0391 10.5535C51.1176 10.5535 51.9922 9.67891 51.9922 8.60039V1.95508C51.9922 0.876563 51.1176 0.00195312 50.0391 0.00195312Z" fill="#6F3A80"/>
<path d="M51.4197 13.6602C51.0567 13.2969 50.5545 13.0879 50.0391 13.0879C49.5252 13.0879 49.0215 13.2967 48.6582 13.6602C48.2949 14.0236 48.0859 14.5273 48.0859 15.041C48.0859 15.5547 48.2947 16.0586 48.6582 16.4217C49.0215 16.785 49.5252 16.9941 50.0391 16.9941C50.5547 16.9941 51.0567 16.7852 51.4197 16.4217C51.783 16.0586 51.9922 15.5547 51.9922 15.041C51.9922 14.5273 51.7832 14.0234 51.4197 13.6602Z" fill="#6F3A80"/>
<path d="M66.5972 7.66367C65.8343 6.90117 64.598 6.90117 63.8349 7.66367L60.4021 11.0965C59.6394 11.8592 59.6394 13.0959 60.4021 13.8588C60.7837 14.24 61.2834 14.4309 61.7834 14.4309C62.2834 14.4309 62.783 14.24 63.1644 13.8588L66.5972 10.426C67.3599 9.66328 67.3599 8.42656 66.5972 7.66367Z" fill="#6F3A80"/>
<path d="M39.6312 11.1197L36.1654 7.65391C35.4025 6.89141 34.1662 6.89141 33.4031 7.65391C32.6404 8.4166 32.6404 9.65332 33.4031 10.4162L36.8691 13.882C37.2505 14.2633 37.7503 14.4541 38.2501 14.4541C38.75 14.4541 39.2498 14.2633 39.6312 13.882C40.3939 13.1193 40.3939 11.8826 39.6312 11.1197Z" fill="#6F3A80"/>
</svg>
