<svg width="50" height="50" viewBox="0 0 50 50" fill="none" xmlns="http://www.w3.org/2000/svg">
<g clip-path="url(#clip0)">
<path d="M45.988 32.8193C42.9268 32.8193 39.9211 32.3405 37.0728 31.3992C35.6771 30.9232 33.9613 31.3599 33.1095 32.2348L27.4875 36.4788C20.9676 32.9984 16.9514 28.9836 13.5186 22.5126L17.6378 17.0371C18.7079 15.9684 19.0918 14.4072 18.6319 12.9423C17.6866 10.079 17.2064 7.07474 17.2064 4.01224C17.2065 1.79987 15.4066 0 13.1944 0H4.01211C1.79987 0 0 1.79987 0 4.01211C0 29.3702 20.6299 50 45.988 50C48.2003 50 50.0001 48.2001 50.0001 45.9879V36.8312C50 34.6191 48.2001 32.8193 45.988 32.8193Z" fill="#737473"/>
</g>
<defs>
<clipPath id="clip0">
<rect width="50" height="50" fill="white"/>
</clipPath>
</defs>
</svg>
