<svg width="65" height="65" viewBox="0 0 65 65" fill="none" xmlns="http://www.w3.org/2000/svg">
<path d="M59.2871 4H5.71289C2.56674 4 0 6.56395 0 9.71289V47.7988C0 50.9371 2.55531 53.5117 5.71289 53.5117H59.2871C62.4254 53.5117 65 50.9564 65 47.7988V9.71289C65 6.57461 62.4447 4 59.2871 4ZM58.4982 7.80859L32.6211 33.6858L6.52019 7.80859H58.4982ZM3.80859 47.0102V10.4834L22.1507 28.6681L3.80859 47.0102ZM6.50165 49.7031L24.8553 31.3495L31.2863 37.7254C32.0308 38.4635 33.2321 38.461 33.9735 37.7195L40.2441 31.4489L58.4983 49.7031H6.50165ZM61.1914 47.0101L42.9372 28.7559L61.1914 10.5015V47.0101Z" fill="#737473"/>
</svg>
