<svg width="65" height="65" viewBox="0 0 65 65" fill="none" xmlns="http://www.w3.org/2000/svg">
<path fill-rule="evenodd" clip-rule="evenodd" d="M54.056 10.8552C48.355 5.14755 40.7731 2.00286 32.6959 1.99951C16.0519 1.99951 2.50607 15.5449 2.49938 32.1934C2.49715 37.5154 3.88743 42.7105 6.53002 47.2898L2.24609 62.937L18.2537 58.7379C22.6645 61.1439 27.6301 62.4118 32.6836 62.4133H32.6962C49.3384 62.4133 62.8857 48.8668 62.892 32.2176C62.8953 24.1489 59.7573 16.5625 54.056 10.8552ZM32.6959 57.3137H32.6855C28.1821 57.3119 23.7654 56.1016 19.9114 53.8153L18.9954 53.2712L9.49618 55.7632L12.0317 46.5017L11.4347 45.5521C8.92229 41.5561 7.59561 36.9374 7.59784 32.1953C7.60304 18.3575 18.8622 7.09946 32.7059 7.09946C39.4096 7.10169 45.7113 9.71563 50.4497 14.4596C55.1881 19.2036 57.7961 25.5094 57.7939 32.2157C57.788 46.0546 46.5295 57.3137 32.6959 57.3137ZM46.4626 38.5166C45.7083 38.1387 41.9987 36.314 41.3069 36.0619C40.6158 35.8101 40.1122 35.6847 39.6097 36.4398C39.1065 37.1948 37.6608 38.8945 37.2204 39.3977C36.7801 39.9013 36.3404 39.9646 35.5858 39.5867C34.8311 39.2092 32.4002 38.4121 29.5181 35.8417C27.2753 33.8411 25.7612 31.3703 25.3208 30.6153C24.8812 29.8595 25.3171 29.4906 25.6518 29.0755C26.4686 28.0612 27.2865 26.9979 27.5379 26.4946C27.7897 25.991 27.6636 25.5503 27.4747 25.1728C27.2865 24.7953 25.7775 21.0815 25.149 19.5704C24.536 18.0997 23.9145 18.2984 23.4511 18.2753C23.0115 18.2534 22.5083 18.2489 22.005 18.2489C21.5022 18.2489 20.6847 18.4375 19.9929 19.1932C19.3015 19.9486 17.3525 21.7737 17.3525 25.4874C17.3525 29.2012 20.0561 32.7889 20.4332 33.2925C20.8104 33.7961 25.7537 41.417 33.3222 44.6848C35.1224 45.4628 36.5275 45.9267 37.6236 46.2744C39.4312 46.8487 41.0755 46.7676 42.3758 46.5734C43.8256 46.3566 46.8394 44.748 47.4687 42.9858C48.0972 41.2232 48.0972 39.7128 47.9083 39.3977C47.7201 39.0831 47.2169 38.8945 46.4626 38.5166Z" fill="#737473"/>
</svg>
