<svg width="65" height="65" viewBox="0 0 65 65" fill="none" xmlns="http://www.w3.org/2000/svg">
<g clip-path="url(#clip0)">
<path d="M64.9355 19.1102C64.7832 15.6565 64.2247 13.2821 63.4247 11.2246C62.5993 9.04073 61.3295 7.08547 59.6659 5.46005C58.0405 3.80934 56.0723 2.52666 53.9137 1.7142C51.8444 0.914142 49.4824 0.355637 46.0287 0.203363C42.5492 0.0381925 41.4446 0 32.6196 0C23.7947 0 22.6901 0.0381925 19.2235 0.190467C15.7698 0.342741 13.3954 0.901742 11.3384 1.70131C9.15401 2.52666 7.19875 3.79644 5.57333 5.46005C3.92262 7.08547 2.64044 9.05363 1.82748 11.2122C1.02742 13.2821 0.468919 15.6436 0.316644 19.0973C0.151474 22.5768 0.113281 23.6814 0.113281 32.5063C0.113281 41.3313 0.151474 42.4359 0.303748 45.9025C0.456022 49.3562 1.01502 51.7306 1.81508 53.788C2.64044 55.972 3.92262 57.9272 5.57333 59.5526C7.19875 61.2034 9.1669 62.486 11.3255 63.2985C13.3954 64.0986 15.7569 64.6571 19.2111 64.8093C22.6772 64.9621 23.7823 64.9998 32.6072 64.9998C41.4322 64.9998 42.5368 64.9621 46.0034 64.8093C49.4571 64.6571 51.8315 64.0986 53.8884 63.2985C58.2568 61.6096 61.7105 58.1559 63.3994 53.788C64.1989 51.7182 64.7579 49.3562 64.9102 45.9025C65.0625 42.4359 65.1007 41.3313 65.1007 32.5063C65.1007 23.6814 65.0878 22.5768 64.9355 19.1102ZM59.0821 45.6486C58.9422 48.823 58.409 50.5372 57.9646 51.68C56.8724 54.5117 54.625 56.7591 51.7933 57.8513C50.6505 58.2958 48.9239 58.829 45.7618 58.9683C42.3334 59.1211 41.3052 59.1588 32.6325 59.1588C23.9598 59.1588 22.9187 59.1211 19.5027 58.9683C16.3283 58.829 14.6141 58.2958 13.4713 57.8513C12.0621 57.3305 10.7794 56.5052 9.7383 55.4259C8.65899 54.3718 7.83364 53.1021 7.31283 51.6929C6.86841 50.5501 6.3352 48.823 6.19582 45.6615C6.04305 42.2331 6.00535 41.2043 6.00535 32.5316C6.00535 23.859 6.04305 22.8178 6.19582 19.4023C6.3352 16.2279 6.86841 14.5137 7.31283 13.3709C7.83364 11.9612 8.65899 10.679 9.7512 9.63743C10.8047 8.55811 12.0745 7.73276 13.4842 7.21245C14.627 6.76802 16.3541 6.23481 19.5156 6.09494C22.944 5.94267 23.9727 5.90447 32.6449 5.90447C41.3305 5.90447 42.3587 5.94267 45.7747 6.09494C48.9492 6.23481 50.6634 6.76802 51.8062 7.21245C53.2153 7.73276 54.498 8.55811 55.5391 9.63743C56.6184 10.6914 57.4438 11.9612 57.9646 13.3709C58.409 14.5137 58.9422 16.2403 59.0821 19.4023C59.2344 22.8307 59.2726 23.859 59.2726 32.5316C59.2726 41.2043 59.2344 42.2202 59.0821 45.6486Z" fill="#737473"/>
<path d="M32.6195 15.8088C23.4012 15.8088 15.9219 23.2876 15.9219 32.5064C15.9219 41.7252 23.4012 49.204 32.6195 49.204C41.8383 49.204 49.3171 41.7252 49.3171 32.5064C49.3171 23.2876 41.8383 15.8088 32.6195 15.8088ZM32.6195 43.3377C26.6391 43.3377 21.7882 38.4872 21.7882 32.5064C21.7882 26.5255 26.6391 21.675 32.6195 21.675C38.6003 21.675 43.4508 26.5255 43.4508 32.5064C43.4508 38.4872 38.6003 43.3377 32.6195 43.3377Z" fill="#737473"/>
<path d="M53.8788 15.1486C53.8788 17.3012 52.1333 19.0467 49.9802 19.0467C47.8275 19.0467 46.082 17.3012 46.082 15.1486C46.082 12.9954 47.8275 11.2504 49.9802 11.2504C52.1333 11.2504 53.8788 12.9954 53.8788 15.1486Z" fill="#737473"/>
</g>
<defs>
<clipPath id="clip0">
<rect width="65" height="65" fill="white"/>
</clipPath>
</defs>
</svg>
