<svg width="65" height="65" viewBox="0 0 65 65" fill="none" xmlns="http://www.w3.org/2000/svg">
<path d="M32.5 65C50.421 65 65 50.421 65 32.5C65 14.579 50.421 0 32.5 0C14.579 0 0 14.579 0 32.5C0 50.421 14.579 65 32.5 65ZM32.5 4.0625C48.1812 4.0625 60.9375 16.8188 60.9375 32.5C60.9375 48.1812 48.1812 60.9375 32.5 60.9375C16.8188 60.9375 4.0625 48.1812 4.0625 32.5C4.0625 16.8188 16.8188 4.0625 32.5 4.0625Z" fill="#737473"/>
<path d="M21.3859 38.3365L25.6325 36.4921L24.4409 37.6865C24.059 38.0683 23.845 38.5856 23.845 39.1219V47.0708C23.845 48.8908 26.0442 49.7738 27.3117 48.5063L31.5746 44.2433L40.8642 48.8881C42.0667 49.4894 43.5211 48.7771 43.7703 47.4338L49.0705 18.2894C49.3494 16.7213 47.8057 15.4538 46.3296 16.0333L11.8905 29.5127C10.3467 30.114 10.1409 32.2265 11.5384 33.1175L19.4846 38.1875C20.0534 38.5504 20.7711 38.6073 21.3859 38.3365ZM44.423 21.1467L40.2603 44.0456L32.0811 39.9588C31.2903 39.5633 30.3478 39.7286 29.7384 40.3406L27.9075 42.1715V39.9696L36.0515 31.8256C37.6305 30.2467 35.8538 27.6413 33.8063 28.5269L20.7603 34.1873L17.0932 31.8473L44.423 21.1467Z" fill="#737473"/>
</svg>
