<svg width="100" height="100" viewBox="0 0 100 100" fill="none" xmlns="http://www.w3.org/2000/svg">
<g clip-path="url(#clip0)">
<path d="M50 19.9114C51.0785 19.9114 51.9531 19.0368 51.9531 17.9583V8.00903C51.9531 6.93052 51.0787 6.05591 50 6.05591C48.9213 6.05591 48.0469 6.93032 48.0469 8.00903V17.9583C48.0471 19.0368 48.9215 19.9114 50 19.9114Z" fill="#6F3A80"/>
<path d="M35.3135 23.1198C35.6848 23.7091 36.3189 24.0317 36.9676 24.0317C37.3234 24.0317 37.6838 23.9345 38.007 23.7307C38.9195 23.1557 39.193 21.9497 38.618 21.037L33.4141 12.7802C32.8389 11.8677 31.6328 11.594 30.7205 12.1692C29.808 12.7442 29.5346 13.9503 30.1096 14.863L35.3135 23.1198Z" fill="#6F3A80"/>
<path d="M61.9948 23.7313C62.318 23.9346 62.678 24.0317 63.0335 24.0317C63.6823 24.0317 64.3169 23.7086 64.6881 23.119L69.8866 14.8622C70.4612 13.9493 70.1872 12.7436 69.2743 12.1686C68.361 11.5942 67.1557 11.8684 66.5809 12.7809L61.3825 21.0377C60.8079 21.9508 61.0821 23.1565 61.9948 23.7313Z" fill="#6F3A80"/>
<path d="M99.3704 52.0376L95.9769 46.0425C95.4452 45.1034 94.2534 44.7733 93.3153 45.305C92.3765 45.8364 92.0464 47.028 92.5778 47.9665L95.9698 53.9591C96.1397 54.2603 96.0956 54.5507 96.0542 54.697C96.0144 54.8378 95.9046 55.0978 95.6175 55.2563L90.3874 58.1534C89.9228 58.4101 89.3163 58.248 89.063 57.8011L87.7343 55.4507C87.7288 55.4401 87.7226 55.4304 87.7169 55.42L73.9806 31.1243C73.8108 30.8253 73.8538 30.5386 73.8944 30.3942C73.9337 30.2546 74.0427 29.9966 74.3298 29.8378L79.5661 26.9401C80.0366 26.6796 80.6282 26.8378 80.8854 27.2937L83.9468 32.7024C84.4782 33.6413 85.6702 33.9712 86.6085 33.4401C87.5474 32.9089 87.8774 31.7171 87.3462 30.7784L84.2862 25.372C82.9812 23.0583 80.0159 22.2284 77.6757 23.522L72.4396 26.4196C71.3065 27.0458 70.488 28.0808 70.1349 29.3345C69.8017 30.5165 69.9208 31.7505 70.4663 32.8335L67.5819 33.6694C66.3532 34.0249 65.6075 34.2177 65.1936 34.2177C65.1919 34.2177 65.1903 34.2177 65.1888 34.2177C64.9038 34.2167 64.5931 34.1079 63.7061 33.772C63.3038 33.6196 62.8028 33.4298 62.187 33.2149L57.0767 31.4284C54.2503 30.4413 52.9755 30.4944 51.1286 30.663L42.4145 31.4429C38.4421 31.7948 35.9095 32.6909 34.5114 34.245L29.5454 32.8062C30.0798 31.7278 30.1944 30.5058 29.8643 29.3345C29.5112 28.0815 28.6933 27.0468 27.5614 26.4206L22.3282 23.5216C19.986 22.2269 17.019 23.0571 15.7138 25.3702L0.634858 52.0349C-0.0106494 53.1714 -0.170415 54.4933 0.185444 55.7571C0.53896 57.0122 1.35732 58.0481 2.48818 58.6735L7.72138 61.5722C8.46962 61.9858 9.28251 62.1823 10.0847 62.1823C11.7888 62.1823 13.4454 61.2958 14.3358 59.7237L14.8888 58.7456C16.3977 59.4099 17.6647 60.3749 18.5282 61.5175C17.6849 62.503 17.1536 63.7192 17.0046 65.0421C16.8077 66.7915 17.3018 68.5079 18.396 69.8761C19.4808 71.2325 21.0319 72.0884 22.7665 72.2899C22.5829 74.0245 23.079 75.7241 24.1647 77.077C25.287 78.4802 26.8731 79.2987 28.5323 79.4919C28.3495 81.2239 28.8438 82.922 29.9263 84.2757C31.0104 85.6351 32.562 86.4927 34.2983 86.6942C34.1145 88.4302 34.6106 90.1308 35.6964 91.4839C36.9905 93.1019 38.9011 93.9442 40.8298 93.944C42.2696 93.944 43.7196 93.4745 44.9302 92.5077L49.0196 89.2355C49.3444 88.9763 49.6395 88.6897 49.905 88.3811L52.2409 90.2472C53.4489 91.2112 54.8956 91.6796 56.3335 91.6794C58.2632 91.6792 60.1768 90.8358 61.4727 89.2163C62.1558 88.3624 62.5882 87.3878 62.7835 86.3817C63.4665 86.6181 64.1876 86.7401 64.9228 86.7399C65.1692 86.7399 65.4173 86.7263 65.6661 86.6987C67.4161 86.5044 68.981 85.6438 70.0683 84.2802C71.156 82.9251 71.652 81.2257 71.4687 79.4913C73.1267 79.2978 74.7136 78.4794 75.8392 77.0769C76.9603 75.6751 77.4102 73.9493 77.2341 72.2896C78.9677 72.0876 80.5181 71.2319 81.6003 69.8786C82.6952 68.5142 83.1915 66.8003 82.9976 65.0522C82.8503 63.7253 82.3186 62.505 81.4737 61.5167C82.3347 60.3745 83.5991 59.4083 85.1091 58.7444L85.6632 59.7245C86.553 61.296 88.2089 62.1821 89.9134 62.1821C90.7159 62.1819 91.5296 61.9854 92.2786 61.5714L97.5089 58.6741C98.6394 58.0491 99.4573 57.0147 99.8122 55.7618C100.17 54.4991 100.014 53.1772 99.3704 52.0376ZM10.9362 57.8001C10.6823 58.2485 10.0755 58.4103 9.61279 58.1542L4.37978 55.2558C4.09404 55.0976 3.98505 54.8386 3.94521 54.6981C3.90439 54.5526 3.86084 54.2638 4.0331 53.961L19.1143 27.2911C19.287 26.9851 19.6124 26.8136 19.9503 26.8136C20.1147 26.8136 20.2819 26.854 20.4362 26.9394L25.6679 29.8374C25.6685 29.8378 25.669 29.8382 25.6696 29.8384C25.9559 29.9968 26.0647 30.2548 26.1042 30.3944C26.1448 30.5388 26.1878 30.8255 26.0161 31.1278L10.9362 57.8001ZM25.189 67.8509C24.6382 68.2921 23.9427 68.4915 23.2319 68.4124C22.5208 68.3335 21.887 67.987 21.4468 67.4366C21.0056 66.8849 20.8067 66.1896 20.8866 65.479C20.9661 64.7714 21.3128 64.1407 21.8663 63.7003L29.1784 57.8554C30.3261 56.9392 32.006 57.1276 32.9231 58.2731C33.3642 58.8245 33.5632 59.5187 33.4835 60.2271C33.4042 60.9331 33.0573 61.5632 32.5069 62.0011C32.4948 62.0106 32.4845 62.0214 32.4727 62.0313L25.1907 67.8495C25.1901 67.8499 25.1895 67.8505 25.189 67.8509ZM27.2132 74.6349C26.7724 74.0854 26.5731 73.3931 26.6518 72.6853C26.7306 71.9769 27.0776 71.3433 27.6288 70.9013L27.6294 70.9009C27.6298 70.9007 27.6302 70.9003 27.6306 70.9001C27.6308 70.9001 27.6308 70.8999 27.631 70.8997L38.1634 62.4849C39.3108 61.5685 40.9911 61.7556 41.9081 62.9026C42.3485 63.4532 42.5476 64.1466 42.4688 64.8548C42.3899 65.5638 42.0419 66.1974 41.4893 66.6388L30.9597 75.0505C29.8108 75.9673 28.1311 75.7823 27.2132 74.6349ZM34.7636 82.8165C34.0526 82.7376 33.4194 82.3907 32.9786 81.838C32.5382 81.2874 32.3392 80.594 32.4179 79.8858C32.4968 79.1774 32.8442 78.5444 33.396 78.103C33.3964 78.1026 33.397 78.1022 33.3974 78.1019L40.686 72.2792C40.6946 72.2726 40.704 72.2669 40.7126 72.2601C41.8571 71.3438 43.5368 71.5304 44.4548 72.6745C44.896 73.2261 45.095 73.9214 45.0151 74.6319C44.9354 75.3396 44.5888 75.9702 44.0354 76.4106L36.7235 82.2554C36.171 82.6966 35.4747 82.895 34.7636 82.8165ZM47.5601 84.4021C47.481 85.1105 47.1339 85.7427 46.5811 86.1841L42.4915 89.4569C41.3425 90.3739 39.6628 90.1894 38.7452 89.0417C38.3044 88.4927 38.105 87.7997 38.1837 87.0905C38.2624 86.3814 38.6091 85.7487 39.1593 85.3093C39.1599 85.3089 39.1606 85.3083 39.1612 85.3079L43.2499 82.0396C43.252 82.0378 43.2544 82.0364 43.2565 82.0349C44.4044 81.1188 46.0843 81.3065 47.0015 82.4526C47.4407 83.0022 47.6394 83.6942 47.5601 84.4021ZM78.5518 67.4364C78.1116 67.9868 77.4776 68.3335 76.7667 68.4124C76.0564 68.4923 75.3604 68.2923 74.8097 67.8509C74.8095 67.8507 74.8091 67.8505 74.8087 67.8503C74.8085 67.8501 74.8081 67.8499 74.8079 67.8497L69.5817 63.6741C68.7388 63.0007 67.5099 63.1382 66.8368 63.9808C66.1636 64.8233 66.3009 66.0524 67.1435 66.7257L72.3679 70.8999C73.514 71.8177 73.7028 73.4942 72.7907 74.6347C71.8704 75.7815 70.1905 75.9681 69.0436 75.0495L63.3747 70.5257C62.5317 69.853 61.3028 69.9911 60.63 70.8341C59.9573 71.6771 60.0952 72.906 60.9384 73.5788L66.6046 78.1005C67.1567 78.5427 67.5042 79.1767 67.5831 79.8858C67.6618 80.5937 67.4626 81.2862 67.0181 81.8399C66.5788 82.3907 65.9456 82.7374 65.2349 82.8165C64.5233 82.8948 63.827 82.6962 63.2767 82.2569L60.456 80.0011C60.4511 79.9972 60.4468 79.9931 60.4419 79.9892L58.0587 78.0839L57.6132 77.7276C56.7704 77.0538 55.5415 77.1907 54.8681 78.0329C54.7839 78.1384 54.7122 78.2497 54.6532 78.3653C54.3704 78.9181 54.3751 79.5663 54.6405 80.1099C54.7634 80.3616 54.9403 80.5915 55.1735 80.778L58.0097 83.0462C59.1481 83.9655 59.3343 85.6364 58.4227 86.7761C57.5054 87.9228 55.8253 88.1101 54.6782 87.195L51.4604 84.6243C51.5944 82.9526 51.0991 81.3224 50.0515 80.0124C49.4003 79.1985 48.5927 78.5821 47.7058 78.1687C48.3558 77.2669 48.7685 76.2075 48.8966 75.0685C49.0935 73.3192 48.5993 71.6028 47.5032 70.2323C46.8519 69.4206 46.0452 68.8056 45.1601 68.3931C45.8112 67.4886 46.2239 66.427 46.3509 65.2864C46.5452 63.5411 46.0507 61.828 44.9585 60.4622C43.0792 58.1126 39.9011 57.3983 37.256 58.521C37.0442 57.5487 36.6116 56.6315 35.9729 55.8329C33.7116 53.0071 29.5706 52.5448 26.7403 54.803L21.5106 58.9833C20.328 57.4741 18.7204 56.2226 16.8196 55.33L27.5772 36.3024L33.305 37.962C33.3311 38.2685 33.3808 38.5907 33.4638 38.9321C34.8503 44.6329 40.0991 47.2892 47.1622 45.8659C53.1134 44.6685 55.5634 46.4522 60.4429 50.0056C60.9491 50.3741 61.4751 50.7571 62.0257 51.1515C65.5349 53.669 69.2849 56.6282 71.7991 58.6339L78.139 63.7007C78.6897 64.1401 79.0364 64.7729 79.1151 65.4827C79.1938 66.1919 78.9946 66.8849 78.5518 67.4364ZM78.4911 58.9821L74.2366 55.5819C71.6876 53.5485 67.8847 50.548 64.3017 47.9772C63.7587 47.5884 63.2409 47.2112 62.7425 46.8483C57.6827 43.1638 54.0259 40.5017 46.3915 42.037C44.0548 42.5079 38.4876 43.0585 37.2597 38.0101C37.0866 37.2974 37.2624 37.0524 37.3372 36.9479C37.5983 36.5839 38.6491 35.6978 42.7603 35.3337L51.4835 34.553C52.905 34.4233 53.6181 34.3581 55.7876 35.1159L60.8985 36.9026C61.4667 37.1011 61.921 37.2729 62.322 37.4249C64.7829 38.3571 65.4351 38.3569 68.6681 37.4212L72.436 36.3294L83.1792 55.3312C81.2778 56.2231 79.6718 57.4737 78.4911 58.9821Z" fill="#6F3A80"/>
<path d="M89.957 41.328C91.0355 41.328 91.9102 40.4507 91.9102 39.3719C91.9102 38.2932 91.0355 37.4188 89.957 37.4188C88.8785 37.4188 88.0039 38.2934 88.0039 39.3719V39.3774C88.0039 40.4561 88.8785 41.328 89.957 41.328Z" fill="#6F3A80"/>
</g>
<defs>
<clipPath id="clip0">
<rect width="100" height="100" fill="white"/>
</clipPath>
</defs>
</svg>
