<svg width="100" height="100" viewBox="0 0 100 100" fill="none" xmlns="http://www.w3.org/2000/svg">
<g clip-path="url(#clip0)">
<path d="M46.1449 67.8254C46.9085 67.0617 46.9085 65.8257 46.1449 65.062C45.3804 64.3006 44.1421 64.3006 43.3769 65.062C42.614 65.8257 42.614 67.0617 43.3769 67.8254C44.1421 68.5868 45.3804 68.5868 46.1449 67.8254Z" fill="#6F3A80"/>
<path d="M36.8789 21.4783C36.8789 33.3214 46.5329 42.9573 58.3992 42.9573C70.2655 42.9573 79.9195 33.3214 79.9195 21.4783C79.9195 9.63517 70.2655 0 58.3992 0C46.5329 0 36.8789 9.63517 36.8789 21.4783ZM76.0071 21.4783C76.0071 31.1684 68.1083 39.0518 58.3992 39.0518C48.6902 39.0518 40.7913 31.1684 40.7913 21.4783C40.7913 11.7889 48.6902 3.90549 58.3992 3.90549C68.1083 3.90549 76.0071 11.7889 76.0071 21.4783Z" fill="#6F3A80"/>
<path d="M22.6322 99.4225C23.3905 100.185 24.625 100.194 25.3933 99.4385L34.8784 90.1123C36.4898 88.5041 36.9798 86.1229 36.2712 84.0531L38.3114 82.0893C39.4099 81.0303 40.8562 80.4467 42.3851 80.4467H68.3934C73.0075 80.4467 77.3686 78.6782 80.6748 75.467C80.8108 75.335 79.642 76.709 98.418 54.3122C101.203 51.0239 100.786 46.0861 97.4885 43.3037C94.2113 40.5472 89.3022 40.9432 86.5097 44.175L74.9652 56.0173C73.5075 54.2267 71.2845 53.1105 68.8826 53.1105H47.0665C43.9621 51.8143 40.6682 51.1582 37.2695 51.1582C27.8487 51.1582 19.6226 55.5008 15.208 63.6429C13.3481 63.2912 11.3866 63.8527 9.97546 65.2611L0.668498 74.5774C-0.0913484 75.338 -0.0928772 76.5686 0.66544 77.3316L22.6322 99.4225ZM37.2688 55.0629C40.2653 55.0629 43.1625 55.6649 45.8816 56.852C46.1293 56.9603 46.3961 57.016 46.6659 57.016H68.8826C71.0039 57.016 72.7958 58.7426 72.7958 60.9207C72.7958 63.0745 71.0406 64.8262 68.8826 64.8262H52.9205C51.8404 64.8262 50.9643 65.7006 50.9643 66.7786C50.9643 67.8574 51.8404 68.731 52.9205 68.731H68.8826C73.1979 68.731 76.7081 65.2275 76.7081 60.9207C76.7081 60.5774 76.6837 60.2372 76.6393 59.8999C87.8069 48.4429 89.3817 46.8331 89.4489 46.753C90.8433 45.1103 93.3185 44.9021 94.9651 46.2876C96.6132 47.6784 96.8219 50.1473 95.4237 51.799L77.8762 72.7356C75.3138 75.1908 71.9495 76.5419 68.3934 76.5419H42.3851C39.8365 76.5419 37.4239 77.5147 35.5939 79.2794L33.9312 80.8808L18.6044 65.5846C22.1865 58.8776 28.9082 55.0629 37.2688 55.0629ZM12.7442 68.0207C13.3894 67.3767 14.3801 67.2608 15.1667 67.746C15.5054 67.952 14.533 67.0685 32.1119 84.5887C32.8939 85.3691 32.8519 86.6127 32.1226 87.3406L24.0364 95.2912L4.81325 75.959L12.7442 68.0207Z" fill="#6F3A80"/>
<path d="M56.0499 9.76331V12.0514C53.7727 12.857 52.1368 15.0276 52.1368 17.5735C52.1368 20.803 54.7695 23.4314 58.0061 23.4314C59.0847 23.4314 59.9623 24.3072 59.9623 25.3837C59.9623 26.4602 59.0847 27.3361 58.0061 27.3361C57.1706 27.3361 56.2678 26.812 55.4659 25.859C54.7702 25.0335 53.5365 24.9275 52.7093 25.621C51.8822 26.3153 51.7752 27.5467 52.4708 28.3722C53.5166 29.6135 54.7465 30.4786 56.0499 30.915V33.1939C56.0499 34.2727 56.9259 35.1463 58.0061 35.1463C59.0862 35.1463 59.9623 34.2727 59.9623 33.1939V30.9059C62.2395 30.0995 63.8754 27.9289 63.8754 25.3837C63.8754 22.1534 61.2427 19.5259 58.0061 19.5259C56.9275 19.5259 56.0499 18.65 56.0499 17.5735C56.0499 16.497 56.9275 15.6204 58.0061 15.6204C58.6994 15.6204 59.431 15.9736 60.122 16.6412C60.8987 17.3912 62.1371 17.3706 62.8885 16.5962C63.64 15.821 63.6193 14.5851 62.8434 13.8351C61.8504 12.8761 60.8567 12.3337 59.9623 12.0376V9.76331C59.9623 8.68451 59.0862 7.81018 58.0061 7.81018C56.9259 7.81018 56.0499 8.68451 56.0499 9.76331Z" fill="#6F3A80"/>
</g>
<defs>
<clipPath id="clip0">
<rect width="100" height="100" fill="white"/>
</clipPath>
</defs>
</svg>
