<svg width="100" height="100" viewBox="0 0 100 100" fill="none" xmlns="http://www.w3.org/2000/svg">
<g clip-path="url(#clip0)">
<path d="M91.0924 17.2678C77.3337 13.4979 63.494 7.62777 51.0696 0.292236C50.4097 -0.0974119 49.5907 -0.0974119 48.931 0.292236C36.1482 7.83851 23.0564 13.391 8.90703 17.2678C7.99297 17.518 7.35938 18.3488 7.35938 19.2967V40.79C7.35938 62.9234 17.5701 77.5741 26.1361 85.9669C35.358 95.003 46.1001 100 50.0003 100C53.9001 100 64.6423 95.003 73.8641 85.9669C82.4299 77.5743 92.6401 62.9236 92.6401 40.79V19.2965C92.6401 18.3488 92.0065 17.518 91.0924 17.2678ZM88.4331 40.7898C88.4331 61.4622 78.9094 75.1331 70.9196 82.9616C61.8511 91.8473 52.1552 95.7926 50.0003 95.7926C47.8454 95.7926 38.149 91.8473 29.0802 82.9616C21.0906 75.1329 11.5666 61.4622 11.5666 40.7898V20.8934C25.0974 17.0516 37.6986 11.6901 50.0007 4.54106C61.9956 11.5004 75.2255 17.1285 88.4331 20.8926V40.7898Z" fill="#6F3A80"/>
<path d="M31.3537 20.658C30.9279 19.5769 29.7066 19.0459 28.6254 19.4719C24.8676 20.9525 21.0105 22.3154 17.1615 23.5228C16.2844 23.7982 15.6875 24.6107 15.6875 25.5299V33.6531C15.6875 34.8148 16.6295 35.7566 17.791 35.7566C18.9525 35.7566 19.8945 34.8148 19.8945 33.6531V27.0672C23.3474 25.95 26.7967 24.7142 30.1676 23.3859C31.2486 22.9603 31.7797 21.7391 31.3537 20.658Z" fill="#6F3A80"/>
<path d="M35.3505 21.057C35.6327 21.057 35.9193 21.0002 36.1941 20.8803L36.2327 20.8635C37.297 20.3971 37.7763 19.1582 37.3099 18.0944C36.8431 17.0301 35.5972 16.5487 34.5341 17.0147L34.5001 17.0293C33.4353 17.4944 32.9544 18.7322 33.4195 19.7967C33.7646 20.5869 34.539 21.057 35.3505 21.057Z" fill="#6F3A80"/>
<path d="M75.0647 67.8286C74.0926 67.1932 72.7891 67.4665 72.153 68.4389C70.4196 71.0921 68.386 73.6327 66.1079 75.9895C64.2344 77.9274 62.2043 79.7336 60.0741 81.3577C59.1504 82.062 58.9727 83.3819 59.6768 84.3059C60.0911 84.8487 60.7174 85.1342 61.351 85.1342C61.7959 85.1342 62.2442 84.9938 62.625 84.7032C64.9229 82.951 67.1123 81.0032 69.1323 78.9137C71.5953 76.3661 73.7965 73.6161 75.675 70.7401C76.3108 69.7675 76.0371 68.4639 75.0647 67.8286Z" fill="#6F3A80"/>
<path d="M55.1864 84.6568L55.0657 84.7279C54.0605 85.3101 53.7169 86.5968 54.2989 87.6021C54.689 88.2759 55.395 88.6521 56.1214 88.6521C56.4788 88.6521 56.8417 88.5609 57.1731 88.3685L57.3124 88.2866C58.3149 87.6995 58.6516 86.4111 58.0645 85.4085C57.477 84.4064 56.1884 84.0702 55.1864 84.6568Z" fill="#6F3A80"/>
<path d="M35.6616 45.7068C34.37 44.415 32.6523 43.704 30.8253 43.704C28.9984 43.704 27.2804 44.4152 25.9882 45.7068C23.3216 48.3739 23.3216 52.7138 25.9882 55.3808L38.4093 67.8014C39.7011 69.0928 41.4189 69.804 43.246 69.804C45.0732 69.804 46.7909 69.0928 48.0829 67.8011L74.0127 41.871C76.6791 39.2033 76.6791 34.864 74.0124 32.1978C72.7206 30.906 71.0028 30.1951 69.1754 30.1951C67.3483 30.1951 65.6305 30.9062 64.3386 32.1978L43.2458 53.2905L35.6616 45.7068ZM67.3135 35.1728C67.8106 34.6757 68.4721 34.4021 69.1756 34.4021C69.8796 34.4021 70.5405 34.6757 71.0379 35.1728C72.0643 36.1992 72.0643 37.8699 71.0376 38.8966L45.1081 64.8263C44.611 65.3233 43.9495 65.597 43.246 65.597C42.5425 65.597 41.881 65.3233 41.3837 64.8263L28.963 52.406C27.9363 51.3792 27.9363 49.7085 28.9626 48.6821C29.4599 48.1851 30.1214 47.911 30.8251 47.911C31.5288 47.911 32.19 48.1847 32.687 48.6818L41.7583 57.7532C42.153 58.1476 42.6878 58.3692 43.2458 58.3692C43.8038 58.3692 44.3386 58.1477 44.7329 57.7532L67.3135 35.1728Z" fill="#6F3A80"/>
</g>
<defs>
<clipPath id="clip0">
<rect width="100" height="100" fill="white"/>
</clipPath>
</defs>
</svg>
