<svg width="100" height="100" viewBox="0 0 100 100" fill="none" xmlns="http://www.w3.org/2000/svg">
<path d="M69.2078 44.2078L50.9156 62.5H43.75V59.375H43.7094C46.7219 57.1203 48.9062 53.8172 49.6844 50H50C53.4469 50 56.25 47.1969 56.25 43.75C56.25 42.1781 55.6484 40.7578 54.6875 39.6594V34.375C54.6875 23.175 45.575 14.0625 34.375 14.0625C23.175 14.0625 14.0625 23.175 14.0625 34.375V39.6594C13.1016 40.7578 12.5 42.1781 12.5 43.75C12.5 47.1969 15.3031 50 18.75 50H19.0656C19.8438 53.8172 22.0281 57.1203 25.0406 59.375H25V62.5H17.1875C8.57188 62.5 1.5625 69.5094 1.5625 78.125V96.875C1.5625 97.7391 2.26094 98.4375 3.125 98.4375H65.625C66.4891 98.4375 67.1875 97.7391 67.1875 96.875V78.125C67.1875 70.675 61.9422 64.4359 54.9531 62.8812L70.9594 46.875H98.4375V43.75H70.3125C69.8969 43.75 69.5 43.9141 69.2078 44.2078ZM25.8297 65.625L31.9109 72.9219L25.9125 75.9203L22.4797 65.625H25.8297ZM34.0938 82.8125H34.6578L37.1578 95.3125H31.5937L34.0938 82.8125ZM34.9719 79.6875H33.7781L32.0969 76.3234L34.375 75.1844L36.6531 76.3234L34.9719 79.6875ZM36.8391 72.9219L42.9203 65.625H46.2703L42.8375 75.9219L36.8391 72.9219ZM50 46.875V40.625C51.7234 40.625 53.125 42.0266 53.125 43.75C53.125 45.4734 51.7234 46.875 50 46.875ZM15.625 43.75C15.625 42.0266 17.0266 40.625 18.75 40.625V46.875C17.0266 46.875 15.625 45.4734 15.625 43.75ZM18.75 37.5C18.2078 37.5 17.6906 37.5906 17.1875 37.7219V34.375C17.1875 24.8984 24.8984 17.1875 34.375 17.1875C43.8516 17.1875 51.5625 24.8984 51.5625 34.375V37.7219C51.0594 37.5906 50.5422 37.5 50 37.5C50 36.6359 49.3016 35.9375 48.4375 35.9375C45.9922 35.9375 43.6547 34.7688 42.1875 32.8109L40.3125 30.3109C39.7234 29.5266 38.4016 29.5266 37.8125 30.3109L35.9375 32.8125C34.4703 34.7687 32.1328 35.9375 29.6875 35.9375H20.3125C19.4484 35.9375 18.75 36.6359 18.75 37.5ZM21.875 46.875V39.0625H29.6875C33.1109 39.0625 36.3828 37.4266 38.4375 34.6875L39.0625 33.8531L39.6875 34.6859C41.4266 37.0047 44.0359 38.5344 46.875 38.9484V46.875C46.875 53.7672 41.2672 59.375 34.375 59.375C27.4828 59.375 21.875 53.7672 21.875 46.875ZM34.375 62.5C36.5969 62.5 38.7094 62.0266 40.625 61.1859V63.4969L34.375 70.9969L28.125 63.4969V61.1859C30.0406 62.0266 32.1531 62.5 34.375 62.5ZM4.6875 78.125C4.6875 71.2328 10.2953 65.625 17.1875 65.625H19.1875L23.5187 78.6188C23.6609 79.0469 23.9844 79.3938 24.4016 79.5672C24.5938 79.6484 24.7969 79.6875 25 79.6875C25.2391 79.6875 25.4797 79.6328 25.6984 79.5234L29.3 77.7219L31.1734 81.4703L28.4062 95.3125H14.0625V85.9375H10.9375V95.3125H4.6875V78.125ZM64.0625 78.125V95.3125H57.8125V85.9375H54.6875V95.3125H40.3438L37.575 81.4703L39.4484 77.7219L43.05 79.5234C43.2703 79.6328 43.5109 79.6875 43.75 79.6875C43.9531 79.6875 44.1562 79.6484 44.3484 79.5687C44.7672 79.3953 45.0906 79.0484 45.2313 78.6203L49.5625 65.625H51.5625C58.4547 65.625 64.0625 71.2328 64.0625 78.125Z" fill="#6F3A80"/>
<path d="M95.3125 37.5V15.625C95.3125 14.7609 94.6141 14.0625 93.75 14.0625H87.5C86.6359 14.0625 85.9375 14.7609 85.9375 15.625V37.5H82.8125V25C82.8125 24.1359 82.1141 23.4375 81.25 23.4375H75C74.1359 23.4375 73.4375 24.1359 73.4375 25V37.5H70.3125V29.6875C70.3125 28.8234 69.6141 28.125 68.75 28.125H62.5C61.6359 28.125 60.9375 28.8234 60.9375 29.6875V37.5H57.8125V40.625H98.4375V37.5H95.3125ZM89.0625 17.1875H92.1875V37.5H89.0625V17.1875ZM76.5625 26.5625H79.6875V37.5H76.5625V26.5625ZM64.0625 31.25H67.1875V37.5H64.0625V31.25Z" fill="#6F3A80"/>
<path d="M72.5211 10.9375H81.2492C81.6648 10.9375 82.0617 10.7734 82.3539 10.4797L85.9367 6.89687V10.9375H89.0617V3.125C89.0617 2.26094 88.3633 1.5625 87.4992 1.5625H79.6867V4.6875H83.7273L80.6023 7.8125H71.8742C71.4586 7.8125 71.0617 7.97656 70.7695 8.27031L61.3945 17.6453L63.6039 19.8547L72.5211 10.9375Z" fill="#6F3A80"/>
</svg>
