<svg width="110" height="110" viewBox="0 0 110 110" fill="none" xmlns="http://www.w3.org/2000/svg">
<path d="M52.4998 1.44367C54.0469 0.550338 55.9531 0.550339 57.5002 1.44367L78.815 13.7512L100.131 26.0566C101.678 26.9498 102.631 28.6006 102.631 30.3871L102.63 55L102.631 79.6129C102.631 81.3994 101.678 83.0502 100.131 83.9434L78.815 96.2488L57.5002 108.556C55.9531 109.45 54.0469 109.45 52.4998 108.556L31.185 96.2488L9.86897 83.9434C8.32176 83.0502 7.36866 81.3994 7.36875 79.6129L7.37 55L7.36875 30.3871C7.36866 28.6006 8.32176 26.9498 9.86897 26.0566L31.185 13.7512L52.4998 1.44367Z" fill="url(#paint0_linear)"/>
<path d="M41.4941 72V65.4302L53.2715 56.4214C54.751 55.3081 55.791 54.3267 56.3916 53.4771C57.0068 52.6128 57.3145 51.7046 57.3145 50.7524C57.3145 49.771 56.9922 48.9946 56.3477 48.4233C55.7178 47.8521 54.8755 47.5664 53.8208 47.5664C52.7954 47.5664 51.814 47.874 50.8765 48.4893C49.939 49.1045 48.833 50.1445 47.5586 51.6094L41.6699 46.7095C43.4717 44.3657 45.3247 42.6592 47.229 41.5898C49.1479 40.5059 51.5649 39.9639 54.48 39.9639C57.9224 39.9639 60.7202 40.9014 62.8735 42.7764C65.0269 44.6514 66.1035 47.0903 66.1035 50.0933C66.1035 51.3237 65.9497 52.4443 65.6421 53.4551C65.3491 54.4512 64.8657 55.3887 64.1919 56.2676C63.5327 57.1318 62.793 57.9302 61.9727 58.6626C61.1523 59.3804 60.0977 60.1934 58.8086 61.1016L53.4033 64.8809H66.4111V72H41.4941Z" fill="white"/>
<defs>
<linearGradient id="paint0_linear" x1="81.1017" y1="12.1186" x2="27.0339" y2="99.7458" gradientUnits="userSpaceOnUse">
<stop stop-color="#6F3A80"/>
<stop offset="0.494792" stop-color="#EE778C"/>
<stop offset="1" stop-color="#6F3A80"/>
</linearGradient>
</defs>
</svg>
