<svg width="110" height="110" viewBox="0 0 110 110" fill="none" xmlns="http://www.w3.org/2000/svg">
<path d="M52.4998 1.44367C54.0469 0.550338 55.9531 0.550339 57.5002 1.44367L78.815 13.7512L100.131 26.0566C101.678 26.9498 102.631 28.6006 102.631 30.3871L102.63 55L102.631 79.6129C102.631 81.3994 101.678 83.0502 100.131 83.9434L78.815 96.2488L57.5002 108.556C55.9531 109.45 54.0469 109.45 52.4998 108.556L31.185 96.2488L9.86897 83.9434C8.32176 83.0502 7.36866 81.3994 7.36875 79.6129L7.37 55L7.36875 30.3871C7.36866 28.6006 8.32176 26.9498 9.86897 26.0566L31.185 13.7512L52.4998 1.44367Z" fill="url(#paint0_linear)"/>
<path d="M41.813 67.0562L47.3062 61.563C49.6646 63.9653 52.1694 65.1665 54.8208 65.1665C56.0659 65.1665 57.0474 64.8735 57.7651 64.2876C58.4976 63.687 58.8638 62.8813 58.8638 61.8706C58.8638 60.8599 58.417 60.0688 57.5234 59.4976C56.6445 58.9263 55.3848 58.6406 53.7441 58.6406H50.0527L48.7783 54.0923L56.0293 47.5664H43.9663V40.4912H66.73V46.7534L59.2153 53.1914C60.4019 53.4551 61.4639 53.814 62.4014 54.2681C63.3389 54.7075 64.1885 55.2788 64.9502 55.9819C65.7266 56.6851 66.3198 57.5566 66.73 58.5967C67.1548 59.6367 67.3672 60.8159 67.3672 62.1343C67.3672 65.2983 66.2246 67.8398 63.9395 69.7588C61.6689 71.6777 58.7612 72.6372 55.2163 72.6372C49.6353 72.6372 45.1675 70.7769 41.813 67.0562Z" fill="white"/>
<defs>
<linearGradient id="paint0_linear" x1="81.1017" y1="12.1186" x2="27.0339" y2="99.7458" gradientUnits="userSpaceOnUse">
<stop stop-color="#6F3A80"/>
<stop offset="0.494792" stop-color="#EE778C"/>
<stop offset="1" stop-color="#6F3A80"/>
</linearGradient>
</defs>
</svg>
