<svg width="110" height="110" viewBox="0 0 110 110" fill="none" xmlns="http://www.w3.org/2000/svg">
<path d="M52.4998 1.44367C54.0469 0.550338 55.9531 0.550339 57.5002 1.44367L78.815 13.7512L100.131 26.0566C101.678 26.9498 102.631 28.6006 102.631 30.3871L102.63 55L102.631 79.6129C102.631 81.3994 101.678 83.0502 100.131 83.9434L78.815 96.2488L57.5002 108.556C55.9531 109.45 54.0469 109.45 52.4998 108.556L31.185 96.2488L9.86897 83.9434C8.32176 83.0502 7.36866 81.3994 7.36875 79.6129L7.37 55L7.36875 30.3871C7.36866 28.6006 8.32176 26.9498 9.86897 26.0566L31.185 13.7512L52.4998 1.44367Z" fill="url(#paint0_linear)"/>
<path d="M40.8569 67.6274L45.8447 61.7827C48.5693 64.0679 51.1182 65.2104 53.4912 65.2104C54.9268 65.2104 56.0547 64.8735 56.875 64.1997C57.71 63.5259 58.1274 62.603 58.1274 61.4312C58.1274 60.3179 57.7026 59.4316 56.853 58.7725C56.0034 58.1133 54.8828 57.7837 53.4912 57.7837C51.8799 57.7837 50.2026 58.311 48.4595 59.3657L43.2959 56.4653L44.1748 40.4912H65.2466V47.6982H51.0742L50.8105 52.4663C52.4072 51.7192 54.0845 51.3457 55.8423 51.3457C56.9995 51.3457 58.0981 51.4702 59.1382 51.7192C60.1929 51.9683 61.1743 52.3638 62.0825 52.9058C63.0054 53.4478 63.7964 54.1069 64.4556 54.8833C65.1294 55.6597 65.6567 56.6118 66.0376 57.7397C66.4331 58.853 66.6309 60.0835 66.6309 61.4312C66.6309 64.8882 65.437 67.6201 63.0493 69.627C60.6616 71.6338 57.5269 72.6372 53.645 72.6372C50.979 72.6372 48.6206 72.2124 46.5698 71.3628C44.519 70.4985 42.6147 69.2534 40.8569 67.6274Z" fill="white"/>
<defs>
<linearGradient id="paint0_linear" x1="81.1017" y1="12.1186" x2="27.0339" y2="99.7458" gradientUnits="userSpaceOnUse">
<stop stop-color="#6F3A80"/>
<stop offset="0.494792" stop-color="#EE778C"/>
<stop offset="1" stop-color="#6F3A80"/>
</linearGradient>
</defs>
</svg>
