<svg width="110" height="110" viewBox="0 0 110 110" fill="none" xmlns="http://www.w3.org/2000/svg">
<path d="M52.4998 1.44367C54.0469 0.550338 55.9531 0.550339 57.5002 1.44367L78.815 13.7512L100.131 26.0566C101.678 26.9498 102.631 28.6006 102.631 30.3871L102.63 55L102.631 79.6129C102.631 81.3994 101.678 83.0502 100.131 83.9434L78.815 96.2488L57.5002 108.556C55.9531 109.45 54.0469 109.45 52.4998 108.556L31.185 96.2488L9.86897 83.9434C8.32176 83.0502 7.36866 81.3994 7.36875 79.6129L7.37 55L7.36875 30.3871C7.36866 28.6006 8.32176 26.9498 9.86897 26.0566L31.185 13.7512L52.4998 1.44367Z" fill="url(#paint0_linear)"/>
<path d="M41.8457 57.1465C41.8457 54.6709 42.146 52.3931 42.7466 50.313C43.3618 48.2329 44.2627 46.4092 45.4492 44.8418C46.6357 43.2744 48.1665 42.0586 50.0415 41.1943C51.9312 40.3154 54.0771 39.876 56.4795 39.876C58.6182 39.876 60.5078 40.1616 62.1484 40.7329C63.7891 41.2896 65.3931 42.1538 66.9604 43.3257L62.8516 49.5C61.7822 48.6943 60.7715 48.0938 59.8193 47.6982C58.8672 47.3027 57.7979 47.105 56.6113 47.105C54.8389 47.105 53.4546 47.7056 52.4585 48.9067C51.4624 50.1079 50.8618 51.7485 50.6567 53.8286C51.6675 53.0669 52.7002 52.4736 53.7549 52.0488C54.8242 51.6094 56.062 51.3896 57.4683 51.3896C58.8599 51.3896 60.1782 51.6094 61.4233 52.0488C62.6685 52.4883 63.7671 53.1182 64.7192 53.9385C65.686 54.7588 66.4478 55.8062 67.0044 57.0806C67.5757 58.3403 67.8613 59.7466 67.8613 61.2993C67.8613 63.5845 67.29 65.5986 66.1475 67.3418C65.0195 69.085 63.5107 70.4033 61.6211 71.2969C59.7461 72.1904 57.6514 72.6372 55.3369 72.6372C51.3232 72.6372 48.1152 71.436 45.7129 69.0337C43.1348 66.4556 41.8457 62.4932 41.8457 57.1465ZM50.5249 61.7388C50.5249 62.9106 50.9277 63.8848 51.7334 64.6611C52.5537 65.4375 53.6377 65.8257 54.9854 65.8257C56.333 65.8257 57.395 65.4448 58.1714 64.6831C58.9624 63.9067 59.3579 62.9106 59.3579 61.6948C59.3579 60.5376 58.9478 59.5781 58.1274 58.8164C57.3218 58.04 56.2451 57.6519 54.8975 57.6519C53.5498 57.6519 52.4805 58.04 51.6895 58.8164C50.9131 59.5781 50.5249 60.5522 50.5249 61.7388Z" fill="white"/>
<defs>
<linearGradient id="paint0_linear" x1="81.1017" y1="12.1186" x2="27.0339" y2="99.7458" gradientUnits="userSpaceOnUse">
<stop stop-color="#6F3A80"/>
<stop offset="0.494792" stop-color="#EE778C"/>
<stop offset="1" stop-color="#6F3A80"/>
</linearGradient>
</defs>
</svg>
