<svg width="110" height="110" viewBox="0 0 110 110" fill="none" xmlns="http://www.w3.org/2000/svg">
<path d="M52.4998 1.44367C54.0469 0.550338 55.9531 0.550339 57.5002 1.44367L78.815 13.7512L100.131 26.0566C101.678 26.9498 102.631 28.6006 102.631 30.3871L102.63 55L102.631 79.6129C102.631 81.3994 101.678 83.0502 100.131 83.9434L78.815 96.2488L57.5002 108.556C55.9531 109.45 54.0469 109.45 52.4998 108.556L31.185 96.2488L9.86897 83.9434C8.32176 83.0502 7.36866 81.3994 7.36875 79.6129L7.37 55L7.36875 30.3871C7.36866 28.6006 8.32176 26.9498 9.86897 26.0566L31.185 13.7512L52.4998 1.44367Z" fill="url(#paint0_linear)"/>
<path d="M41.2085 63.2329C41.2085 59.7319 43.0103 57.2124 46.6138 55.6743C43.728 54.0923 42.2852 51.7778 42.2852 48.731C42.2852 46.1968 43.3911 44.1021 45.603 42.4468C47.8149 40.7915 50.6714 39.9639 54.1724 39.9639C57.688 39.9639 60.5444 40.7988 62.7417 42.4688C64.9536 44.124 66.0596 46.2407 66.0596 48.8188C66.0596 51.8071 64.6167 54.0923 61.731 55.6743C63.4741 56.4946 64.8071 57.498 65.73 58.6846C66.6675 59.8711 67.1362 61.4019 67.1362 63.2769C67.1362 66.0601 65.9277 68.3013 63.5107 70.0005C61.0938 71.6997 57.981 72.5493 54.1724 72.5493C50.3638 72.5493 47.251 71.6924 44.834 69.9785C42.417 68.25 41.2085 66.0015 41.2085 63.2329ZM49.624 62.4639C49.624 63.46 50.0269 64.3022 50.8325 64.9907C51.6528 65.6792 52.7661 66.0234 54.1724 66.0234C55.5786 66.0234 56.6846 65.6792 57.4902 64.9907C58.3105 64.2876 58.7207 63.416 58.7207 62.376C58.7207 61.3652 58.2959 60.5449 57.4463 59.915C56.5967 59.2705 55.5054 58.9482 54.1724 58.9482C52.8394 58.9482 51.748 59.2705 50.8984 59.915C50.0488 60.5596 49.624 61.4092 49.624 62.4639ZM50.3052 49.8076C50.3052 50.8037 50.6641 51.6313 51.3818 52.2905C52.0996 52.9497 53.0298 53.2793 54.1724 53.2793C55.3296 53.2793 56.2598 52.957 56.9629 52.3125C57.6807 51.6533 58.0396 50.8037 58.0396 49.7637C58.0396 48.8555 57.6807 48.0791 56.9629 47.4346C56.2598 46.7754 55.3296 46.4458 54.1724 46.4458C53.0005 46.4458 52.063 46.7681 51.3599 47.4126C50.6567 48.0571 50.3052 48.8555 50.3052 49.8076Z" fill="white"/>
<defs>
<linearGradient id="paint0_linear" x1="81.1017" y1="12.1186" x2="27.0339" y2="99.7458" gradientUnits="userSpaceOnUse">
<stop stop-color="#6F3A80"/>
<stop offset="0.494792" stop-color="#EE778C"/>
<stop offset="1" stop-color="#6F3A80"/>
</linearGradient>
</defs>
</svg>
