<svg width="96" height="110" viewBox="0 0 96 110" fill="none" xmlns="http://www.w3.org/2000/svg">
<path d="M45.4998 1.44367C47.0469 0.550338 48.9531 0.550339 50.5002 1.44367L71.815 13.7512L93.131 26.0566C94.6782 26.9498 95.6313 28.6006 95.6312 30.3871L95.63 55L95.6312 79.6129C95.6313 81.3994 94.6782 83.0502 93.131 83.9434L71.815 96.2488L50.5002 108.556C48.9531 109.45 47.0469 109.45 45.4998 108.556L24.185 96.2488L2.86897 83.9434C1.32176 83.0502 0.368659 81.3994 0.368749 79.6129L0.369999 55L0.368749 30.3871C0.368659 28.6006 1.32176 26.9498 2.86897 26.0566L24.185 13.7512L45.4998 1.44367Z" fill="url(#paint0_linear)"/>
<defs>
<linearGradient id="paint0_linear" x1="74.1017" y1="12.1186" x2="20.0339" y2="99.7458" gradientUnits="userSpaceOnUse">
<stop stop-color="#6F3A80"/>
<stop offset="0.494792" stop-color="#EE778C"/>
<stop offset="1" stop-color="#6F3A80"/>
</linearGradient>
</defs>
</svg>
