<svg width="35" height="35" viewBox="0 0 35 35" fill="none" xmlns="http://www.w3.org/2000/svg">
<g clip-path="url(#clip0)">
<path d="M34.688 25.327C34.594 25.1695 34.0121 23.905 31.2119 21.3061C28.2804 18.5847 28.6742 19.0266 32.2051 14.3209C34.3555 11.4551 35.2153 9.70493 34.9462 8.95675C34.6902 8.24357 33.1086 8.43171 33.1086 8.43171L27.8494 8.46234C27.8494 8.46234 27.46 8.40983 27.1691 8.58266C26.8868 8.7533 26.7053 9.14707 26.7053 9.14707C26.7053 9.14707 25.8718 11.3654 24.7604 13.2511C22.4175 17.2305 21.4789 17.4405 21.0961 17.1933C20.2057 16.6179 20.4289 14.8788 20.4289 13.6449C20.4289 9.78806 21.013 8.18013 19.2891 7.76447C18.7159 7.62665 18.2959 7.53477 16.8324 7.51945C14.9553 7.49976 13.3649 7.52602 12.4658 7.96574C11.8664 8.25888 11.4048 8.91299 11.687 8.95019C12.0348 8.99613 12.8224 9.16239 13.2402 9.73118C13.7806 10.464 13.7609 12.1135 13.7609 12.1135C13.7609 12.1135 14.0715 16.6529 13.0368 17.2174C12.3258 17.6046 11.3523 16.8148 9.26305 13.203C8.19328 11.3544 7.38385 9.30896 7.38385 9.30896C7.38385 9.30896 7.22852 8.92831 6.95069 8.72486C6.61379 8.47765 6.14125 8.39889 6.14125 8.39889L1.14026 8.42952C1.14026 8.42952 0.389892 8.4514 0.114247 8.77736C-0.130771 9.06832 0.0945578 9.66774 0.0945578 9.66774C0.0945578 9.66774 4.01047 18.8275 8.44267 23.4456C12.5095 27.6788 17.1255 27.4009 17.1255 27.4009H19.2169C19.2169 27.4009 19.8491 27.3309 20.1707 26.9831C20.4682 26.6637 20.4573 26.0643 20.4573 26.0643C20.4573 26.0643 20.4157 23.2575 21.7196 22.844C23.0037 22.4371 24.6532 25.5567 26.4012 26.7578C27.7225 27.6656 28.7267 27.4666 28.7267 27.4666L33.4017 27.4009C33.4017 27.4009 35.8475 27.25 34.688 25.327Z" fill="#737473"/>
</g>
<defs>
<clipPath id="clip0">
<rect width="35" height="35" fill="white"/>
</clipPath>
</defs>
</svg>
